<svg width="1126" height="442" viewBox="0 0 1126 442" fill="none" xmlns="http://www.w3.org/2000/svg">
<path d="M32.25 170V266.25H0H-6.5H-7.75V267.5V452.5V453.75H-6.5H1135H1136.25V452.5V159.5V158.25H1135H1083.75V2.5V1.25H1082.5H962H960.75V2.5V100.75H917H915.75V102V186.25H817.75V18.5V17.25H816.5H691H689.75V18.5V51.75H656H654.75V53V113.75H607.5H606.25V115V186.25H533.25V2.5V1.25H532H434H432.75V2.5V334.25H311.25V102V100.75H310H166H164.75V102V168.75H33.5H32.25V170Z" fill="url(#paint0_linear_651_6801)" stroke="#C1CAD0" stroke-width="2.5"/>
<path d="M1030.03 255.742C1037.99 254.987 1046.03 255.17 1054.01 255.538C1068.73 274.632 1084.24 293.747 1096.86 314.208C1074.63 314.045 1052.38 314.167 1030.15 314.126C1029.72 294.665 1029.95 275.183 1030.03 255.742Z" fill="#F9FCFF"/>
<path d="M666.789 378.182C682.935 360.863 709.676 364.351 726.455 378.692C728.639 379.875 730.986 380.385 733.497 380.243C831.518 380.039 929.539 380.263 1027.54 380.12C1031.38 380.406 1033.79 376.938 1036.68 375.02C1049.6 363.963 1070.02 362.841 1083.9 372.756C1095.39 383.16 1112.09 376.346 1126.03 378.651C1132.23 379.263 1137.03 386.179 1133.48 391.932C1130.09 397.481 1122.85 395.706 1117.46 396.032C1112.07 395.93 1106.68 395.726 1101.31 396.236C1101.92 404.621 1101.72 413.087 1099.13 421.145C1095.61 430.712 1087.55 438.301 1078.26 442.238C1067.51 447.44 1055.24 446.849 1044.44 442.095C1035.44 437.648 1028.78 429.855 1024.21 421.083C1021.66 413.046 1021.8 404.641 1022.44 396.338C1017.05 395.685 1011.49 395.4 1006.33 397.215C995.961 394.543 985.02 396.603 974.446 395.971C899.879 398.297 825.006 393.849 750.623 397.134C745.398 395.583 739.784 395.379 734.497 396.624C735.212 404.825 735.253 413.127 732.762 421.083C728.108 429.794 721.474 437.567 712.554 442.095C701.756 446.889 689.508 447.379 678.71 442.299C669.463 438.036 662.584 430.182 658.052 421.247C655.256 413.168 655.48 404.621 655.807 396.236C650.337 395.747 644.866 395.971 639.416 396.073C633.619 395.583 625.515 397.725 622.269 391.32C619.514 386.465 622.963 380.528 628.169 379.406C640.804 379.59 654.991 382.548 666.789 378.182ZM1056.85 381.181C1043.13 384.017 1034.46 399.929 1039.44 413.005C1043.42 425.755 1058.85 432.895 1071.24 427.979C1083.37 423.776 1090.41 409.17 1085.94 397.093C1082.18 385.343 1068.77 378.019 1056.85 381.181ZM687.222 382.956C676.22 386.546 668.994 398.684 671.157 410.047C672.892 421.94 684.487 431.243 696.489 430.365C710.411 430.161 721.903 416.269 719.514 402.54C717.881 387.791 701.062 377.672 687.222 382.956Z" fill="#2D2D2D"/>
<path d="M1060.91 397.236C1070.96 394.523 1074.43 411.414 1064.14 412.781C1054.28 415.229 1050.95 398.909 1060.91 397.236Z" fill="#404041"/>
<path d="M691.345 399.112C700.531 393.461 708.39 408.986 698.694 413.188C689.855 417.839 682.67 403.641 691.345 399.112Z" fill="#404041"/>
<path opacity="0.46" d="M276.972 5.4519C285.667 5.1867 301.14 11.1027 296.343 22.5471C286.525 23.8935 276.441 23.5875 266.602 22.8123C259.784 15.7743 271.154 8.4099 276.972 5.4519ZM268.5 20.2827C277.237 20.0175 286.463 21.8739 294.873 19.0995C293.097 11.3067 284.932 10.3479 278.482 8.4507C274.195 10.8171 266.724 14.3871 268.5 20.2827Z" fill="#627480"/>
<path opacity="0.46" d="M851.981 5.4519C860.677 5.1867 876.15 11.1027 871.353 22.5471C861.534 23.8935 851.451 23.5875 841.612 22.8123C834.794 15.7743 846.164 8.4099 851.981 5.4519ZM843.51 20.2827C852.247 20.0175 861.473 21.8739 869.883 19.0995C868.107 11.3067 859.942 10.3479 853.492 8.4507C849.205 10.8171 841.734 14.3871 843.51 20.2827Z" fill="#627480"/>
<path opacity="0.45" d="M311.244 15.3067C317.715 6.88155 330.33 7.75874 336.474 16.0819C350.007 13.1647 356.458 25.0783 363.275 34.1767C365.439 40.3375 360.499 47.4368 354.029 47.6C336.943 47.8652 319.858 47.6203 302.773 47.7019C295.588 48.7219 288.362 41.0719 291.24 33.9931C297.18 26.8531 302.14 18.6931 311.244 15.3067ZM304.324 22.6507C301.283 29.2807 288.239 36.3391 297.261 43.3771C315.49 46.5391 334.596 44.1523 353.13 44.6011C362.071 44.5399 362.214 33.2995 355.417 29.6683C352.028 21.5899 344.435 16.6735 335.78 20.5699C332.371 17.8159 330.289 12.5323 325.308 12.5527C316.102 10.8799 313.04 22.0387 304.324 22.6507Z" fill="#627480"/>
<path opacity="0.45" d="M886.254 15.3067C892.724 6.88155 905.339 7.75874 911.484 16.0819C925.017 13.1647 931.467 25.0783 938.285 34.1767C940.449 40.3375 935.509 47.4368 929.038 47.6C911.953 47.8652 894.868 47.6203 877.783 47.7019C870.597 48.7219 863.371 41.0719 866.249 33.9931C872.189 26.8531 877.15 18.6931 886.254 15.3067ZM879.334 22.6507C876.292 29.2807 863.249 36.3391 872.271 43.3771C890.5 46.5391 909.606 44.1523 928.14 44.6011C937.081 44.5399 937.224 33.2995 930.426 29.6683C927.038 21.5899 919.444 16.6735 910.79 20.5699C907.381 17.8159 905.299 12.5323 900.318 12.5527C891.112 10.8799 888.05 22.0387 879.334 22.6507Z" fill="#627480"/>
<path opacity="0.43" d="M1039.81 31.8296C1046.38 31.4012 1052.99 31.4216 1059.59 31.9724C1060.08 42.5396 1059.91 53.168 1059.81 63.7556C1053.03 64.49 1046.2 64.4084 1039.44 63.9188C1038.89 53.27 1038.28 42.4172 1039.81 31.8296ZM1042.07 35.42C1041.71 44.0084 1041.52 52.6784 1042.32 61.2464C1046.79 61.5524 1051.3 61.5524 1055.79 61.226C1057.04 52.7192 1056.69 44.0288 1056.12 35.4812C1051.44 34.9916 1046.73 34.9508 1042.07 35.42Z" fill="#627480"/>
<path opacity="0.43" d="M774.383 104.76C781.14 104.189 787.957 104.189 794.714 104.78C794.877 115.409 795.428 126.098 794.326 136.665C787.814 136.869 781.323 136.89 774.832 136.686C773.403 126.119 774.016 115.368 774.383 104.76ZM777.057 107.412C776.588 115.919 776.608 124.466 776.873 132.973C781.589 133.463 786.345 133.442 791.08 133.136C791.713 124.568 792.183 115.817 790.856 107.269C786.243 106.943 781.629 106.943 777.057 107.412Z" fill="#627480"/>
<path opacity="0.53" d="M774.425 57.5751C781.1 56.8815 787.876 56.7999 794.551 57.6159C794.735 67.9587 794.755 78.3219 794.531 88.6647C787.876 89.4807 781.1 89.3991 774.425 88.7055C773.976 78.3423 773.976 67.9383 774.425 57.5751ZM776.833 60.1659C776.588 68.8155 776.588 77.4651 776.833 86.1147C781.875 86.5227 787.019 86.6451 792.061 85.8495C791.959 77.3835 791.959 68.9175 792.041 60.4311C787.019 59.6355 781.875 59.7375 776.833 60.1659Z" fill="#627480"/>
<path opacity="0.46" d="M1039.48 79.9337C1046.11 79.4237 1053.12 78.5057 1059.61 80.3417C1059.83 90.4805 1059.83 100.619 1059.65 110.758C1052.99 112.003 1046.16 111.758 1039.48 111.064C1038.7 100.721 1038.7 90.2765 1039.48 79.9337ZM1042.01 82.5041C1041.71 91.1741 1041.64 99.8645 1042.07 108.535C1046.75 108.881 1051.46 108.841 1056.16 108.453C1056.95 99.8441 1056.89 91.1537 1056.24 82.5449C1051.48 82.2185 1046.73 82.1981 1042.01 82.5041Z" fill="#627480"/>
<path opacity="0.42" d="M445.518 84.4006C452.274 83.8906 459.112 83.8498 465.869 84.523C465.95 95.1106 466.216 105.739 465.624 116.327C459.071 116.775 452.499 116.796 445.967 116.408C444.334 105.861 445.028 95.029 445.518 84.4006ZM448.416 87.0934C447.763 95.641 447.824 104.27 448.192 112.838C452.825 113.409 457.5 113.389 462.154 112.899C462.725 104.331 463.134 95.6002 461.807 87.0934C457.336 86.767 452.866 86.767 448.416 87.0934Z" fill="#627480"/>
<path opacity="0.42" d="M1039.46 127.18C1046.2 126.527 1053.05 126.466 1059.79 127.364C1059.91 137.421 1060.1 147.498 1059.69 157.556C1054.38 160.779 1046.5 158.637 1040.24 158.984C1037.73 148.743 1039.13 137.686 1039.46 127.18ZM1042.18 129.689C1041.62 138.298 1041.69 146.948 1042.03 155.577C1046.73 155.883 1051.44 155.862 1056.16 155.516C1056.73 146.927 1056.81 138.278 1055.97 129.71C1051.38 129.322 1046.75 129.302 1042.18 129.689Z" fill="#627480"/>
<path opacity="0.4" d="M745.663 104.883C752.44 104.475 759.278 104.454 766.075 104.924C766.504 115.674 766.504 126.466 766.075 137.217C759.278 137.706 752.46 137.686 745.663 137.278C744.805 126.527 744.805 115.634 745.663 104.883ZM748.377 108.84C748.051 116.98 748.051 125.16 748.398 133.32C752.929 134.442 757.706 134.3 762.299 133.484C763.217 125.262 763.217 116.919 762.299 108.698C757.706 107.882 752.929 107.718 748.377 108.84Z" fill="#627480"/>
<path d="M280.523 115.063C287.28 114.695 294.057 114.695 300.834 115.063C301.406 125.834 301.406 136.687 300.814 147.478C294.077 147.866 287.28 147.866 280.544 147.478C280.176 136.687 280.197 125.854 280.523 115.063ZM284.259 118.837C283.32 127.058 283.32 135.422 284.239 143.643C288.872 144.459 293.649 144.418 298.242 143.398C298.609 135.279 298.589 127.139 298.262 119.02C293.669 117.898 288.872 118.021 284.259 118.837Z" fill="#BBC4CB"/>
<path opacity="0.42" d="M617.432 129.71C624.025 129.159 630.7 129.159 637.314 129.71C638.252 139.686 637.538 149.743 637.64 159.739C636.701 159.698 634.823 159.637 633.864 159.616C634.354 150.865 634.946 142.011 633.782 133.28C629.148 132.75 624.474 132.75 619.881 133.484C619.412 141.828 618.983 150.314 620.432 158.596C624.127 159.127 627.883 159.27 631.618 159.555L631.537 161.86C626.781 161.962 622.025 162.126 617.289 161.758C616.595 151.11 616.472 140.359 617.432 129.71Z" fill="#627480"/>
<path opacity="0.41" d="M445.619 131.381C452.355 130.994 459.153 130.953 465.909 131.504C466.093 142.234 466.073 152.964 465.93 163.695C459.173 164.225 452.376 164.205 445.619 163.797C444.742 153.026 444.742 142.152 445.619 131.381ZM448.232 135.237C447.844 143.458 447.844 151.7 448.232 159.9C452.784 160.737 457.499 160.716 462.092 159.982C462.786 151.74 462.786 143.417 462.092 135.196C457.499 134.4 452.764 134.258 448.232 135.237Z" fill="#627480"/>
<path d="M49.7187 227.261C56.4753 226.873 63.2931 226.873 70.0496 227.281C70.417 238.073 70.417 248.885 70.0496 259.676C63.2931 260.084 56.4753 260.084 49.7187 259.697C49.0859 248.905 49.0859 238.052 49.7187 227.261ZM52.2907 231.178C51.9437 239.358 51.9437 247.579 52.2703 255.76C56.8631 256.841 61.6396 256.698 66.2529 255.882C67.1918 247.661 67.151 239.297 66.2529 231.055C61.6396 230.239 56.8631 230.117 52.2907 231.178Z" fill="#BBC4CB"/>
<path opacity="0.37" d="M745.908 152.047C752.481 151.354 759.176 151.354 765.749 152.149C766.096 154.699 766.381 157.249 766.586 159.82C759.441 159.881 752.317 159.922 745.193 159.779C745.275 157.188 745.52 154.618 745.908 152.047Z" fill="#627480"/>
<path d="M774.363 151.781C781.099 151.026 787.937 151.026 794.673 151.781C794.898 154.433 795.061 157.085 795.163 159.757C788.06 159.88 780.977 159.921 773.894 159.757C773.975 157.085 774.138 154.433 774.363 151.781Z" fill="#C1CAD0"/>
<path d="M631.618 159.555L633.864 159.616C634.823 159.636 636.701 159.697 637.64 159.738C673.484 159.942 709.349 159.84 745.193 159.779C752.317 159.922 759.441 159.881 766.586 159.82C769.015 159.82 771.444 159.799 773.893 159.759C780.977 159.922 788.06 159.881 795.163 159.759C800.368 159.881 805.574 159.861 810.799 159.738H813.004C847.195 159.922 881.406 159.901 915.597 159.738L916.903 159.759C945.338 160.187 973.813 159.289 1002.21 160.207C1002.06 186.483 1002.13 212.758 1002.17 239.033C1002.13 285.239 1002.17 331.425 1002.17 377.631C910.31 379.161 818.311 377.019 726.455 378.691C709.676 364.35 682.935 360.862 666.789 378.181C655.011 377.977 643.233 378.365 631.475 377.835C631.516 337.3 631.577 296.785 631.455 256.251V254.007C631.577 244.949 631.557 235.912 631.455 226.875V224.651C631.537 219.429 631.537 214.186 631.435 208.963V206.862C631.557 197.907 631.537 188.951 631.496 179.995C631.496 179.139 631.496 177.445 631.496 176.589C631.537 171.672 631.496 166.776 631.537 161.86L631.618 159.555ZM652.582 178.894C648.806 181.281 648.316 186.319 648.214 190.379C648.234 242.766 648.275 295.174 648.214 347.581C648.01 352.702 649.745 358.679 654.725 361.086C661.421 363.126 665.952 355.333 665.707 349.56C665.748 295.847 665.789 242.113 665.687 188.4C666.585 181.117 659.338 175.446 652.582 178.894ZM685.324 178.935C679.792 181.077 680.833 187.747 680.629 192.48C680.976 246.112 680.241 299.805 680.976 353.416C680.772 363.33 697.04 363.412 696.836 353.661C697.387 298.56 696.959 243.439 697.061 188.339C698.041 182.056 691.386 175.691 685.324 178.935ZM717.943 178.873C712.574 181.097 712.799 187.625 712.799 192.48C713.125 246.193 712.472 299.947 713.125 353.661C713.289 363.616 728.21 362.739 728.986 353.436C729.639 299.111 729.047 244.725 729.272 190.379C730.109 184.055 725.332 175.14 717.943 178.873ZM748.521 178.894C744.091 181.709 744.214 187.788 744.112 192.439C744.316 244.827 744.03 297.193 744.234 349.56C744.05 355.374 748.541 363.106 755.298 361.086C760.156 358.577 761.952 352.722 761.728 347.581C761.585 294.521 761.789 241.461 761.626 188.4C762.462 181.158 755.257 175.446 748.521 178.894ZM781.242 178.894C775.751 181.097 776.69 187.727 776.506 192.46C776.915 246.112 776.098 299.805 776.914 353.436C776.71 363.31 792.918 363.371 792.755 353.681C793.265 298.581 792.857 243.439 792.959 188.339C793.979 182.076 787.304 175.711 781.242 178.894ZM813.882 178.873C808.493 181.117 808.676 187.605 808.738 192.48C809.044 246.214 808.452 299.947 809.023 353.661C809.207 363.595 824.19 362.759 824.925 353.436C825.578 299.111 824.986 244.725 825.211 190.379C826.047 184.055 821.251 175.161 813.882 178.873ZM844.459 178.914C840.663 181.24 840.173 186.34 840.091 190.379C840.152 243.46 840.112 296.541 840.091 349.621C839.05 355.741 844.807 362.82 851.257 361.107C856.87 358.169 857.993 351.253 857.687 345.521C857.381 293.236 857.952 240.93 857.401 188.665C857.932 181.423 851.645 175.242 844.459 178.914ZM877.181 178.894C871.669 181.056 872.629 187.727 872.445 192.48C872.853 246.112 872.037 299.805 872.853 353.416C872.608 363.33 888.897 363.371 888.652 353.661C889.244 298.56 888.775 243.439 888.898 188.339C889.918 182.035 883.264 175.773 877.181 178.894ZM909.82 178.873C905.228 180.73 904.452 186.075 904.697 190.42C904.962 244.827 904.431 299.274 904.962 353.661C905.166 363.595 920.088 362.759 920.843 353.457C921.517 299.111 920.945 244.725 921.129 190.379C921.966 184.075 917.21 175.099 909.82 178.873ZM940.439 178.873C935.969 181.648 936.05 187.768 935.948 192.439C936.255 245.418 935.622 298.438 936.254 351.396C935.397 361.372 951.686 364.717 952.237 353.661C952.666 297.907 952.482 242.073 952.34 186.299C953.503 179.832 945.501 176.609 940.439 178.873ZM973.119 178.894C967.608 181.077 968.567 187.727 968.404 192.48C968.772 246.112 967.996 299.805 968.772 353.416C968.547 363.351 984.816 363.351 984.591 353.661C985.204 298.581 984.714 243.439 984.816 188.339C985.857 182.056 979.182 175.732 973.119 178.894Z" fill="#93A3AD"/>
<path d="M617.697 177.057C622.289 176.71 626.882 176.751 631.495 176.588C631.495 177.445 631.495 179.138 631.495 179.995C627.556 180.056 623.616 180.076 619.717 180.566C619.228 189.052 619.207 197.6 619.881 206.086C623.698 206.576 627.556 206.637 631.434 206.861V208.963C626.719 209.044 622.004 209.187 617.309 208.779C616.737 198.232 616.349 187.543 617.697 177.057Z" fill="#A9B4BB"/>
<path d="M445.803 178.648C452.416 178.261 459.091 178.24 465.725 178.71C466.072 189.358 465.909 200.007 465.889 210.656C459.091 211.146 452.274 211.064 445.476 210.758C444.986 200.089 444.537 189.277 445.803 178.648ZM448.191 182.361C447.844 190.909 447.722 199.518 448.436 208.045C452.825 208.31 457.234 208.31 461.643 208.024C463.378 199.599 462.664 190.807 462.174 182.28C457.52 181.79 452.825 181.769 448.191 182.361Z" fill="#A9B4BB"/>
<path d="M652.581 178.893C659.338 175.445 666.584 181.116 665.686 188.399C665.788 242.112 665.747 295.846 665.707 349.559C665.952 355.332 661.42 363.125 654.725 361.085C649.744 358.678 648.009 352.701 648.213 347.58C648.274 295.173 648.234 242.765 648.213 190.378C648.315 186.318 648.805 181.28 652.581 178.893Z" fill="#768894"/>
<path d="M748.52 178.895C755.257 175.447 762.462 181.159 761.625 188.401C761.788 241.461 761.584 294.522 761.727 347.582C761.952 352.723 760.156 358.578 755.297 361.087C748.541 363.106 744.05 355.375 744.234 349.561C744.03 297.194 744.315 244.827 744.111 192.44C744.213 187.789 744.091 181.71 748.52 178.895Z" fill="#768894"/>
<path d="M844.459 178.914C851.644 175.242 857.931 181.423 857.4 188.665C857.951 240.93 857.38 293.236 857.686 345.521C857.992 351.253 856.869 358.169 851.256 361.106C844.806 362.82 839.049 355.741 840.09 349.621C840.111 296.54 840.151 243.46 840.09 190.379C840.172 186.34 840.662 181.24 844.459 178.914Z" fill="#768894"/>
<path d="M940.439 178.874C945.501 176.61 953.503 179.833 952.339 186.3C952.482 242.073 952.666 297.908 952.237 353.661C951.686 364.718 935.397 361.373 936.254 351.397C935.622 298.439 936.254 245.419 935.948 192.44C936.05 187.769 935.969 181.649 940.439 178.874Z" fill="#768894"/>
<path d="M685.323 178.934C691.385 175.69 698.04 182.055 697.06 188.338C696.958 243.438 697.387 298.559 696.835 353.66C697.04 363.411 680.771 363.329 680.975 353.415C680.24 299.804 680.975 246.111 680.628 192.479C680.832 187.746 679.791 181.076 685.323 178.934Z" fill="#768894"/>
<path d="M717.942 178.872C725.331 175.138 730.108 184.053 729.271 190.377C729.047 244.723 729.638 299.109 728.985 353.434C728.21 362.737 713.288 363.614 713.125 353.659C712.472 299.946 713.125 246.192 712.798 192.478C712.798 187.623 712.574 181.095 717.942 178.872Z" fill="#768894"/>
<path d="M781.242 178.894C787.304 175.712 793.979 182.076 792.959 188.339C792.856 243.44 793.265 298.581 792.754 353.681C792.918 363.371 776.71 363.31 776.914 353.436C776.098 299.805 776.914 246.112 776.506 192.46C776.69 187.727 775.75 181.097 781.242 178.894Z" fill="#768894"/>
<path d="M813.881 178.873C821.25 175.16 826.047 184.054 825.21 190.378C824.986 244.724 825.578 299.11 824.924 353.435C824.19 362.758 809.207 363.594 809.023 353.66C808.452 299.946 809.044 246.213 808.737 192.479C808.676 187.604 808.492 181.117 813.881 178.873Z" fill="#768894"/>
<path d="M877.18 178.892C883.263 175.771 889.917 182.034 888.897 188.338C888.774 243.438 889.244 298.559 888.652 353.659C888.897 363.37 872.608 363.329 872.852 353.414C872.036 299.803 872.853 246.11 872.444 192.479C872.628 187.726 871.669 181.055 877.18 178.892Z" fill="#768894"/>
<path d="M909.82 178.873C917.209 175.099 921.965 184.075 921.128 190.378C920.945 244.724 921.516 299.11 920.843 353.456C920.087 362.758 905.166 363.595 904.962 353.66C904.431 299.273 904.962 244.826 904.696 190.419C904.451 186.074 905.227 180.729 909.82 178.873Z" fill="#768894"/>
<path d="M973.119 178.892C979.181 175.73 985.856 182.054 984.815 188.337C984.713 243.438 985.203 298.579 984.591 353.659C984.815 363.349 968.546 363.349 968.771 353.414C967.995 299.803 968.771 246.11 968.403 192.478C968.567 187.725 967.607 181.075 973.119 178.892Z" fill="#768894"/>
<path d="M49.719 180.322C56.4959 179.996 63.2933 179.975 70.0907 180.343C70.2744 190.971 70.6622 201.661 69.7845 212.248C63.1912 212.636 56.5572 212.677 49.9639 212.371C48.8821 201.742 49.2495 190.971 49.719 180.322ZM52.4747 183.015C51.8215 191.542 51.9235 200.151 52.2501 208.719C56.8838 209.413 61.6399 209.392 66.294 208.821C67.1717 200.722 67.1309 192.501 66.4777 184.382C62.9259 181.383 56.9654 183.382 52.4747 183.015Z" fill="#BBC4CB"/>
<path d="M49.984 274.591C56.5773 274.285 63.1909 274.326 69.7842 274.693C70.6823 285.301 70.2741 295.991 70.0904 306.619C63.293 306.966 56.4956 306.966 49.7187 306.639C49.2288 295.991 48.8818 285.219 49.984 274.591ZM52.2498 278.243C51.9232 286.811 51.8416 295.399 52.4744 303.947C56.9651 303.579 62.9256 305.579 66.4774 302.58C67.1306 294.461 67.1714 286.239 66.3141 278.141C61.6396 277.569 56.8835 277.529 52.2498 278.243Z" fill="#BBC4CB"/>
<path d="M617.39 224.854C622.044 224.304 626.76 224.528 631.454 224.651V226.874C627.515 227.058 623.596 227.119 619.717 227.588C619.146 236.156 619.166 244.765 619.656 253.313C623.575 253.761 627.515 253.823 631.454 254.006V256.25C626.76 256.393 622.044 256.638 617.411 256.067C616.778 245.683 616.737 235.238 617.39 224.854Z" fill="#A9B4BB"/>
<path d="M1002.17 239.034C1022.19 238.728 1042.22 238.891 1062.24 238.952C1084.39 266.961 1105.29 296.256 1126.54 325.02C1125.32 342.87 1127.34 360.903 1126.03 378.651C1112.09 376.346 1095.39 383.16 1083.9 372.756C1070.02 362.841 1049.61 363.963 1036.68 375.02C1033.79 376.938 1031.38 380.406 1027.54 380.12C929.539 380.263 831.518 380.038 733.497 380.242C730.987 380.385 728.639 379.875 726.455 378.692C818.311 377.019 910.31 379.161 1002.17 377.631C1002.17 331.425 1002.13 285.24 1002.17 239.034ZM1030.03 255.741C1029.95 275.182 1029.72 294.664 1030.15 314.126C1052.38 314.167 1074.63 314.044 1096.86 314.208C1084.25 293.746 1068.73 274.632 1054.01 255.537C1046.03 255.17 1037.99 254.986 1030.03 255.741Z" fill="#768894"/>
<path d="M628.169 379.405C629.006 379.017 630.659 378.242 631.476 377.834C643.233 378.364 655.011 377.977 666.789 378.181C654.991 382.546 640.804 379.588 628.169 379.405Z" fill="#BBBDBF"/>
<path d="M639.416 396.072C644.866 395.97 650.337 395.746 655.807 396.236C655.481 404.62 655.256 413.168 658.053 421.246C654.807 421.185 651.541 421.328 648.316 420.94C645.091 412.76 642.396 404.355 639.416 396.072Z" fill="#BBBDBF"/>
<path d="M734.497 396.623C739.784 395.378 745.397 395.582 750.623 397.133C747.704 405.109 745.846 413.82 741.662 421.164C738.681 421.266 735.722 421.245 732.762 421.082C735.252 413.126 735.211 404.823 734.497 396.623Z" fill="#BBBDBF"/>
<path d="M1006.33 397.214C1011.49 395.398 1017.05 395.684 1022.44 396.337C1021.8 404.639 1021.66 413.044 1024.21 421.082C1021.23 421.204 1018.25 421.245 1015.29 421.184C1011.11 413.84 1009.29 405.17 1006.33 397.214Z" fill="#BBBDBF"/>
<path d="M1101.31 396.236C1106.68 395.726 1112.07 395.93 1117.46 396.032C1114.8 404.416 1111.62 412.617 1108.76 420.92C1105.56 421.43 1102.31 421.246 1099.13 421.144C1101.72 413.086 1101.92 404.62 1101.31 396.236Z" fill="#BBBDBF"/>
<path d="M416.042 264.962C421.247 264.758 426.452 264.922 431.657 264.901C432.596 264.901 434.495 264.901 435.434 264.901C454.887 263.942 474.319 265.105 493.793 265.003C494.446 278.977 493.507 292.972 494.201 306.925C528.964 306.742 563.747 307.333 598.529 307.088L598.734 308.618C580.505 307.823 562.114 307.354 543.926 308.68C542.477 320.512 544.253 332.466 543.089 344.318C534.046 345.073 524.84 345.053 515.798 344.318C514.593 332.486 516.369 320.532 514.961 308.7C508.347 307.496 501.488 307.496 494.875 308.72C493.65 318.777 495.263 329.018 493.242 339.014C484.138 339.116 475.034 338.994 465.93 339.076C458.602 338.974 451.274 339.157 443.946 339.382C434.556 339.361 425.166 339.463 415.756 339.198V337.464L415.797 335.2C416.164 311.78 415.633 288.361 416.042 264.962ZM447.661 265.595C446.987 272.245 446.211 279.242 448.151 285.75C452.662 286.24 457.234 286.219 461.766 285.77C463.623 279.242 462.929 272.266 462.256 265.636C457.438 264.799 452.458 264.779 447.661 265.595Z" fill="#768894"/>
<path d="M447.661 265.594C452.457 264.778 457.438 264.798 462.255 265.634C462.929 272.264 463.623 279.241 461.766 285.769C457.234 286.218 452.662 286.238 448.15 285.749C446.211 279.241 446.987 272.244 447.661 265.594Z" fill="#31EB0A"/>
<path d="M402.304 339.32C406.775 338.993 411.265 339.136 415.756 339.197C425.166 339.462 434.556 339.36 443.946 339.381C444.211 348.642 443.578 357.945 444.476 367.186C451.417 368.084 458.479 368.063 465.44 367.186C466.318 357.843 465.665 348.438 465.93 339.075C475.034 338.993 484.138 339.116 493.242 339.014C497.773 339.116 502.325 339.136 506.837 339.83C510.633 372.674 506.755 406.293 508.755 439.423C473.278 439.729 437.781 439.382 402.304 439.28C402.018 405.967 402.018 372.633 402.304 339.32Z" fill="#93A3AD"/>
<path d="M494.875 308.719C501.489 307.495 508.347 307.495 514.961 308.699C516.37 320.531 514.594 332.485 515.798 344.317C524.841 345.052 534.047 345.072 543.089 344.317C544.253 332.465 542.477 320.511 543.926 308.679C562.114 307.353 580.506 307.822 598.734 308.617C599.06 352.131 599.04 395.705 598.754 439.218C568.768 439.667 538.742 439.259 508.756 439.422C506.755 406.293 510.634 372.673 506.837 339.829C502.326 339.136 497.774 339.115 493.242 339.013C495.263 329.017 493.65 318.777 494.875 308.719Z" fill="#627480"/>
<path d="M443.945 339.38C451.273 339.155 458.601 338.972 465.93 339.074C465.664 348.437 466.317 357.842 465.44 367.185C458.479 368.062 451.416 368.083 444.476 367.185C443.578 357.944 444.211 348.641 443.945 339.38Z" fill="#31EB0A"/>
<path d="M1056.85 381.181C1068.77 378.019 1082.18 385.342 1085.94 397.093C1090.41 409.17 1083.37 423.776 1071.24 427.978C1058.85 432.895 1043.42 425.755 1039.44 413.005C1034.46 399.928 1043.13 384.016 1056.85 381.181ZM1060.91 397.236C1050.95 398.908 1054.28 415.228 1064.14 412.78C1074.43 411.414 1070.96 394.522 1060.91 397.236Z" fill="#F9FCFF"/>
<path d="M687.222 412.954C701.062 407.671 717.882 417.789 719.515 432.539C721.903 446.268 710.411 460.16 696.489 460.364C684.487 461.241 672.892 451.939 671.157 440.046C668.994 428.683 676.22 416.545 687.222 412.954ZM691.345 429.111C682.67 433.64 689.855 447.839 698.694 443.187C708.39 438.985 700.531 423.46 691.345 429.111Z" fill="#F9FCFF"/>
<defs>
<linearGradient id="paint0_linear_651_6801" x1="564.25" y1="2.5" x2="564.25" y2="452.5" gradientUnits="userSpaceOnUse">
<stop stop-color="white"/>
<stop offset="1" stop-color="white" stop-opacity="0"/>
</linearGradient>
</defs>
</svg>
