<svg width="1126" height="2436" viewBox="0 0 1126 2436" fill="none" xmlns="http://www.w3.org/2000/svg">
<g clip-path="url(#clip0_259_11914)">
<rect width="1125" height="2436" transform="translate(0.5)" fill="#F9FCFF"/>
<path d="M84.943 2547.25C84.943 2547.24 84.943 2547.23 84.943 2547.22C84.943 2547.21 84.943 2547.21 84.943 2547.2L78.993 2211.3L77.583 2131.93C77.583 2131.78 77.573 2131.63 77.573 2131.48C77.563 2131.33 77.563 2131.18 77.553 2131.03C77.553 2130.96 77.543 2130.9 77.543 2130.83C77.543 2130.81 77.543 2130.79 77.543 2130.77C77.543 2130.73 77.543 2130.69 77.533 2130.66C77.523 2130.54 77.513 2130.41 77.513 2130.29C77.503 2130.16 77.493 2130.04 77.483 2129.91C77.473 2129.85 77.473 2129.79 77.463 2129.74C77.463 2129.72 77.463 2129.7 77.453 2129.67C77.453 2129.62 77.443 2129.57 77.443 2129.52C77.433 2129.39 77.413 2129.26 77.403 2129.12C77.383 2128.98 77.373 2128.84 77.353 2128.7C77.353 2128.68 77.353 2128.67 77.343 2128.65C77.343 2128.63 77.333 2128.61 77.333 2128.59C77.323 2128.49 77.303 2128.38 77.293 2128.28C77.273 2128.14 77.253 2127.99 77.223 2127.85C77.213 2127.78 77.203 2127.72 77.193 2127.65C77.183 2127.62 77.183 2127.59 77.173 2127.56C77.163 2127.52 77.153 2127.47 77.153 2127.42C77.123 2127.28 77.103 2127.14 77.073 2127C77.053 2126.88 77.023 2126.77 77.003 2126.65C77.003 2126.64 76.993 2126.62 76.993 2126.61C76.993 2126.6 76.993 2126.59 76.983 2126.58C76.953 2126.44 76.923 2126.3 76.883 2126.17C76.853 2126.03 76.813 2125.89 76.773 2125.75C76.773 2125.74 76.763 2125.73 76.763 2125.72C76.763 2125.71 76.753 2125.69 76.753 2125.68C76.723 2125.56 76.693 2125.45 76.653 2125.34C76.613 2125.19 76.563 2125.05 76.523 2124.91C76.523 2124.9 76.513 2124.89 76.513 2124.87C76.503 2124.85 76.503 2124.83 76.493 2124.81C76.4529 2124.7 76.423 2124.59 76.383 2124.48C76.333 2124.35 76.283 2124.21 76.233 2124.09C76.233 2124.08 76.223 2124.07 76.223 2124.06C76.223 2124.06 76.223 2124.05 76.213 2124.05C76.153 2123.89 76.083 2123.73 76.023 2123.58C76.003 2123.53 75.973 2123.48 75.953 2123.43C75.923 2123.37 75.903 2123.31 75.873 2123.25C75.843 2123.19 75.823 2123.14 75.793 2123.08C75.753 2123 75.703 2122.92 75.663 2122.84C75.623 2122.77 75.593 2122.7 75.553 2122.64C75.543 2122.62 75.523 2122.59 75.513 2122.56C75.473 2122.5 75.433 2122.45 75.403 2122.39C75.333 2122.27 75.253 2122.16 75.183 2122.05C75.163 2122.02 75.143 2121.99 75.133 2121.97C75.103 2121.93 75.063 2121.9 75.033 2121.85C74.943 2121.74 74.863 2121.64 74.773 2121.55C74.723 2121.49 74.663 2121.44 74.613 2121.39C74.523 2121.31 74.433 2121.23 74.343 2121.17C74.293 2121.13 74.233 2121.09 74.173 2121.05C74.073 2120.99 73.973 2120.94 73.873 2120.9C73.823 2120.88 73.773 2120.85 73.723 2120.84C73.573 2120.79 73.413 2120.76 73.263 2120.76L53.793 2121.19C53.953 2121.19 54.103 2121.23 54.253 2121.27C54.303 2121.29 54.353 2121.31 54.403 2121.33C54.503 2121.37 54.603 2121.42 54.703 2121.48C54.763 2121.51 54.813 2121.56 54.873 2121.6C54.963 2121.67 55.053 2121.74 55.143 2121.82C55.203 2121.87 55.253 2121.93 55.303 2121.98C55.393 2122.07 55.473 2122.17 55.563 2122.28C55.613 2122.35 55.663 2122.41 55.713 2122.48C55.793 2122.59 55.863 2122.7 55.933 2122.82C55.983 2122.9 56.033 2122.98 56.083 2123.07C56.123 2123.14 56.153 2123.21 56.193 2123.28C56.263 2123.41 56.333 2123.55 56.403 2123.69C56.433 2123.75 56.453 2123.81 56.483 2123.87C56.573 2124.07 56.663 2124.28 56.743 2124.49C56.743 2124.5 56.753 2124.51 56.753 2124.52C56.843 2124.75 56.923 2124.99 57.013 2125.24C57.023 2125.26 57.023 2125.28 57.033 2125.3C57.113 2125.56 57.193 2125.83 57.273 2126.11C57.273 2126.12 57.283 2126.14 57.283 2126.15C57.363 2126.44 57.433 2126.74 57.503 2127.04C57.503 2127.05 57.513 2127.07 57.513 2127.08C57.573 2127.37 57.633 2127.67 57.693 2127.98C57.703 2128.01 57.703 2128.04 57.713 2128.07C57.763 2128.38 57.813 2128.69 57.853 2129.01C57.853 2129.03 57.853 2129.04 57.863 2129.06C57.903 2129.39 57.943 2129.73 57.973 2130.07C57.973 2130.09 57.973 2130.12 57.983 2130.14C58.013 2130.48 58.043 2130.83 58.063 2131.18C58.063 2131.2 58.063 2131.22 58.063 2131.24C58.083 2131.6 58.093 2131.97 58.103 2132.34L59.513 2211.71L65.463 2547.61C65.463 2547.63 65.463 2547.64 65.463 2547.66C65.473 2548.23 65.463 2548.79 65.443 2549.34C65.443 2549.43 65.433 2549.52 65.433 2549.61C65.433 2549.67 65.423 2549.72 65.423 2549.78C65.403 2550.07 65.383 2550.36 65.363 2550.64C65.363 2550.67 65.353 2550.69 65.353 2550.72C65.323 2551.02 65.293 2551.31 65.253 2551.6C65.253 2551.62 65.253 2551.63 65.243 2551.65C65.203 2551.92 65.173 2552.19 65.123 2552.45C65.113 2552.49 65.113 2552.53 65.103 2552.56C65.063 2552.82 65.013 2553.07 64.963 2553.31C64.953 2553.36 64.943 2553.4 64.933 2553.45C64.883 2553.69 64.823 2553.93 64.763 2554.15C64.753 2554.18 64.743 2554.22 64.733 2554.25C64.673 2554.49 64.603 2554.72 64.533 2554.94C64.533 2554.95 64.523 2554.96 64.523 2554.97C64.453 2555.19 64.383 2555.4 64.303 2555.6C64.293 2555.62 64.293 2555.64 64.283 2555.66C64.203 2555.86 64.133 2556.04 64.053 2556.22C64.043 2556.25 64.023 2556.29 64.013 2556.32C63.933 2556.49 63.853 2556.66 63.763 2556.81C63.743 2556.84 63.733 2556.87 63.713 2556.9C63.633 2557.04 63.553 2557.17 63.463 2557.3C63.453 2557.32 63.443 2557.34 63.423 2557.36C63.333 2557.49 63.233 2557.61 63.133 2557.73C63.103 2557.76 63.073 2557.79 63.043 2557.83C62.973 2557.91 62.893 2557.98 62.823 2558.04C62.783 2558.08 62.743 2558.11 62.703 2558.14C62.643 2558.19 62.573 2558.23 62.513 2558.27C62.453 2558.31 62.393 2558.35 62.333 2558.38C62.233 2558.43 62.133 2558.48 62.023 2558.51C61.883 2558.55 61.743 2558.58 61.593 2558.58L81.063 2558.15C81.133 2558.15 81.203 2558.14 81.263 2558.13C81.343 2558.12 81.413 2558.1 81.493 2558.08C81.573 2558.06 81.653 2558.02 81.733 2557.99C81.753 2557.98 81.773 2557.96 81.803 2557.95C81.863 2557.92 81.923 2557.88 81.983 2557.84C82.023 2557.82 82.063 2557.8 82.103 2557.77C82.133 2557.75 82.153 2557.73 82.183 2557.7C82.223 2557.67 82.263 2557.63 82.303 2557.6C82.333 2557.57 82.363 2557.55 82.403 2557.52C82.443 2557.48 82.483 2557.43 82.523 2557.39C82.553 2557.36 82.583 2557.33 82.613 2557.29C82.623 2557.27 82.643 2557.26 82.653 2557.24C82.733 2557.15 82.803 2557.05 82.883 2556.95C82.893 2556.94 82.893 2556.93 82.903 2556.92C82.913 2556.9 82.933 2556.88 82.943 2556.86C82.993 2556.79 83.043 2556.71 83.093 2556.64C83.123 2556.59 83.163 2556.53 83.193 2556.47C83.213 2556.44 83.2229 2556.41 83.243 2556.38C83.253 2556.36 83.263 2556.34 83.283 2556.32C83.343 2556.21 83.403 2556.1 83.453 2555.98C83.463 2555.95 83.483 2555.92 83.493 2555.89C83.503 2555.86 83.523 2555.83 83.533 2555.79C83.563 2555.73 83.583 2555.68 83.613 2555.62C83.663 2555.5 83.713 2555.38 83.763 2555.26C83.763 2555.25 83.773 2555.24 83.773 2555.23C83.783 2555.21 83.783 2555.19 83.793 2555.17C83.833 2555.08 83.863 2554.98 83.903 2554.88C83.943 2554.77 83.983 2554.65 84.013 2554.54C84.013 2554.53 84.023 2554.52 84.023 2554.51C84.023 2554.5 84.023 2554.5 84.033 2554.49C84.073 2554.36 84.113 2554.22 84.153 2554.08C84.173 2554 84.203 2553.91 84.223 2553.82C84.233 2553.79 84.243 2553.75 84.253 2553.72C84.263 2553.69 84.263 2553.67 84.273 2553.65C84.313 2553.5 84.343 2553.35 84.383 2553.2C84.393 2553.14 84.403 2553.08 84.423 2553.03C84.433 2552.98 84.443 2552.93 84.453 2552.89C84.463 2552.83 84.473 2552.78 84.483 2552.73C84.513 2552.56 84.543 2552.39 84.573 2552.22C84.573 2552.2 84.583 2552.17 84.583 2552.15C84.593 2552.11 84.593 2552.07 84.603 2552.03C84.623 2551.92 84.643 2551.81 84.653 2551.7C84.673 2551.55 84.693 2551.39 84.713 2551.24C84.713 2551.22 84.713 2551.21 84.723 2551.19C84.723 2551.18 84.723 2551.18 84.723 2551.17C84.743 2551 84.763 2550.84 84.783 2550.67C84.793 2550.55 84.803 2550.43 84.813 2550.31C84.813 2550.28 84.823 2550.26 84.823 2550.23C84.823 2550.21 84.823 2550.19 84.833 2550.17C84.843 2550.01 84.863 2549.84 84.873 2549.67C84.883 2549.57 84.883 2549.47 84.893 2549.37C84.893 2549.31 84.903 2549.25 84.903 2549.19C84.903 2549.15 84.913 2549.1 84.913 2549.06C84.913 2549.02 84.913 2548.97 84.913 2548.92C84.943 2548.37 84.953 2547.82 84.943 2547.25Z" fill="#31EB0A"/>
<path d="M73.2723 2120.75L53.8023 2121.18L-18.3877 2119.24L1.08231 2118.81L73.2723 2120.75Z" fill="#31EB0A"/>
<path d="M1.08223 2118.81L-18.3878 2119.24C-18.4178 2119.24 -18.4478 2119.24 -18.4678 2119.24L1.00223 2118.81C1.02223 2118.81 1.05223 2118.81 1.08223 2118.81Z" fill="#858585"/>
<path d="M76.7624 2111.15C79.2024 2111.22 81.2724 2116.58 81.3924 2123.13L89.0624 2556.2C89.1724 2562.26 87.5724 2567.2 85.4024 2567.86C85.2224 2567.91 85.0424 2567.94 84.8524 2567.93L5.26238 2565.78C2.82238 2565.71 0.742375 2560.35 0.632375 2553.8L-7.03762 2120.73C-7.14762 2114.67 -5.54762 2109.73 -3.37762 2109.07C-3.19762 2109.02 -3.01763 2108.99 -2.82763 2109L76.7624 2111.15ZM77.5924 2131.92C77.4824 2125.81 75.5524 2120.81 73.2724 2120.75L1.08237 2118.81C0.912372 2118.8 0.732377 2118.83 0.572377 2118.88C-1.44762 2119.5 -2.94762 2124.11 -2.84762 2129.76L-1.43763 2209.13L4.51238 2545.02C4.62238 2551.13 6.55237 2556.13 8.83237 2556.2L81.0224 2558.14C81.1924 2558.14 81.3624 2558.12 81.5324 2558.07C83.5624 2557.45 85.0524 2552.83 84.9524 2547.19L79.0024 2211.29L77.5924 2131.92Z" fill="#D6FFCD"/>
<path d="M-15.1773 2565.9C-15.0673 2565.97 -14.9573 2566.02 -14.8573 2566.06C-14.8073 2566.08 -14.7573 2566.11 -14.6973 2566.13C-14.5373 2566.18 -14.3673 2566.22 -14.2073 2566.22L5.26267 2565.79C5.09267 2565.79 4.93266 2565.75 4.77267 2565.7C4.72267 2565.68 4.66266 2565.65 4.61266 2565.63C4.50266 2565.58 4.39267 2565.53 4.29267 2565.47C4.23267 2565.43 4.17266 2565.39 4.11266 2565.34C4.01266 2565.27 3.92267 2565.19 3.82267 2565.1C3.76267 2565.04 3.70266 2564.99 3.64266 2564.92C3.55266 2564.82 3.45266 2564.71 3.36266 2564.6C3.30266 2564.53 3.25266 2564.46 3.19266 2564.39C3.11266 2564.28 3.03267 2564.15 2.95267 2564.02C2.89267 2563.93 2.84266 2563.85 2.78266 2563.75C2.74266 2563.68 2.70267 2563.6 2.66266 2563.53C2.58266 2563.39 2.51266 2563.24 2.44266 2563.09C2.41266 2563.03 2.38267 2562.97 2.35267 2562.9C2.25267 2562.68 2.16267 2562.46 2.07267 2562.23C2.07267 2562.22 2.06266 2562.2 2.06266 2562.19C1.96266 2561.94 1.87267 2561.68 1.79267 2561.41C1.78267 2561.39 1.78267 2561.37 1.77267 2561.35C1.68266 2561.07 1.59267 2560.78 1.51267 2560.48C1.51267 2560.47 1.50266 2560.45 1.50266 2560.44C1.42266 2560.13 1.34266 2559.81 1.27267 2559.48C1.27267 2559.47 1.26267 2559.45 1.26267 2559.44C1.19267 2559.12 1.13267 2558.8 1.07267 2558.47C1.06267 2558.44 1.06266 2558.41 1.05266 2558.38C0.992664 2558.05 0.942671 2557.71 0.90267 2557.37C0.90267 2557.35 0.89266 2557.33 0.89266 2557.31C0.842661 2556.96 0.802666 2556.59 0.772665 2556.23C0.772665 2556.21 0.772671 2556.18 0.762671 2556.16C0.73267 2555.8 0.702669 2555.42 0.682669 2555.05C0.682669 2555.03 0.682669 2555.01 0.682669 2554.99C0.662668 2554.6 0.64266 2554.21 0.64266 2553.81L-7.02734 2120.74C-7.02734 2120.73 -7.02734 2120.71 -7.02734 2120.7C-7.03734 2120.08 -7.02734 2119.48 -6.99734 2118.89C-6.99734 2118.8 -6.98733 2118.7 -6.98733 2118.6C-6.98733 2118.54 -6.97733 2118.48 -6.97733 2118.41C-6.95733 2118.1 -6.93733 2117.79 -6.90733 2117.49C-6.90733 2117.46 -6.89733 2117.44 -6.89733 2117.41C-6.86733 2117.09 -6.83733 2116.77 -6.79733 2116.46C-6.79733 2116.45 -6.79733 2116.44 -6.79733 2116.43C-6.75733 2116.14 -6.71734 2115.85 -6.66734 2115.57C-6.65734 2115.53 -6.65733 2115.49 -6.64733 2115.44C-6.59733 2115.16 -6.54734 2114.9 -6.49734 2114.63C-6.48734 2114.58 -6.47734 2114.53 -6.46734 2114.48C-6.40734 2114.22 -6.34733 2113.97 -6.28733 2113.72C-6.27733 2113.69 -6.26733 2113.65 -6.25733 2113.62C-6.18733 2113.37 -6.11733 2113.12 -6.04733 2112.88C-6.04733 2112.87 -6.03733 2112.86 -6.03733 2112.85C-5.95733 2112.61 -5.88733 2112.39 -5.79733 2112.17C-5.78733 2112.15 -5.77734 2112.13 -5.77734 2112.11C-5.69734 2111.9 -5.61734 2111.7 -5.52734 2111.51C-5.50734 2111.48 -5.49734 2111.44 -5.47733 2111.41C-5.38733 2111.22 -5.29733 2111.05 -5.20733 2110.88C-5.18733 2110.85 -5.16733 2110.82 -5.15733 2110.79C-5.06733 2110.64 -4.98733 2110.5 -4.89733 2110.37C-4.88733 2110.35 -4.86734 2110.32 -4.85734 2110.3C-4.75734 2110.16 -4.65733 2110.03 -4.54733 2109.91C-4.51733 2109.87 -4.48733 2109.84 -4.45733 2109.81C-4.37733 2109.73 -4.29734 2109.65 -4.21734 2109.58C-4.17734 2109.54 -4.12734 2109.5 -4.08734 2109.47C-4.01734 2109.42 -3.94733 2109.37 -3.87733 2109.33C-3.81733 2109.29 -3.75734 2109.25 -3.68734 2109.22C-3.57734 2109.16 -3.46734 2109.11 -3.35734 2109.08C-3.20734 2109.03 -3.04733 2109.01 -2.89733 2109L-22.3673 2109.43C-22.4373 2109.43 -22.5173 2109.44 -22.5873 2109.45C-22.6673 2109.46 -22.7473 2109.48 -22.8273 2109.51C-22.9173 2109.54 -22.9973 2109.57 -23.0873 2109.61C-23.1073 2109.62 -23.1373 2109.64 -23.1573 2109.65C-23.2173 2109.68 -23.2873 2109.72 -23.3473 2109.76C-23.3873 2109.79 -23.4273 2109.8 -23.4673 2109.83C-23.4973 2109.85 -23.5173 2109.88 -23.5473 2109.9C-23.5873 2109.94 -23.6373 2109.97 -23.6773 2110.01C-23.7073 2110.04 -23.7473 2110.06 -23.7773 2110.1C-23.8173 2110.14 -23.8673 2110.2 -23.9073 2110.24C-23.9373 2110.27 -23.9673 2110.31 -24.0073 2110.34C-24.0273 2110.36 -24.0373 2110.37 -24.0573 2110.39C-24.1373 2110.49 -24.2173 2110.59 -24.2973 2110.7C-24.3073 2110.71 -24.3073 2110.72 -24.3173 2110.73C-24.3273 2110.75 -24.3473 2110.77 -24.3573 2110.79C-24.4073 2110.87 -24.4673 2110.94 -24.5173 2111.03C-24.5573 2111.09 -24.5873 2111.15 -24.6273 2111.21C-24.6473 2111.24 -24.6673 2111.27 -24.6873 2111.31C-24.6973 2111.33 -24.7173 2111.35 -24.7273 2111.38C-24.7873 2111.5 -24.8473 2111.62 -24.9073 2111.74C-24.9173 2111.77 -24.9373 2111.8 -24.9473 2111.84C-24.9673 2111.87 -24.9773 2111.91 -24.9973 2111.94C-25.0273 2112 -25.0473 2112.05 -25.0773 2112.11C-25.1273 2112.24 -25.1873 2112.36 -25.2373 2112.5C-25.2373 2112.51 -25.2473 2112.52 -25.2473 2112.54C-25.2573 2112.56 -25.2673 2112.58 -25.2673 2112.6C-25.3073 2112.7 -25.3473 2112.8 -25.3773 2112.9C-25.4173 2113.02 -25.4573 2113.15 -25.4973 2113.27C-25.4973 2113.28 -25.5073 2113.29 -25.5073 2113.3V2113.31C-25.5573 2113.45 -25.5973 2113.6 -25.6373 2113.75C-25.6673 2113.84 -25.6873 2113.94 -25.7173 2114.03C-25.7273 2114.06 -25.7373 2114.1 -25.7473 2114.13C-25.7573 2114.16 -25.7573 2114.18 -25.7673 2114.21C-25.8073 2114.37 -25.8473 2114.53 -25.8873 2114.7C-25.8973 2114.76 -25.9173 2114.83 -25.9273 2114.89C-25.9373 2114.94 -25.9473 2114.99 -25.9573 2115.04C-25.9673 2115.1 -25.9873 2115.16 -25.9973 2115.21C-26.0373 2115.39 -26.0673 2115.57 -26.0973 2115.76C-26.0973 2115.79 -26.1073 2115.82 -26.1073 2115.85C-26.1173 2115.89 -26.1173 2115.93 -26.1273 2115.98C-26.1473 2116.1 -26.1673 2116.21 -26.1873 2116.33C-26.2073 2116.5 -26.2373 2116.66 -26.2573 2116.83C-26.2573 2116.85 -26.2573 2116.86 -26.2673 2116.88C-26.2673 2116.89 -26.2673 2116.89 -26.2673 2116.9C-26.2873 2117.08 -26.3073 2117.26 -26.3273 2117.44C-26.3373 2117.57 -26.3573 2117.7 -26.3673 2117.83C-26.3673 2117.86 -26.3773 2117.89 -26.3773 2117.91C-26.3773 2117.93 -26.3773 2117.95 -26.3873 2117.97C-26.4073 2118.15 -26.4173 2118.32 -26.4273 2118.5C-26.4373 2118.61 -26.4373 2118.72 -26.4473 2118.83C-26.4473 2118.89 -26.4573 2118.95 -26.4573 2119.01C-26.4573 2119.06 -26.4673 2119.11 -26.4673 2119.15C-26.4673 2119.2 -26.4673 2119.25 -26.4673 2119.3C-26.4873 2119.89 -26.5073 2120.49 -26.4973 2121.11C-26.4973 2121.12 -26.4973 2121.13 -26.4973 2121.13C-26.4973 2121.14 -26.4973 2121.14 -26.4973 2121.15L-18.8273 2554.22C-18.8273 2554.38 -18.8173 2554.54 -18.8173 2554.7C-18.8073 2554.86 -18.8073 2555.02 -18.7973 2555.19C-18.7973 2555.26 -18.7873 2555.33 -18.7873 2555.4C-18.7873 2555.42 -18.7873 2555.44 -18.7873 2555.46C-18.7873 2555.5 -18.7873 2555.55 -18.7773 2555.59C-18.7673 2555.72 -18.7573 2555.85 -18.7473 2555.99C-18.7373 2556.13 -18.7273 2556.26 -18.7173 2556.4C-18.7073 2556.46 -18.7073 2556.52 -18.6973 2556.58C-18.6973 2556.61 -18.6973 2556.63 -18.6873 2556.66C-18.6873 2556.71 -18.6773 2556.77 -18.6773 2556.82C-18.6673 2556.96 -18.6473 2557.1 -18.6273 2557.24C-18.6073 2557.39 -18.5873 2557.54 -18.5773 2557.69C-18.5773 2557.71 -18.5773 2557.72 -18.5673 2557.74C-18.5673 2557.76 -18.5573 2557.78 -18.5573 2557.8C-18.5373 2557.91 -18.5273 2558.03 -18.5073 2558.14C-18.4873 2558.29 -18.4573 2558.45 -18.4373 2558.6C-18.4273 2558.67 -18.4173 2558.74 -18.3973 2558.81C-18.3873 2558.84 -18.3873 2558.87 -18.3773 2558.91C-18.3673 2558.96 -18.3573 2559.01 -18.3473 2559.06C-18.3173 2559.21 -18.2873 2559.36 -18.2573 2559.51C-18.2273 2559.63 -18.2073 2559.76 -18.1773 2559.88C-18.1773 2559.89 -18.1673 2559.91 -18.1673 2559.92C-18.1673 2559.93 -18.1573 2559.94 -18.1573 2559.96C-18.1273 2560.11 -18.0873 2560.26 -18.0573 2560.4C-18.0173 2560.55 -17.9873 2560.7 -17.9473 2560.85C-17.9473 2560.86 -17.9373 2560.87 -17.9373 2560.88C-17.9373 2560.89 -17.9273 2560.91 -17.9273 2560.92C-17.8973 2561.05 -17.8573 2561.17 -17.8273 2561.3C-17.7773 2561.46 -17.7373 2561.61 -17.6873 2561.76C-17.6873 2561.77 -17.6773 2561.79 -17.6773 2561.8C-17.6673 2561.82 -17.6673 2561.84 -17.6573 2561.86C-17.6173 2561.98 -17.5773 2562.11 -17.5373 2562.22C-17.4873 2562.36 -17.4373 2562.5 -17.3873 2562.63C-17.3873 2562.64 -17.3773 2562.66 -17.3773 2562.67C-17.3773 2562.68 -17.3773 2562.68 -17.3673 2562.69C-17.2973 2562.86 -17.2273 2563.03 -17.1573 2563.19C-17.1373 2563.24 -17.1073 2563.29 -17.0873 2563.34C-17.0573 2563.4 -17.0273 2563.46 -16.9973 2563.53C-16.9673 2563.59 -16.9373 2563.66 -16.9073 2563.71C-16.8673 2563.8 -16.8173 2563.88 -16.7673 2563.97C-16.7273 2564.04 -16.6873 2564.12 -16.6473 2564.19C-16.6273 2564.22 -16.6173 2564.25 -16.5973 2564.28C-16.5573 2564.35 -16.5173 2564.4 -16.4773 2564.46C-16.3973 2564.59 -16.3173 2564.71 -16.2373 2564.82C-16.2173 2564.85 -16.1973 2564.88 -16.1773 2564.91C-16.1473 2564.96 -16.1073 2564.99 -16.0673 2565.03C-15.9773 2565.14 -15.8873 2565.25 -15.7873 2565.35C-15.7273 2565.41 -15.6673 2565.47 -15.6073 2565.53C-15.5073 2565.62 -15.4173 2565.7 -15.3173 2565.77C-15.2973 2565.82 -15.2373 2565.86 -15.1773 2565.9Z" fill="url(#paint0_linear_259_11914)"/>
<path fill-rule="evenodd" clip-rule="evenodd" d="M16.5729 2159.53C27.0029 2159.53 35.4729 2168 35.4729 2178.43C35.4729 2188.86 27.0029 2197.33 16.5729 2197.33C6.14286 2197.33 -2.32715 2188.86 -2.32715 2178.43C-2.32715 2168 6.14286 2159.53 16.5729 2159.53Z" fill="#2D2D2D"/>
<path d="M11.923 2188.04C11.803 2188.04 11.673 2188.03 11.553 2188.01C10.723 2187.89 10.003 2187.39 9.60297 2186.65L4.61297 2177.36C3.92297 2176.08 4.40297 2174.48 5.69297 2173.79C6.97297 2173.1 8.57297 2173.58 9.26297 2174.86L12.563 2181L24.273 2169.09C25.293 2168.05 26.963 2168.04 28.003 2169.06C29.043 2170.08 29.053 2171.75 28.033 2172.79L13.813 2187.25C13.303 2187.76 12.623 2188.04 11.923 2188.04Z" fill="white"/>
<path d="M305.704 2234H2.00293V2385.5H305.704V2234Z" fill="#768894"/>
<path d="M7.95142 2234H5.79004V2385.5H7.95142V2234Z" fill="#93A3AD"/>
<path d="M14.0785 2234H11.917V2385.5H14.0785V2234Z" fill="#93A3AD"/>
<path d="M20.2054 2234H18.0439V2385.5H20.2054V2234Z" fill="#93A3AD"/>
<path d="M26.3313 2234H24.1699V2385.5H26.3313V2234Z" fill="#93A3AD"/>
<path d="M32.4584 2234H30.2969V2385.5H32.4584V2234Z" fill="#93A3AD"/>
<path d="M38.5853 2234H36.4238V2385.5H38.5853V2234Z" fill="#93A3AD"/>
<path d="M44.7123 2234H42.5508V2385.5H44.7123V2234Z" fill="#93A3AD"/>
<path d="M50.8392 2234H48.6777V2385.5H50.8392V2234Z" fill="#93A3AD"/>
<path d="M56.9662 2234H54.8047V2385.5H56.9662V2234Z" fill="#93A3AD"/>
<path d="M63.0931 2234H60.9316V2385.5H63.0931V2234Z" fill="#93A3AD"/>
<path d="M69.22 2234H67.0586V2385.5H69.22V2234Z" fill="#93A3AD"/>
<path d="M75.3461 2234H73.1846V2385.5H75.3461V2234Z" fill="#93A3AD"/>
<path d="M81.473 2234H79.3115V2385.5H81.473V2234Z" fill="#93A3AD"/>
<path d="M87.5999 2234H85.4385V2385.5H87.5999V2234Z" fill="#93A3AD"/>
<path d="M93.7269 2234H91.5654V2385.5H93.7269V2234Z" fill="#93A3AD"/>
<path d="M99.8539 2234H97.6924V2385.5H99.8539V2234Z" fill="#93A3AD"/>
<path d="M105.981 2234H103.819V2385.5H105.981V2234Z" fill="#93A3AD"/>
<path d="M112.108 2234H109.946V2385.5H112.108V2234Z" fill="#93A3AD"/>
<path d="M118.235 2234H116.073V2385.5H118.235V2234Z" fill="#93A3AD"/>
<path d="M124.362 2234H122.2V2385.5H124.362V2234Z" fill="#93A3AD"/>
<path d="M130.488 2234H128.326V2385.5H130.488V2234Z" fill="#93A3AD"/>
<path d="M136.615 2234H134.453V2385.5H136.615V2234Z" fill="#93A3AD"/>
<path d="M142.741 2234H140.58V2385.5H142.741V2234Z" fill="#93A3AD"/>
<path d="M148.869 2234H146.707V2385.5H148.869V2234Z" fill="#93A3AD"/>
<path d="M154.995 2234H152.834V2385.5H154.995V2234Z" fill="#93A3AD"/>
<path d="M161.122 2234H158.961V2385.5H161.122V2234Z" fill="#93A3AD"/>
<path d="M167.249 2234H165.088V2385.5H167.249V2234Z" fill="#93A3AD"/>
<path d="M173.376 2234H171.215V2385.5H173.376V2234Z" fill="#93A3AD"/>
<path d="M179.502 2234H177.341V2385.5H179.502V2234Z" fill="#93A3AD"/>
<path d="M185.629 2234H183.468V2385.5H185.629V2234Z" fill="#93A3AD"/>
<path d="M191.756 2234H189.595V2385.5H191.756V2234Z" fill="#93A3AD"/>
<path d="M197.883 2234H195.722V2385.5H197.883V2234Z" fill="#93A3AD"/>
<path d="M204.01 2234H201.849V2385.5H204.01V2234Z" fill="#93A3AD"/>
<path d="M210.137 2234H207.976V2385.5H210.137V2234Z" fill="#93A3AD"/>
<path d="M216.264 2234H214.103V2385.5H216.264V2234Z" fill="#93A3AD"/>
<path d="M222.391 2234H220.229V2385.5H222.391V2234Z" fill="#93A3AD"/>
<path d="M228.517 2234H226.355V2385.5H228.517V2234Z" fill="#93A3AD"/>
<path d="M234.644 2234H232.482V2385.5H234.644V2234Z" fill="#93A3AD"/>
<path d="M240.771 2234H238.609V2385.5H240.771V2234Z" fill="#93A3AD"/>
<path d="M246.898 2234H244.736V2385.5H246.898V2234Z" fill="#93A3AD"/>
<path d="M253.025 2234H250.863V2385.5H253.025V2234Z" fill="#93A3AD"/>
<path d="M259.152 2234H256.99V2385.5H259.152V2234Z" fill="#93A3AD"/>
<path d="M265.279 2234H263.117V2385.5H265.279V2234Z" fill="#93A3AD"/>
<path d="M271.406 2234H269.244V2385.5H271.406V2234Z" fill="#93A3AD"/>
<path d="M277.532 2234H275.371V2385.5H277.532V2234Z" fill="#93A3AD"/>
<path d="M283.659 2234H281.497V2385.5H283.659V2234Z" fill="#93A3AD"/>
<path d="M289.786 2234H287.624V2385.5H289.786V2234Z" fill="#93A3AD"/>
<path d="M295.912 2234H293.751V2385.5H295.912V2234Z" fill="#93A3AD"/>
<path d="M302.039 2234H299.878V2385.5H302.039V2234Z" fill="#93A3AD"/>
<path d="M305.704 2430.29V2413.12H311.035V2424.97C311.027 2427.91 308.646 2430.29 305.704 2430.29Z" fill="#2D2D2D"/>
<path d="M305.695 2385.53V2410.4H153.735C152.825 2404.87 150.184 2399.93 146.398 2396.15C141.644 2391.39 135.07 2388.44 127.806 2388.44C114.772 2388.44 103.949 2397.94 101.885 2410.4H2.03516V2385.53H305.695Z" fill="#93A3AD"/>
<path d="M305.695 2410.4V2416.56H154.101V2414.75C154.101 2413.27 153.979 2411.81 153.735 2410.4H305.695Z" fill="#2D2D2D"/>
<path d="M369.182 2300.49L305.695 2293.86V2381.03V2413.72H310.904V2413.49C310.904 2399.49 322.256 2388.14 336.248 2388.14C350.249 2388.14 361.593 2399.49 361.593 2413.49V2413.72H399.491V2347.87L369.182 2300.49Z" fill="#768894"/>
<path d="M399.5 2373.45H394.291V2385.53H399.5V2373.45Z" fill="#F4B21A"/>
<path d="M320.622 2327.92V2308.94C320.622 2306.33 322.897 2304.3 325.489 2304.59L360.479 2308.58C362.844 2308.85 364.973 2310.14 366.313 2312.1L391.438 2348.81H362.299L324.62 2333.82C322.215 2332.86 320.622 2330.52 320.622 2327.92Z" fill="url(#paint1_linear_259_11914)"/>
<path d="M336.314 2349.64H319.258V2351.59H336.314V2349.64Z" fill="white"/>
<path d="M361.918 2383.24H305.582V2382.13H360.813V2348.81H361.918V2383.24Z" fill="#93A3AD"/>
<path d="M368.69 2300.17L363.238 2309.37L364.189 2309.93L369.641 2300.73L368.69 2300.17Z" fill="#93A3AD"/>
<path d="M2.02734 2410.4H101.877C101.633 2411.81 101.511 2413.26 101.511 2414.75V2416.56H2.02734V2410.4Z" fill="#2D2D2D"/>
<path d="M142.533 2428.75C150.834 2420.45 150.834 2406.99 142.533 2398.69C134.232 2390.39 120.773 2390.39 112.471 2398.69C104.17 2406.99 104.17 2420.45 112.471 2428.75C120.773 2437.05 134.232 2437.05 142.533 2428.75Z" fill="#2D2D2D"/>
<path d="M127.514 2424.79C133.631 2424.79 138.589 2419.83 138.589 2413.72C138.589 2407.6 133.631 2402.64 127.514 2402.64C121.397 2402.64 116.438 2407.6 116.438 2413.72C116.438 2419.83 121.397 2424.79 127.514 2424.79Z" fill="white"/>
<path d="M131.535 2413.72C131.535 2415.94 129.731 2417.75 127.505 2417.75C125.278 2417.75 123.475 2415.94 123.475 2413.72C123.475 2411.49 125.278 2409.69 127.505 2409.69C129.731 2409.69 131.535 2411.49 131.535 2413.72Z" fill="#E5E5E5"/>
<path d="M357.541 2417.1C359.407 2405.51 351.523 2394.6 339.932 2392.73C328.341 2390.87 317.433 2398.75 315.567 2410.34C313.702 2421.93 321.586 2432.84 333.176 2434.71C344.767 2436.57 355.676 2428.69 357.541 2417.1Z" fill="#2D2D2D"/>
<path d="M336.533 2424.79C342.65 2424.79 347.609 2419.83 347.609 2413.72C347.609 2407.6 342.65 2402.64 336.533 2402.64C330.417 2402.64 325.458 2407.6 325.458 2413.72C325.458 2419.83 330.417 2424.79 336.533 2424.79Z" fill="white"/>
<path d="M336.533 2417.15C338.759 2417.15 340.564 2415.35 340.564 2413.12C340.564 2410.9 338.759 2409.09 336.533 2409.09C334.307 2409.09 332.503 2410.9 332.503 2413.12C332.503 2415.35 334.307 2417.15 336.533 2417.15Z" fill="#E5E5E5"/>
<mask id="path-74-outside-1_259_11914" maskUnits="userSpaceOnUse" x="774.89" y="2040.37" width="272" height="466" fill="black">
<rect fill="white" x="774.89" y="2040.37" width="272" height="466"/>
<path fill-rule="evenodd" clip-rule="evenodd" d="M863.857 2505.05H775.89V2131.33L863.857 2043.37V2505.05ZM1045.75 2159.66H970.021V2505.05H1045.75V2159.66Z"/>
</mask>
<path fill-rule="evenodd" clip-rule="evenodd" d="M863.857 2505.05H775.89V2131.33L863.857 2043.37V2505.05ZM1045.75 2159.66H970.021V2505.05H1045.75V2159.66Z" fill="url(#paint2_linear_259_11914)"/>
<path d="M775.89 2505.05H774.89V2506.05H775.89V2505.05ZM863.857 2505.05V2506.05H864.857V2505.05H863.857ZM775.89 2131.33L775.183 2130.63L774.89 2130.92V2131.33H775.89ZM863.857 2043.37H864.857V2040.95L863.15 2042.66L863.857 2043.37ZM970.021 2159.66V2158.66H969.021V2159.66H970.021ZM1045.75 2159.66H1046.75V2158.66H1045.75V2159.66ZM970.021 2505.05H969.021V2506.05H970.021V2505.05ZM1045.75 2505.05V2506.05H1046.75V2505.05H1045.75ZM775.89 2506.05H863.857V2504.05H775.89V2506.05ZM774.89 2131.33V2505.05H776.89V2131.33H774.89ZM863.15 2042.66L775.183 2130.63L776.597 2132.04L864.564 2044.07L863.15 2042.66ZM864.857 2505.05V2043.37H862.857V2505.05H864.857ZM970.021 2160.66H1045.75V2158.66H970.021V2160.66ZM971.021 2505.05V2159.66H969.021V2505.05H971.021ZM1045.75 2504.05H970.021V2506.05H1045.75V2504.05ZM1044.75 2159.66V2505.05H1046.75V2159.66H1044.75Z" fill="#C1CAD0" mask="url(#path-74-outside-1_259_11914)"/>
<mask id="path-76-inside-2_259_11914" fill="white">
<path fill-rule="evenodd" clip-rule="evenodd" d="M915.513 1940H918.672V1989.2L937.959 1989.2V2010.57H970.021V2505.05H864.164V2010.57H896.215V1989.2L915.513 1989.2V1940ZM1128.29 2505.05H1045.75V2134.31C1091.35 2134.31 1128.29 2171.27 1128.29 2216.86V2505.05ZM676.5 2200.46H775.89V2505.05H676.5V2200.46Z"/>
</mask>
<path fill-rule="evenodd" clip-rule="evenodd" d="M915.513 1940H918.672V1989.2L937.959 1989.2V2010.57H970.021V2505.05H864.164V2010.57H896.215V1989.2L915.513 1989.2V1940ZM1128.29 2505.05H1045.75V2134.31C1091.35 2134.31 1128.29 2171.27 1128.29 2216.86V2505.05ZM676.5 2200.46H775.89V2505.05H676.5V2200.46Z" fill="url(#paint3_linear_259_11914)"/>
<path d="M918.672 1940H919.672V1939H918.672V1940ZM915.513 1940V1939H914.513V1940H915.513ZM918.672 1989.2H917.672V1990.2L918.672 1990.2V1989.2ZM937.959 1989.2H938.959V1988.2L937.959 1988.2V1989.2ZM937.959 2010.57H936.959V2011.57H937.959V2010.57ZM970.021 2010.57H971.021V2009.57H970.021V2010.57ZM970.021 2505.05V2506.05H971.021V2505.05H970.021ZM864.164 2505.05H863.164V2506.05H864.164V2505.05ZM864.164 2010.57V2009.57H863.164V2010.57H864.164ZM896.215 2010.57V2011.57H897.215V2010.57H896.215ZM896.215 1989.2V1988.2L895.215 1988.2V1989.2H896.215ZM915.513 1989.2V1990.2L916.513 1990.2V1989.2H915.513ZM1045.75 2505.05H1044.75V2506.05H1045.75V2505.05ZM1128.29 2505.05V2506.05H1129.29V2505.05H1128.29ZM1045.75 2134.31V2133.31H1044.75V2134.31H1045.75ZM775.89 2200.46H776.89V2199.46H775.89V2200.46ZM676.5 2200.46V2199.46H675.5V2200.46H676.5ZM775.89 2505.05V2506.05H776.89V2505.05H775.89ZM676.5 2505.05H675.5V2506.05H676.5V2505.05ZM918.672 1939H915.513V1941H918.672V1939ZM919.672 1989.2V1940H917.672V1989.2H919.672ZM937.959 1988.2L918.672 1988.2V1990.2L937.959 1990.2V1988.2ZM938.959 2010.57V1989.2H936.959V2010.57H938.959ZM970.021 2009.57H937.959V2011.57H970.021V2009.57ZM971.021 2505.05V2010.57H969.021V2505.05H971.021ZM864.164 2506.05H970.021V2504.05H864.164V2506.05ZM863.164 2010.57V2505.05H865.164V2010.57H863.164ZM896.215 2009.57H864.164V2011.57H896.215V2009.57ZM895.215 1989.2V2010.57H897.215V1989.2H895.215ZM915.513 1988.2L896.215 1988.2V1990.2L915.513 1990.2V1988.2ZM914.513 1940V1989.2H916.513V1940H914.513ZM1045.75 2506.05H1128.29V2504.05H1045.75V2506.05ZM1044.75 2134.31V2505.05H1046.75V2134.31H1044.75ZM1129.29 2216.86C1129.29 2170.72 1091.9 2133.31 1045.75 2133.31V2135.31C1090.79 2135.31 1127.29 2171.83 1127.29 2216.86H1129.29ZM1129.29 2505.05V2216.86H1127.29V2505.05H1129.29ZM775.89 2199.46H676.5V2201.46H775.89V2199.46ZM776.89 2505.05V2200.46H774.89V2505.05H776.89ZM676.5 2506.05H775.89V2504.05H676.5V2506.05ZM675.5 2200.46V2505.05H677.5V2200.46H675.5Z" fill="#C1CAD0" mask="url(#path-76-inside-2_259_11914)"/>
<g opacity="0.2">
<path d="M809.44 2136.8H792.54V2159.66H809.44V2136.8Z" fill="#BBBDBF"/>
<path d="M847.207 2136.8H830.307V2159.66H847.207V2136.8Z" fill="#BBBDBF"/>
<path d="M809.44 2198.9L792.54 2200.46V2177.6L809.44 2176.04V2198.9Z" fill="#BBBDBF"/>
<path d="M847.207 2176.04H830.307V2198.89H847.207V2176.04Z" fill="#BBBDBF"/>
<path d="M809.44 2239.71L792.54 2241.27V2218.41L809.44 2216.85V2239.71Z" fill="#BBBDBF"/>
<path d="M847.207 2216.85H830.307V2239.71H847.207V2216.85Z" fill="#BBBDBF"/>
<path d="M809.44 2257.65H792.54V2280.51H809.44V2257.65Z" fill="#BBBDBF"/>
<path d="M847.207 2282.07H830.307V2257.65L847.207 2259.22V2282.07Z" fill="#BBBDBF"/>
<path d="M898.112 2050.62H881.212V2073.47H898.112V2050.62Z" fill="#BBBDBF"/>
<path d="M948.199 2053.27H931.299V2076.12H948.199V2053.27Z" fill="#BBBDBF"/>
<path d="M898.112 2089.71H881.212V2112.56H898.112V2089.71Z" fill="#BBBDBF"/>
<path d="M946.596 2090.74H929.696V2113.59H946.596V2090.74Z" fill="#BBBDBF"/>
<path d="M898.112 2128.78H881.212V2151.63H898.112V2128.78Z" fill="#BBBDBF"/>
<path d="M946.596 2129.81H929.696V2152.67H946.596V2129.81Z" fill="#BBBDBF"/>
<path d="M898.112 2167.86H881.212V2190.72H898.112V2167.86Z" fill="#BBBDBF"/>
<path d="M946.596 2168.9H929.696V2191.75H946.596V2168.9Z" fill="#BBBDBF"/>
<path d="M898.112 2206.95H881.212V2229.8H898.112V2206.95Z" fill="#BBBDBF"/>
<path d="M946.596 2207.98H929.696V2230.84H946.596V2207.98Z" fill="#BBBDBF"/>
<path d="M898.112 2246.02H881.212V2268.88H898.112V2246.02Z" fill="#BBBDBF"/>
<path d="M946.596 2247.06H929.696V2269.91H946.596V2247.06Z" fill="#BBBDBF"/>
<path d="M1000.1 2208.44H983.204V2231.29H1000.1V2208.44Z" fill="#BBBDBF"/>
<path d="M1031.69 2208.44H1014.79V2231.29H1031.69V2208.44Z" fill="#BBBDBF"/>
<path d="M1000.1 2245.31H983.204V2268.16H1000.1V2245.31Z" fill="#BBBDBF"/>
<path d="M1031.69 2245.31H1014.79V2268.16H1031.69V2245.31Z" fill="#BBBDBF"/>
<path d="M1000.1 2282.16H983.204V2305.02H1000.1V2282.16Z" fill="#BBBDBF"/>
<path d="M1031.69 2282.16H1014.79V2305.02H1031.69V2282.16Z" fill="#BBBDBF"/>
<path d="M1031.69 2319.02H1014.79V2341.88H1031.69V2319.02Z" fill="#BBBDBF"/>
<path d="M1076.59 2233.79H1059.69V2256.65H1076.59V2233.79Z" fill="#BBBDBF"/>
<path d="M1114.36 2233.79H1097.46V2256.65H1114.36V2233.79Z" fill="#BBBDBF"/>
<path d="M1076.59 2274.6H1059.69V2297.45H1076.59V2274.6Z" fill="#BBBDBF"/>
<path d="M1114.36 2274.6H1097.46V2297.45H1114.36V2274.6Z" fill="#BBBDBF"/>
<path d="M1076.59 2315.4H1059.69V2338.25H1076.59V2315.4Z" fill="#BBBDBF"/>
<path d="M1114.36 2315.4H1097.46V2338.25H1114.36V2315.4Z" fill="#BBBDBF"/>
<path d="M1076.59 2356.21H1059.69V2379.07H1076.59V2356.21Z" fill="#BBBDBF"/>
<path d="M1114.36 2356.21H1097.46V2379.07H1114.36V2356.21Z" fill="#BBBDBF"/>
<path d="M712.835 2240.66H695.935V2263.51H712.835V2240.66Z" fill="#BBBDBF"/>
<path d="M750.601 2240.66H733.701V2263.51H750.601V2240.66Z" fill="#BBBDBF"/>
<path d="M712.835 2283.56H695.935V2306.42H712.835V2283.56Z" fill="#BBBDBF"/>
<path d="M750.601 2283.56H733.701V2306.42H750.601V2283.56Z" fill="#BBBDBF"/>
<path d="M712.835 2326.48H695.935V2349.33H712.835V2326.48Z" fill="#BBBDBF"/>
<path d="M750.601 2326.48H733.701V2349.33H750.601V2326.48Z" fill="#BBBDBF"/>
<path d="M712.835 2369.38H695.935V2392.24H712.835V2369.38Z" fill="#BBBDBF"/>
<path d="M750.601 2369.38H733.701V2392.24H750.601V2369.38Z" fill="#BBBDBF"/>
</g>
<path d="M912.978 2289.67H1058.27L985.617 2228.83L912.978 2168L840.339 2228.83L767.685 2289.67H912.978Z" fill="#768894"/>
<path d="M1028.58 2289.67H797.38V2442.05H1028.58V2289.67Z" fill="#627480"/>
<path d="M913.744 2237.82H899.399V2254.14H913.744V2237.82Z" fill="white"/>
<path d="M932.79 2237.82H918.445V2254.14H932.79V2237.82Z" fill="white"/>
<path d="M913.744 2257.9H899.399V2274.23H913.744V2257.9Z" fill="white"/>
<path d="M932.79 2257.9H918.445V2274.23H932.79V2257.9Z" fill="white"/>
<path d="M948.367 2338.71H888.855V2442.05H948.367V2338.71Z" fill="white"/>
<g filter="url(#filter0_d_259_11914)">
<path d="M229.59 342.13C233.9 342.13 237.93 343.31 241.41 345.33C244.56 336.18 253.23 329.59 263.45 329.59C265.12 329.59 266.75 329.77 268.32 330.11C272.35 313.97 286.94 302 304.33 302C321.58 302 336.07 313.76 340.24 329.7C340.97 329.65 341.71 329.59 342.45 329.59C348.12 329.59 353.42 331.13 358 333.78C362.27 331.14 367.29 329.59 372.68 329.59C388.12 329.59 400.65 342.11 400.65 357.56H373.4H344.72H336.55H316.93H311.52H306.43H286.32H272.13H251.7H251.09H240.6H207.5C210.81 348.56 219.44 342.13 229.59 342.13Z" fill="white"/>
</g>
<g filter="url(#filter1_d_259_11914)">
<path d="M873.59 611.13C877.9 611.13 881.93 612.31 885.41 614.33C888.56 605.18 897.23 598.59 907.45 598.59C909.12 598.59 910.75 598.77 912.32 599.11C916.35 582.97 930.94 571 948.33 571C965.58 571 980.07 582.76 984.24 598.7C984.97 598.65 985.71 598.59 986.45 598.59C992.12 598.59 997.42 600.13 1002 602.78C1006.27 600.14 1011.29 598.59 1016.68 598.59C1032.12 598.59 1044.65 611.11 1044.65 626.56H1017.4H988.72H980.55H960.93H955.52H950.43H930.32H916.13H895.7H895.09H884.6H851.5C854.81 617.56 863.44 611.13 873.59 611.13Z" fill="white"/>
</g>
<g filter="url(#filter2_d_259_11914)">
<path d="M-28.4102 1476.13C-24.1002 1476.13 -20.0701 1477.31 -16.5901 1479.33C-13.4401 1470.18 -4.77005 1463.59 5.44995 1463.59C7.11995 1463.59 8.74982 1463.77 10.3198 1464.11C14.3498 1447.97 28.9398 1436 46.3298 1436C63.5798 1436 78.07 1447.76 82.24 1463.7C82.97 1463.65 83.7099 1463.59 84.45 1463.59C90.1199 1463.59 95.42 1465.13 100 1467.78C104.27 1465.14 109.29 1463.59 114.68 1463.59C130.12 1463.59 142.65 1476.11 142.65 1491.56H115.4H86.72H78.5498H58.9299H53.5198H48.4299H28.3198H14.1299H-6.30005H-6.91016H-17.4001H-50.5C-47.19 1482.56 -38.5602 1476.13 -28.4102 1476.13Z" fill="white"/>
</g>
<path d="M390.744 1908.16L384.654 1907.51L386.174 1901.79L392.024 1903.34L390.744 1908.16Z" fill="#768894"/>
<path d="M413.084 1906.81C412.844 1907.85 401.544 1906.12 387.854 1902.95C374.164 1899.77 363.264 1896.35 363.504 1895.3C363.744 1894.26 375.044 1895.99 388.734 1899.16C402.424 1902.34 413.334 1905.77 413.084 1906.81Z" fill="#2D2D2D"/>
<path d="M471.363 1925.21L465.443 1923.9L467.063 1917.81L472.913 1919.36L471.363 1925.21Z" fill="#768894"/>
<path d="M493.973 1922.83C493.733 1923.87 482.434 1922.14 468.744 1918.97C455.054 1915.79 444.154 1912.37 444.394 1911.32C444.634 1910.28 455.934 1912.01 469.624 1915.18C483.314 1918.36 494.223 1921.78 493.973 1922.83Z" fill="#2D2D2D"/>
<path d="M430.054 1932.86L412.864 1929.52L413.044 1928.6C413.964 1923.85 418.564 1920.75 423.314 1921.68C428.064 1922.6 431.164 1927.2 430.234 1931.95L430.054 1932.86Z" fill="#2D2D2D"/>
<path d="M437.47 1938.15L435.956 1938.83L442.965 1954.42L444.479 1953.74L437.47 1938.15Z" fill="#2D2D2D"/>
<path d="M420.749 1939.28L418.531 1950.26L420.158 1950.59L422.376 1939.61L420.749 1939.28Z" fill="#2D2D2D"/>
<path d="M401.863 1936.12L394.897 1947.43L396.311 1948.3L403.276 1936.99L401.863 1936.12Z" fill="#2D2D2D"/>
<path d="M442.164 2013.27L373.144 1999.85L384.664 1940.6L453.684 1954.02L442.164 2013.27Z" fill="#31EB0A"/>
<path d="M379.539 1967.89L378.594 1972.78L447.624 1986.12L448.569 1981.23L379.539 1967.89Z" fill="#D6FFCD"/>
<path d="M417.537 1946.98L404.642 2005.96L409.507 2007.02L422.402 1948.05L417.537 1946.98Z" fill="#D6FFCD"/>
<path d="M435.064 1933.05L456.444 1921.17L476.474 1925.98L474.064 1933.05L455.764 1928.65L435.064 1941.46V1933.05Z" fill="#93A3AD"/>
<path d="M411.334 1929.6L397.274 1909.58L377.164 1905.17L376.234 1912.58L394.624 1916.61L407.654 1937.17L411.334 1929.6Z" fill="#93A3AD"/>
<path d="M439.944 1943.78L401.244 1936.26L403.074 1926.82L441.774 1934.35L439.944 1943.78Z" fill="#768894"/>
<path d="M643.706 2310.32C647.461 2310.17 651.216 2310.29 654.971 2310.28C655.649 2310.28 657.018 2310.28 657.695 2310.28C671.729 2309.58 685.748 2310.42 699.796 2310.35C700.267 2320.44 699.59 2330.54 700.09 2340.61C725.168 2340.47 750.26 2340.9 775.353 2340.73L775.5 2341.83C762.35 2341.26 749.082 2340.92 735.962 2341.87C734.916 2350.41 736.197 2359.04 735.358 2367.6C728.835 2368.14 722.193 2368.13 715.67 2367.6C714.801 2359.06 716.082 2350.43 715.066 2341.89C710.295 2341.02 705.347 2341.02 700.576 2341.9C699.693 2349.16 700.856 2356.55 699.398 2363.77C692.831 2363.84 686.263 2363.75 679.695 2363.81C674.409 2363.74 669.122 2363.87 663.836 2364.03C657.062 2364.02 650.288 2364.09 643.5 2363.9V2362.65L643.529 2361.02C643.795 2344.11 643.412 2327.21 643.706 2310.32ZM666.516 2310.78C666.03 2315.58 665.471 2320.63 666.87 2325.32C670.124 2325.68 673.422 2325.66 676.691 2325.34C678.031 2320.63 677.531 2315.59 677.045 2310.81C673.57 2310.2 669.977 2310.19 666.516 2310.78Z" fill="#768894"/>
<path d="M666.052 2310.45C669.641 2309.84 673.368 2309.85 676.972 2310.49C677.476 2315.51 677.995 2320.79 676.605 2325.74C673.215 2326.08 669.794 2326.1 666.419 2325.73C664.968 2320.79 665.548 2315.49 666.052 2310.45Z" fill="#31EB0A"/>
<path d="M633.655 2364.22C636.882 2363.99 640.124 2364.09 643.365 2364.13C650.158 2364.32 656.937 2364.25 663.715 2364.26C663.907 2370.9 663.45 2377.56 664.098 2384.18C669.108 2384.82 674.207 2384.8 679.231 2384.18C679.865 2377.49 679.394 2370.75 679.585 2364.04C686.157 2363.99 692.729 2364.07 699.301 2364C702.572 2364.07 705.858 2364.09 709.115 2364.58C711.856 2388.11 709.056 2412.18 710.5 2435.91C684.89 2436.13 659.265 2435.88 633.655 2435.81C633.448 2411.95 633.448 2388.08 633.655 2364.22Z" fill="#93A3AD"/>
<path d="M700.674 2341.66C705.428 2340.78 710.358 2340.78 715.112 2341.65C716.124 2350.19 714.847 2358.82 715.713 2367.35C722.213 2367.88 728.83 2367.9 735.33 2367.35C736.167 2358.8 734.89 2350.17 735.932 2341.63C749.005 2340.68 762.225 2341.02 775.328 2341.59C775.562 2372.99 775.548 2404.44 775.342 2435.84C753.788 2436.17 732.205 2435.87 710.651 2435.99C709.213 2412.08 712.001 2387.82 709.272 2364.12C706.029 2363.62 702.757 2363.6 699.5 2363.53C700.953 2356.31 699.793 2348.92 700.674 2341.66Z" fill="#627480"/>
<path d="M663.5 2364.23C668.833 2364.08 674.167 2363.95 679.5 2364.02C679.307 2370.52 679.782 2377.05 679.143 2383.54C674.078 2384.15 668.937 2384.16 663.886 2383.54C663.233 2377.12 663.693 2370.66 663.5 2364.23Z" fill="#31EB0A"/>
<path d="M492.257 2231.38C498.741 2225.33 508.118 2229.08 515.862 2229.94C515.436 2231.89 514.466 2233.45 512.918 2234.66C510.961 2235.01 509.003 2235.43 507.08 2235.91C506.025 2239 505.515 2242.24 504.647 2245.4C502.588 2244.77 500.579 2243.95 498.537 2243.25C498.452 2245.44 498.724 2247.65 498.333 2249.84C497.091 2251.08 495.797 2252.3 494.453 2253.45C491.253 2246.81 485.944 2237.87 492.257 2231.38Z" fill="#2D2D2D"/>
<path d="M601.457 2230.15C602.175 2229.67 603.645 2228.69 604.38 2228.2C608.003 2227.87 611.661 2227.89 615.234 2228.69C615.919 2229.14 617.272 2230.02 617.956 2230.47C626.723 2237.71 622.983 2248.81 617.455 2256.77C615.969 2254.45 614.115 2252.42 612.445 2250.25C613.113 2247.92 613.948 2245.64 614.449 2243.28C611.41 2243.49 609.089 2245.61 606.534 2246.99C606.183 2242.99 606.083 2239 605.916 2235C603.06 2234.67 600.372 2235.82 597.733 2236.68C597.95 2234.08 599.136 2231.52 601.457 2230.15Z" fill="#1F1F1F"/>
<path d="M507.148 2235.9C509.059 2235.42 511.004 2235 512.95 2234.64C517.314 2237.7 513.626 2244.18 518.075 2247.2C516.13 2250.36 515.842 2253.83 516.011 2257.51C513.44 2258.15 510.768 2257.73 508.163 2257.88C507.148 2261.1 507.588 2264.51 507.605 2267.83C502.953 2265.77 498.386 2263.55 493.734 2261.51C494.005 2258.9 494.309 2256.31 494.597 2253.71C495.933 2252.55 497.219 2251.32 498.454 2250.05C498.843 2247.83 498.572 2245.58 498.657 2243.36C500.686 2244.07 502.682 2244.9 504.729 2245.55C505.592 2242.34 506.099 2239.05 507.148 2235.9Z" fill="#FFD5C3"/>
<path d="M598.521 2236.36C601.028 2235.5 603.584 2234.37 606.297 2234.7C606.456 2238.64 606.551 2242.59 606.885 2246.53C609.313 2245.17 611.519 2243.08 614.407 2242.87C613.931 2245.2 613.137 2247.45 612.503 2249.75C614.09 2251.89 615.851 2253.89 617.264 2256.18C617.645 2257.64 618.39 2260.54 618.756 2262C612.042 2265.99 606.028 2271.99 599.473 2275.57C600.187 2274.47 601.616 2272.25 602.33 2271.15C603.314 2269.89 604.266 2268.59 605.186 2267.26C605.234 2264.74 604.837 2262.24 604.568 2259.76C604.028 2259.57 602.933 2259.19 602.393 2259.01C600.552 2258.79 598.743 2258.46 596.95 2258.04C596.712 2254.62 597.95 2250.69 595.521 2247.88C597.632 2244.39 597.347 2240.19 598.521 2236.36Z" fill="#FFD5C3"/>
<path d="M493.481 2261.19L494.033 2261.44C498.505 2263.51 502.895 2265.76 507.366 2267.85C517.935 2277.18 518.114 2293.12 515.707 2306.12C508.635 2303.22 511.041 2292.78 508.797 2286.59C508.781 2278.43 501.334 2268.81 492.651 2273.4C489.79 2287.76 498.797 2301.87 502.976 2315.33C506.196 2316.91 509.773 2317.48 513.252 2318.24C512.764 2322.11 512.163 2325.97 511.415 2329.79C503.659 2328.45 495.855 2327.48 488.066 2326.4C495.871 2304.91 478.375 2280.68 493.481 2261.19Z" fill="#2D2D2D"/>
<path d="M619.323 2262.3C621.271 2265.48 622.753 2268.91 624.568 2272.18C625.135 2273.71 625.701 2275.23 626.267 2276.78C626.284 2277.74 626.334 2279.69 626.35 2280.66C625.651 2286.56 624.285 2292.37 623.636 2298.28C622.52 2306.37 621.754 2314.73 623.986 2322.73C624.635 2325.48 625.584 2328.17 626.367 2330.91L626.5 2332.37C617.891 2333.43 609.315 2334.73 600.657 2335.32C599.558 2329.76 599.824 2324.04 598.658 2318.48C587.302 2319.86 575.896 2321.04 564.606 2322.94C563.423 2319.84 561.475 2317.09 559.011 2314.84C570.401 2310.86 582.54 2308.7 593.73 2304.33C596.927 2295.43 592.78 2284.38 599.091 2275.84C605.969 2272.27 612.28 2266.28 619.323 2262.3Z" fill="#768894"/>
<path d="M492.081 2273.45C500.888 2268.85 508.441 2278.49 508.458 2286.67C510.734 2292.87 508.293 2303.33 515.467 2306.23C524.868 2308.84 534.253 2311.58 543.521 2314.63C541.476 2316.97 539.563 2319.42 537.864 2322.04C529.536 2321.07 521.322 2319.32 512.977 2318.38C509.447 2317.63 505.819 2317.05 502.553 2315.47C498.315 2301.98 489.178 2287.84 492.081 2273.45Z" fill="#2D2D2D"/>
<path d="M537.989 2321.63C539.662 2319.05 541.546 2316.62 543.56 2314.31C546.158 2314.18 548.611 2314.87 550.965 2315.87C553.645 2315.24 556.276 2314.26 559.086 2314.33C561.489 2316.56 563.389 2319.29 564.542 2322.37C556.926 2327.7 545.151 2328.21 537.989 2321.63Z" fill="#FECDB6"/>
<path d="M491.52 2374.45C493.566 2358.32 481.407 2341.86 487.936 2326.47C495.775 2327.55 503.63 2328.52 511.436 2329.84C509.309 2357.65 508.327 2385.51 507.508 2413.37C510.16 2424.87 498.393 2425.92 490.096 2427.15C490.096 2409.58 488.869 2391.89 491.52 2374.45Z" fill="#768894"/>
<path d="M601.053 2334.95C609.578 2334.36 618.022 2333.07 626.498 2332C626.498 2334.44 626.531 2336.9 626.285 2339.34C625.58 2343.26 624.449 2347.1 623.875 2351.05C618.891 2376.21 625.432 2401.94 621.891 2427.15C616.448 2426.05 611.005 2424.9 605.561 2423.79C603.873 2394.2 604.348 2364.42 601.053 2334.95Z" fill="#2D2D2D"/>
<path d="M490.548 2427.75C498.86 2426.51 510.648 2425.46 507.992 2413.87C505.385 2422.65 510.664 2427.7 517.829 2431.23C517.894 2432.21 518.009 2434.15 518.075 2435.13C517.189 2435.32 515.435 2435.7 514.566 2435.9C506.697 2435.44 498.762 2435.26 490.909 2436C490.253 2433.29 490.384 2430.49 490.548 2427.75Z" fill="#242329"/>
<path d="M605.068 2423.83C610.368 2425.01 615.668 2426.23 620.968 2427.39C620.218 2430.22 619.755 2433.12 619.132 2436C611.278 2435.24 603.376 2435.31 595.521 2435.91C595.537 2434.63 595.553 2432.02 595.553 2430.74C598.411 2427.94 601.891 2426.12 605.068 2423.83Z" fill="#242329"/>
<path d="M1106.03 2382.39C1107.5 2379.91 1108.06 2376.73 1106.82 2374.13C1105.58 2371.52 1102.19 2369.94 1099.62 2371.23C1100.28 2363.75 1099.76 2356.17 1098.05 2348.86C1097.11 2344.84 1095.66 2340.65 1092.4 2338.12C1087.41 2334.26 1079.54 2335.96 1075.5 2340.8C1071.46 2345.65 1070.85 2352.67 1072.54 2358.74C1068.1 2357.51 1062.74 2357.72 1059.64 2361.12C1056.12 2364.98 1057.01 2370.99 1058.12 2376.09C1059.06 2380.42 1060.26 2385.17 1063.92 2387.68C1059.48 2388.18 1054.16 2389.39 1052.79 2393.63C1052.02 2396.05 1052.89 2398.72 1054.3 2400.83C1058.96 2407.86 1068.33 2409.91 1076.75 2410.11H1080.91C1083.25 2410.34 1085.56 2409.4 1087.66 2408.51C1089.84 2407.6 1092.11 2406.92 1094.31 2406.06C1097.8 2404.72 1101.52 2402.9 1103.17 2399.35C1104.92 2395.58 1103.75 2390.39 1100.03 2388.54C1102.31 2386.77 1104.56 2384.86 1106.03 2382.39Z" fill="#2D2D2D"/>
<path d="M1083.03 2436.31C1083.03 2420.88 1083.03 2405.45 1083.03 2390.02C1083.03 2385.64 1083.03 2381.26 1083.03 2376.87C1083.03 2374.36 1079.15 2374.36 1079.15 2376.87C1079.15 2392.3 1079.15 2407.73 1079.15 2423.16C1079.15 2427.54 1079.15 2431.92 1079.15 2436.31C1079.14 2438.82 1083.03 2438.82 1083.03 2436.31Z" fill="white"/>
<path d="M1083.36 2395.87C1087.61 2393.99 1090.88 2390.08 1092.12 2385.61C1092.4 2384.64 1091.79 2383.46 1090.76 2383.23C1089.73 2383 1088.66 2383.54 1088.38 2384.59C1088.25 2385.07 1088.08 2385.54 1087.91 2386C1087.74 2386.44 1088.09 2385.61 1087.89 2386.03C1087.83 2386.16 1087.78 2386.28 1087.72 2386.4C1087.63 2386.61 1087.52 2386.81 1087.42 2387C1087.18 2387.44 1086.93 2387.86 1086.65 2388.27C1086.57 2388.38 1086.5 2388.49 1086.42 2388.6C1086.35 2388.69 1086.14 2389.06 1086.39 2388.64C1086.27 2388.84 1086.08 2389.03 1085.92 2389.21C1085.59 2389.58 1085.24 2389.94 1084.88 2390.28C1084.7 2390.44 1084.51 2390.61 1084.33 2390.77C1084.23 2390.85 1084.12 2390.96 1084.01 2391.02C1084.2 2390.92 1084.24 2390.85 1084.02 2391.01C1083.21 2391.61 1082.32 2392.11 1081.4 2392.53C1080.47 2392.94 1080.18 2394.37 1080.7 2395.19C1081.32 2396.14 1082.36 2396.32 1083.36 2395.87Z" fill="white"/>
<path d="M1080.42 2400.99C1079.28 2400.71 1078.13 2400.44 1077.02 2400.07C1076.76 2399.99 1076.52 2399.9 1076.27 2399.81C1076.14 2399.76 1076 2399.71 1075.87 2399.65C1076.13 2399.76 1075.9 2399.66 1075.77 2399.6C1075.25 2399.36 1074.74 2399.09 1074.26 2398.77C1074.15 2398.7 1074.05 2398.63 1073.94 2398.56C1073.77 2398.43 1073.85 2398.48 1073.97 2398.58C1073.77 2398.41 1073.57 2398.25 1073.39 2398.07C1073.2 2397.89 1073.03 2397.71 1072.85 2397.52C1072.82 2397.47 1072.54 2397.14 1072.72 2397.36C1072.88 2397.57 1072.6 2397.19 1072.6 2397.18C1072.45 2396.97 1072.32 2396.76 1072.21 2396.53C1072.16 2396.45 1072.12 2396.35 1072.07 2396.27C1071.85 2395.82 1072.19 2396.64 1072.04 2396.17C1071.96 2395.95 1071.9 2395.75 1071.85 2395.52C1071.83 2395.41 1071.76 2395.27 1071.78 2395.15C1071.78 2395.22 1071.8 2395.3 1071.8 2395.37C1071.8 2395.27 1071.79 2395.17 1071.78 2395.07C1071.72 2394.05 1070.93 2393.08 1069.84 2393.12C1068.84 2393.16 1067.83 2393.97 1067.89 2395.07C1068.07 2397.91 1069.68 2400.21 1071.92 2401.85C1074.09 2403.45 1076.82 2404.11 1079.39 2404.73C1080.37 2404.96 1081.54 2404.41 1081.77 2403.37C1082.01 2402.38 1081.48 2401.24 1080.42 2400.99Z" fill="white"/>
</g>
<defs>
<filter id="filter0_d_259_11914" x="137.5" y="232" width="333.15" height="195.561" filterUnits="userSpaceOnUse" color-interpolation-filters="sRGB">
<feFlood flood-opacity="0" result="BackgroundImageFix"/>
<feColorMatrix in="SourceAlpha" type="matrix" values="0 0 0 0 0 0 0 0 0 0 0 0 0 0 0 0 0 0 127 0" result="hardAlpha"/>
<feOffset/>
<feGaussianBlur stdDeviation="35"/>
<feComposite in2="hardAlpha" operator="out"/>
<feColorMatrix type="matrix" values="0 0 0 0 0.796078 0 0 0 0 0.858824 0 0 0 0 0.992157 0 0 0 0.5 0"/>
<feBlend mode="normal" in2="BackgroundImageFix" result="effect1_dropShadow_259_11914"/>
<feBlend mode="normal" in="SourceGraphic" in2="effect1_dropShadow_259_11914" result="shape"/>
</filter>
<filter id="filter1_d_259_11914" x="781.5" y="501" width="333.15" height="195.561" filterUnits="userSpaceOnUse" color-interpolation-filters="sRGB">
<feFlood flood-opacity="0" result="BackgroundImageFix"/>
<feColorMatrix in="SourceAlpha" type="matrix" values="0 0 0 0 0 0 0 0 0 0 0 0 0 0 0 0 0 0 127 0" result="hardAlpha"/>
<feOffset/>
<feGaussianBlur stdDeviation="35"/>
<feComposite in2="hardAlpha" operator="out"/>
<feColorMatrix type="matrix" values="0 0 0 0 0.796078 0 0 0 0 0.858824 0 0 0 0 0.992157 0 0 0 0.5 0"/>
<feBlend mode="normal" in2="BackgroundImageFix" result="effect1_dropShadow_259_11914"/>
<feBlend mode="normal" in="SourceGraphic" in2="effect1_dropShadow_259_11914" result="shape"/>
</filter>
<filter id="filter2_d_259_11914" x="-120.5" y="1366" width="333.15" height="195.561" filterUnits="userSpaceOnUse" color-interpolation-filters="sRGB">
<feFlood flood-opacity="0" result="BackgroundImageFix"/>
<feColorMatrix in="SourceAlpha" type="matrix" values="0 0 0 0 0 0 0 0 0 0 0 0 0 0 0 0 0 0 127 0" result="hardAlpha"/>
<feOffset/>
<feGaussianBlur stdDeviation="35"/>
<feComposite in2="hardAlpha" operator="out"/>
<feColorMatrix type="matrix" values="0 0 0 0 0.796078 0 0 0 0 0.858824 0 0 0 0 0.992157 0 0 0 0.3 0"/>
<feBlend mode="normal" in2="BackgroundImageFix" result="effect1_dropShadow_259_11914"/>
<feBlend mode="normal" in="SourceGraphic" in2="effect1_dropShadow_259_11914" result="shape"/>
</filter>
<linearGradient id="paint0_linear_259_11914" x1="-13.1816" y1="2129.94" x2="-7.93452" y2="2566.77" gradientUnits="userSpaceOnUse">
<stop stop-color="#68D2FF"/>
<stop offset="1" stop-color="#2287D9"/>
</linearGradient>
<linearGradient id="paint1_linear_259_11914" x1="356.767" y1="2373.5" x2="355.701" y2="2322.33" gradientUnits="userSpaceOnUse">
<stop stop-color="#D2DFEF"/>
<stop offset="0.3567" stop-color="#D9E3F0"/>
<stop offset="0.8722" stop-color="#ECEFF1"/>
<stop offset="1" stop-color="#F2F2F2"/>
</linearGradient>
<linearGradient id="paint2_linear_259_11914" x1="910.819" y1="2043.37" x2="910.819" y2="2505.05" gradientUnits="userSpaceOnUse">
<stop stop-color="white"/>
<stop offset="1" stop-color="white" stop-opacity="0"/>
</linearGradient>
<linearGradient id="paint3_linear_259_11914" x1="902.397" y1="1939" x2="902.397" y2="2505.05" gradientUnits="userSpaceOnUse">
<stop stop-color="white"/>
<stop offset="1" stop-color="white" stop-opacity="0"/>
</linearGradient>
<clipPath id="clip0_259_11914">
<rect width="1125" height="2436" fill="white" transform="translate(0.5)"/>
</clipPath>
</defs>
</svg>
