<svg width="1126" height="570" viewBox="0 0 1126 570" fill="none" xmlns="http://www.w3.org/2000/svg">
<path d="M40.5 286.25H39.25V287.5V383.75H7H0.5H-0.75V385V570V571.25H0.5H1142H1143.25V570V277V275.75H1142H1090.75V120V118.75H1089.5H969H967.75V120V218.25H924H922.75V219.5V303.75H824.75V136V134.75H823.5H698H696.75V136V169.25H663H661.75V170.5V231.25H614.5H613.25V232.5V303.75H540.25V120V118.75H539H441H439.75V120V451.75H318.25V219.5V218.25H317H173H171.75V219.5V286.25H40.5Z" fill="url(#paint0_linear_647_6758)" stroke="#C1CAD0" stroke-width="2.5"/>
<path opacity="0.46" d="M283.972 122.954C292.667 122.689 308.14 128.605 303.343 140.049C293.525 141.395 283.441 141.089 273.602 140.314C266.784 133.276 278.154 125.912 283.972 122.954ZM275.5 137.785C284.237 137.519 293.463 139.376 301.873 136.601C300.097 128.809 291.932 127.85 285.482 125.953C281.195 128.319 273.724 131.889 275.5 137.785Z" fill="#627480"/>
<path opacity="0.46" d="M858.981 122.954C867.677 122.689 883.15 128.605 878.353 140.049C868.534 141.395 858.451 141.089 848.612 140.314C841.794 133.276 853.164 125.912 858.981 122.954ZM850.51 137.785C859.247 137.519 868.473 139.376 876.883 136.601C875.107 128.809 866.942 127.85 860.492 125.953C856.205 128.319 848.734 131.889 850.51 137.785Z" fill="#627480"/>
<path opacity="0.45" d="M318.244 132.807C324.715 124.382 337.33 125.259 343.474 133.582C357.007 130.665 363.458 142.578 370.275 151.677C372.439 157.838 367.499 164.937 361.029 165.1C343.943 165.365 326.858 165.12 309.773 165.202C302.588 166.222 295.362 158.572 298.24 151.493C304.18 144.353 309.14 136.193 318.244 132.807ZM311.324 140.151C308.283 146.781 295.239 153.839 304.261 160.877C322.49 164.039 341.596 161.652 360.13 162.101C369.071 162.04 369.214 150.8 362.417 147.168C359.028 139.09 351.435 134.174 342.78 138.07C339.371 135.316 337.289 130.032 332.308 130.053C323.102 128.38 320.04 139.539 311.324 140.151Z" fill="#627480"/>
<path opacity="0.45" d="M893.254 132.807C899.724 124.382 912.339 125.259 918.484 133.582C932.017 130.665 938.467 142.578 945.285 151.677C947.449 157.838 942.509 164.937 936.038 165.1C918.953 165.365 901.868 165.12 884.783 165.202C877.597 166.222 870.371 158.572 873.249 151.493C879.189 144.353 884.15 136.193 893.254 132.807ZM886.334 140.151C883.292 146.781 870.249 153.839 879.271 160.877C897.5 164.039 916.606 161.652 935.14 162.101C944.081 162.04 944.224 150.8 937.426 147.168C934.038 139.09 926.444 134.174 917.79 138.07C914.381 135.316 912.299 130.032 907.318 130.053C898.112 128.38 895.05 139.539 886.334 140.151Z" fill="#627480"/>
<path opacity="0.43" d="M1046.81 149.33C1053.38 148.901 1059.99 148.922 1066.59 149.472C1067.08 160.04 1066.91 170.668 1066.81 181.256C1060.03 181.99 1053.2 181.908 1046.44 181.419C1045.89 170.77 1045.28 159.917 1046.81 149.33ZM1049.07 152.92C1048.71 161.508 1048.52 170.178 1049.32 178.746C1053.79 179.052 1058.3 179.052 1062.79 178.726C1064.04 170.219 1063.69 161.529 1063.12 152.981C1058.44 152.492 1053.73 152.451 1049.07 152.92Z" fill="#627480"/>
<path opacity="0.43" d="M781.383 222.26C788.14 221.689 794.957 221.689 801.714 222.28C801.877 232.909 802.428 243.598 801.326 254.165C794.814 254.369 788.323 254.39 781.832 254.186C780.403 243.619 781.016 232.868 781.383 222.26ZM784.057 224.912C783.588 233.419 783.608 241.966 783.873 250.473C788.589 250.963 793.345 250.942 798.08 250.636C798.713 242.068 799.183 233.317 797.856 224.769C793.243 224.443 788.629 224.443 784.057 224.912Z" fill="#627480"/>
<path opacity="0.53" d="M781.425 175.075C788.1 174.382 794.876 174.3 801.551 175.116C801.735 185.459 801.755 195.822 801.531 206.165C794.876 206.981 788.1 206.899 781.425 206.206C780.976 195.842 780.976 185.438 781.425 175.075ZM783.833 177.666C783.588 186.316 783.588 194.965 783.833 203.615C788.875 204.023 794.019 204.145 799.061 203.35C798.959 194.884 798.959 186.417 799.041 177.931C794.019 177.135 788.875 177.237 783.833 177.666Z" fill="#627480"/>
<path opacity="0.46" d="M1046.48 197.434C1053.11 196.924 1060.12 196.006 1066.61 197.842C1066.83 207.981 1066.83 218.119 1066.65 228.258C1059.99 229.503 1053.16 229.258 1046.48 228.564C1045.7 218.221 1045.7 207.777 1046.48 197.434ZM1049.01 200.004C1048.71 208.674 1048.64 217.365 1049.07 226.035C1053.75 226.381 1058.46 226.341 1063.16 225.953C1063.95 217.344 1063.89 208.654 1063.24 200.045C1058.48 199.719 1053.73 199.698 1049.01 200.004Z" fill="#627480"/>
<path opacity="0.42" d="M452.518 201.901C459.274 201.391 466.112 201.35 472.869 202.023C472.95 212.611 473.216 223.239 472.624 233.827C466.071 234.275 459.499 234.296 452.967 233.908C451.334 223.361 452.028 212.529 452.518 201.901ZM455.416 204.593C454.763 213.141 454.824 221.77 455.192 230.338C459.825 230.909 464.5 230.889 469.154 230.399C469.725 221.831 470.134 213.1 468.807 204.593C464.336 204.267 459.866 204.267 455.416 204.593Z" fill="#627480"/>
<path opacity="0.42" d="M1046.46 244.68C1053.2 244.027 1060.05 243.966 1066.79 244.864C1066.91 254.921 1067.1 264.998 1066.69 275.056C1061.38 278.279 1053.5 276.137 1047.24 276.484C1044.73 266.243 1046.13 255.186 1046.46 244.68ZM1049.18 247.189C1048.62 255.798 1048.69 264.448 1049.03 273.077C1053.73 273.383 1058.44 273.362 1063.16 273.016C1063.73 264.427 1063.81 255.778 1062.97 247.21C1058.38 246.822 1053.75 246.802 1049.18 247.189Z" fill="#627480"/>
<path opacity="0.4" d="M752.663 222.383C759.44 221.975 766.278 221.954 773.075 222.424C773.504 233.174 773.504 243.966 773.075 254.717C766.278 255.206 759.46 255.186 752.663 254.778C751.805 244.027 751.805 233.134 752.663 222.383ZM755.377 226.34C755.051 234.48 755.051 242.66 755.398 250.82C759.929 251.942 764.706 251.8 769.299 250.984C770.217 242.762 770.217 234.419 769.299 226.198C764.706 225.382 759.929 225.218 755.377 226.34Z" fill="#627480"/>
<path d="M287.523 232.563C294.28 232.195 301.057 232.195 307.834 232.563C308.406 243.334 308.406 254.187 307.814 264.978C301.077 265.366 294.28 265.366 287.544 264.978C287.176 254.187 287.197 243.354 287.523 232.563ZM291.259 236.337C290.32 244.558 290.32 252.922 291.239 261.143C295.872 261.959 300.649 261.918 305.242 260.898C305.609 252.779 305.589 244.639 305.262 236.52C300.669 235.398 295.872 235.521 291.259 236.337Z" fill="#BBC4CB"/>
<path opacity="0.42" d="M624.432 247.21C631.025 246.659 637.7 246.659 644.314 247.21C645.252 257.186 644.538 267.243 644.64 277.239C643.701 277.198 641.823 277.137 640.864 277.116C641.354 268.365 641.946 259.511 640.782 250.78C636.148 250.25 631.474 250.25 626.881 250.984C626.412 259.328 625.983 267.814 627.432 276.096C631.127 276.627 634.883 276.77 638.618 277.055L638.537 279.36C633.781 279.462 629.025 279.626 624.289 279.258C623.595 268.61 623.472 257.859 624.432 247.21Z" fill="#627480"/>
<path opacity="0.41" d="M452.619 248.881C459.355 248.494 466.153 248.453 472.909 249.004C473.093 259.734 473.073 270.464 472.93 281.195C466.173 281.725 459.376 281.705 452.619 281.297C451.742 270.526 451.742 259.652 452.619 248.881ZM455.232 252.737C454.844 260.958 454.844 269.2 455.232 277.4C459.784 278.237 464.499 278.216 469.092 277.482C469.786 269.24 469.786 260.917 469.092 252.696C464.499 251.9 459.764 251.758 455.232 252.737Z" fill="#627480"/>
<path d="M56.7187 344.761C63.4753 344.373 70.2931 344.373 77.0496 344.781C77.417 355.573 77.417 366.385 77.0496 377.176C70.2931 377.584 63.4753 377.584 56.7187 377.197C56.0859 366.405 56.0859 355.552 56.7187 344.761ZM59.2907 348.678C58.9437 356.858 58.9437 365.079 59.2703 373.26C63.8631 374.341 68.6396 374.198 73.2529 373.382C74.1918 365.161 74.151 356.797 73.2529 348.555C68.6396 347.739 63.8631 347.617 59.2907 348.678Z" fill="#BBC4CB"/>
<path opacity="0.37" d="M752.908 269.547C759.481 268.854 766.176 268.854 772.749 269.649C773.096 272.199 773.381 274.749 773.586 277.32C766.441 277.381 759.317 277.422 752.193 277.279C752.275 274.688 752.52 272.118 752.908 269.547Z" fill="#627480"/>
<path d="M781.363 269.281C788.099 268.526 794.937 268.526 801.673 269.281C801.898 271.933 802.061 274.585 802.163 277.257C795.06 277.38 787.977 277.421 780.894 277.257C780.975 274.585 781.138 271.933 781.363 269.281Z" fill="#C1CAD0"/>
<path d="M624.697 294.557C629.289 294.21 633.882 294.251 638.495 294.088C638.495 294.945 638.495 296.638 638.495 297.495C634.556 297.556 630.616 297.576 626.717 298.066C626.228 306.552 626.207 315.1 626.881 323.586C630.698 324.076 634.556 324.137 638.434 324.361V326.463C633.719 326.544 629.004 326.687 624.309 326.279C623.737 315.732 623.349 305.043 624.697 294.557Z" fill="#A9B4BB"/>
<path d="M452.803 296.148C459.416 295.761 466.091 295.74 472.725 296.21C473.072 306.858 472.909 317.507 472.889 328.156C466.091 328.646 459.274 328.564 452.476 328.258C451.986 317.589 451.537 306.777 452.803 296.148ZM455.191 299.861C454.844 308.409 454.722 317.018 455.436 325.545C459.825 325.81 464.234 325.81 468.643 325.524C470.378 317.099 469.664 308.307 469.174 299.78C464.52 299.29 459.825 299.269 455.191 299.861Z" fill="#A9B4BB"/>
<path d="M56.719 297.822C63.4959 297.496 70.2933 297.475 77.0907 297.843C77.2744 308.471 77.6622 319.161 76.7845 329.748C70.1912 330.136 63.5572 330.177 56.9639 329.871C55.8821 319.242 56.2495 308.471 56.719 297.822ZM59.4747 300.515C58.8215 309.042 58.9235 317.651 59.2501 326.219C63.8838 326.913 68.6399 326.892 73.294 326.321C74.1717 318.222 74.1309 310.001 73.4777 301.882C69.9259 298.883 63.9654 300.882 59.4747 300.515Z" fill="#BBC4CB"/>
<path d="M56.984 392.091C63.5773 391.785 70.1909 391.826 76.7842 392.193C77.6823 402.801 77.2741 413.491 77.0904 424.119C70.293 424.466 63.4956 424.466 56.7187 424.139C56.2288 413.491 55.8818 402.719 56.984 392.091ZM59.2498 395.743C58.9232 404.311 58.8416 412.899 59.4744 421.447C63.9651 421.079 69.9256 423.079 73.4774 420.08C74.1306 411.961 74.1714 403.739 73.3141 395.641C68.6396 395.069 63.8835 395.029 59.2498 395.743Z" fill="#BBC4CB"/>
<path d="M624.39 342.354C629.044 341.804 633.76 342.028 638.454 342.151V344.374C634.515 344.558 630.596 344.619 626.717 345.088C626.146 353.656 626.166 362.265 626.656 370.813C630.575 371.261 634.515 371.323 638.454 371.506V373.75C633.76 373.893 629.044 374.138 624.411 373.567C623.778 363.183 623.737 352.738 624.39 342.354Z" fill="#A9B4BB"/>
<path d="M872.398 380.301V402.777C872.398 404.775 871.926 406.705 871.079 408.398C869.017 412.527 864.716 415.371 859.809 415.371H855.778C848.873 415.371 843.188 409.717 843.188 402.782V380.305C843.188 377.933 843.867 375.737 845.015 373.838C845.015 373.804 845.015 373.804 845.015 373.804C847.249 370.147 851.245 367.711 855.778 367.711H859.809C866.748 367.707 872.398 373.396 872.398 380.301Z" fill="white"/>
<path opacity="0.3" d="M871.079 408.393C869.017 412.523 864.716 415.367 859.809 415.367H855.778C848.873 415.367 843.188 409.713 843.188 402.777V380.301C843.188 377.929 843.867 375.733 845.015 373.834C845.251 375.222 850.6 406.06 871.079 408.393Z" fill="white"/>
<path d="M672.776 544.804H735.016V481.984H670.082L672.776 544.804Z" fill="#2D2D2D"/>
<path d="M869.043 412.016L563.246 419.557V258.301H764.054C783.196 258.301 800.728 269.017 809.459 286.054L822.598 311.702L869.043 412.016Z" fill="#768894"/>
<path d="M695.323 534.586C695.323 551.64 704.118 570.447 704.118 570.447C704.118 570.447 717.194 570.447 719.011 570.447C732.095 570.447 742.7 554.39 742.7 534.586C742.7 514.782 717.202 498.725 704.118 498.725C691.034 498.725 695.323 514.778 695.323 534.586Z" fill="#2D2D2D"/>
<path d="M704.118 570.447C717.201 570.447 727.807 554.392 727.807 534.586C727.807 514.78 717.201 498.725 704.118 498.725C691.035 498.725 680.43 514.78 680.43 534.586C680.43 554.392 691.035 570.447 704.118 570.447Z" fill="#2D2D2D"/>
<path d="M704.419 561.601C714.274 561.601 722.264 549.506 722.264 534.586C722.264 519.667 714.274 507.572 704.419 507.572C694.564 507.572 686.574 519.667 686.574 534.586C686.574 549.506 694.564 561.601 704.419 561.601Z" fill="white"/>
<path d="M866.542 534.586C866.542 551.64 875.338 570.447 875.338 570.447C875.338 570.447 888.413 570.447 890.231 570.447C903.315 570.447 913.919 554.39 913.919 534.586C913.919 514.782 888.422 498.725 875.338 498.725C862.254 498.725 866.542 514.778 866.542 534.586Z" fill="#2D2D2D"/>
<path d="M851.649 534.586C851.649 554.39 862.254 570.447 875.338 570.447C888.422 570.447 899.026 554.39 899.026 534.586C899.026 514.782 888.422 498.725 875.338 498.725C862.254 498.725 851.649 514.778 851.649 534.586Z" fill="#2D2D2D"/>
<path d="M857.794 534.586C857.794 549.505 865.782 561.601 875.634 561.601C885.487 561.601 893.479 549.505 893.479 534.586C893.479 519.668 885.491 507.572 875.634 507.572C865.777 507.572 857.794 519.668 857.794 534.586Z" fill="white"/>
<path d="M473.352 534.586C473.352 551.64 482.147 570.447 482.147 570.447C482.147 570.447 495.223 570.447 497.04 570.447C510.124 570.447 520.729 554.39 520.729 534.586C520.729 514.782 495.231 498.725 482.152 498.725C469.064 498.725 473.352 514.778 473.352 534.586Z" fill="#2D2D2D"/>
<path d="M458.459 534.586C458.459 554.39 469.064 570.447 482.147 570.447C495.231 570.447 505.836 554.39 505.836 534.586C505.836 514.782 495.231 498.725 482.147 498.725C469.064 498.725 458.459 514.778 458.459 534.586Z" fill="#2D2D2D"/>
<path d="M464.604 534.586C464.604 549.505 472.591 561.601 482.444 561.601C492.297 561.601 500.289 549.505 500.289 534.586C500.289 519.668 492.301 507.572 482.444 507.572C472.587 507.572 464.604 519.668 464.604 534.586Z" fill="white"/>
<path d="M937.5 517.662C937.534 532.658 925.383 544.809 910.421 544.809H735.016C735.523 541.866 735.794 538.819 735.794 535.67C735.794 512.484 721.88 493.664 704.753 493.664C687.592 493.664 673.679 512.484 673.679 535.67C673.679 538.819 673.915 541.866 674.422 544.809H571.925C571.925 544.809 567.796 499.048 568.303 476.094C568.711 456.123 568.711 416.996 567.525 407.448C567.525 406.026 666.365 405.854 691.313 405.755C694.699 405.721 696.727 405.721 696.933 405.721L697.272 405.957L697.646 406.228C702.248 409.442 728.042 427.519 744.052 438.115C758.167 447.421 862.352 451.216 903.211 452.367C913.364 452.638 919.629 452.741 919.629 452.741C919.629 452.741 925.215 458.46 930.156 467.501C933.946 474.509 937.332 483.511 937.401 493.363C937.435 499.49 937.47 506.868 937.47 514.113C937.5 515.29 937.5 516.476 937.5 517.662Z" fill="#768894"/>
<path d="M844.383 405.72H706.957C703.778 405.72 700.899 403.86 699.58 400.981L665.562 325.296C664.445 322.826 666.275 320.016 668.982 320.016H813.957C817.141 320.016 820.05 321.911 821.335 324.854L845.706 380.536L851.799 394.45C854.098 399.765 850.205 405.72 844.383 405.72Z" fill="white"/>
<path d="M780.378 514.105C780.344 516.477 780.245 518.707 780.107 520.705C779.128 533.871 765.889 544.806 765.889 544.806H735.021C735.528 541.863 735.798 538.816 735.798 535.667C735.798 527.778 734.174 520.4 731.398 514.105C725.95 501.851 716.063 493.661 704.758 493.661C693.419 493.661 683.536 501.855 678.083 514.105C675.308 520.4 673.683 527.782 673.683 535.667C673.683 538.816 673.92 541.863 674.427 544.806H563.233V258.311H652.496V315.175C652.496 315.175 679.269 378.067 691.322 405.756C694.3 412.661 696.401 417.366 696.942 418.38C699.615 423.489 761.829 454.972 772.119 464.245C777.839 469.392 780.679 496.132 780.378 514.105Z" fill="#768894"/>
<path d="M653.493 333.633L682.767 405.734H632.537C632.537 405.734 622.233 404.011 620.914 382.952C619.505 360.471 619.505 321.68 619.505 321.68L641.552 321.572C649.957 322.844 651.271 327.459 653.493 333.633Z" fill="#93A3AD"/>
<path d="M919.629 452.737H756.749L697.277 405.957L696.938 405.721H861.24L908.019 443.361L919.629 452.737Z" fill="#768894"/>
<path d="M930.157 467.497C929.207 469.056 927.991 470.07 926.672 470.307L903.826 474.539C901.896 474.913 900.405 471.561 900.912 468.107L903.147 452.741L903.216 452.367L903.654 449.218C904.058 446.511 905.244 444.444 906.7 443.868L908.019 443.361L919.629 452.737C919.629 452.737 925.215 458.456 930.157 467.497Z" fill="#FFF500"/>
<path d="M777.838 480.224L763.113 478.768C757.97 478.261 753.806 474.402 752.891 469.323L749.505 450.705C749.436 450.4 749.402 450.129 749.436 449.824C759.929 455.848 768.763 461.232 772.115 464.244C774.556 466.449 776.481 472.542 777.838 480.224Z" fill="#A8302D"/>
<path d="M805.798 483L777.873 480.224H777.838L763.113 478.767C757.97 478.26 753.806 474.402 752.891 469.323L749.505 450.705C749.436 450.4 749.402 450.129 749.436 449.824V449.79C749.269 445.862 752.857 442.683 756.883 443.495L800.38 452.329C803.155 452.905 805.355 454.967 806.099 457.679L811.212 476.567C812.161 480.022 809.351 483.374 805.798 483Z" fill="#FFF500"/>
<path d="M822.607 311.697H652.921C652.921 311.697 652.264 300.839 648.006 288.439C644.216 277.486 637.663 265.275 626.199 258.301H764.858C787.459 258.301 807.491 270.375 815.444 288.439C815.818 289.186 816.145 289.934 816.428 290.686C818.817 296.955 820.97 303.976 822.607 311.697Z" fill="#768894"/>
<path d="M777.873 480.223L763.113 478.767C757.97 478.26 753.806 474.401 752.891 469.322L749.505 450.704C749.436 450.399 749.402 450.094 749.436 449.789C759.929 455.848 768.763 461.232 772.115 464.244C774.556 466.448 776.481 472.541 777.873 480.223Z" fill="white"/>
<path d="M937.5 517.661C937.534 532.657 924.807 544.808 909.102 544.808H735.016C735.523 541.865 735.794 538.819 735.794 535.669C735.794 527.78 734.169 520.402 731.394 514.107H937.465C937.5 515.289 937.5 516.475 937.5 517.661Z" fill="#2D2D2D"/>
<path d="M822.826 454.061H889.431C891.558 454.061 893.186 456.931 892.86 460.111L890.497 483.258C890.149 486.661 888.211 489.174 885.933 489.174H831.059C827.539 489.174 824.437 485.694 823.415 480.602L819.461 460.923C818.774 457.507 820.463 454.061 822.826 454.061Z" fill="#93A3AD"/>
<path d="M845.703 380.536C767.14 376.51 713.997 334.47 697.952 320.016H813.954C817.138 320.016 820.047 321.911 821.331 324.854L845.703 380.536Z" fill="#F4F4F4"/>
<path d="M594.66 258.301H297.5V544.826H594.66V258.301Z" fill="#93A3AD"/>
<path opacity="0.2" d="M667.87 368.711C667.87 368.711 670.414 397.852 656.023 405.831H682.9L667.87 368.711Z" fill="#768894"/>
<path opacity="0.2" d="M671.818 388.21C671.818 388.21 665.751 383.892 665.227 380.312V400.692H673.167L671.818 388.21Z" fill="#768894"/>
<path d="M665.223 380.301V402.777C665.223 404.775 664.75 406.705 663.903 408.398C661.841 412.527 657.54 415.371 652.633 415.371H648.602C641.697 415.371 636.013 409.717 636.013 402.782V380.305C636.013 377.933 636.687 375.737 637.839 373.838C637.839 373.804 637.839 373.804 637.839 373.804C640.073 370.147 644.069 367.711 648.602 367.711H652.633C659.568 367.707 665.223 373.396 665.223 380.301Z" fill="white"/>
<path opacity="0.3" d="M663.9 408.393C661.837 412.523 657.536 415.367 652.629 415.367H648.599C641.694 415.367 636.009 409.713 636.009 402.777V380.301C636.009 377.929 636.683 375.733 637.835 373.834C638.076 375.222 643.425 406.06 663.9 408.393Z" fill="#768894"/>
<path d="M394.557 544.826H321.459C319.916 538.226 315.267 491.244 356.229 491.244C393.457 491.24 396.194 534.109 394.557 544.826Z" fill="#2D2D2D"/>
<path d="M344.34 534.586C344.34 551.64 353.136 570.447 353.136 570.447C353.136 570.447 366.211 570.447 368.028 570.447C381.112 570.447 391.717 554.39 391.717 534.586C391.717 514.782 366.219 498.725 353.136 498.725C340.056 498.725 344.34 514.778 344.34 534.586Z" fill="#2D2D2D"/>
<path d="M329.447 534.586C329.447 554.39 340.052 570.447 353.136 570.447C366.22 570.447 376.824 554.39 376.824 534.586C376.824 514.782 366.22 498.725 353.136 498.725C340.056 498.725 329.447 514.778 329.447 534.586Z" fill="#2D2D2D"/>
<path d="M335.592 534.586C335.592 549.505 343.58 561.601 353.437 561.601C363.289 561.601 371.277 549.505 371.277 534.586C371.277 519.668 363.289 507.572 353.437 507.572C343.58 507.572 335.592 519.668 335.592 534.586Z" fill="white"/>
<path opacity="0.3" d="M822.607 311.698H652.92C652.92 311.698 652.263 300.84 648.005 288.439H815.444C815.818 289.187 816.144 289.935 816.428 290.687C818.817 296.956 820.969 303.977 822.607 311.698Z" fill="#98AEBC"/>
<path d="M673.683 535.665C673.683 538.815 673.919 541.861 674.426 544.804H386.244V514.104H678.083C675.307 520.403 673.683 527.78 673.683 535.665Z" fill="#2D2D2D"/>
<path d="M338.979 370.472C338.979 370.472 338.317 371.182 337.084 372.511C332.576 377.399 320.335 390.681 306.861 405.958C303.681 409.565 300.41 413.311 297.134 417.058C292.246 422.703 287.454 428.349 282.993 433.807L282.946 433.855C281.569 435.467 280.288 437.035 279.008 438.599C276.35 441.875 273.885 445.003 271.606 447.947C264.776 456.864 259.984 464.078 259.082 467.729C253.628 490.551 264.253 554.787 267.006 570.492H117.937C122.446 537.851 128.706 491.736 129.516 484.714C130.749 473.658 92.1788 426.214 91.5123 391.582C90.8937 356.994 113.764 332.229 117.371 298.168C119.126 282.133 117.131 261.258 114.57 243.467C113.241 234.027 111.677 225.581 110.444 219.177C109.826 216.045 110.871 213.153 112.818 211.157C113.341 210.635 113.908 210.112 114.526 209.781C116.9 208.217 119.98 207.838 122.925 209.119C131.463 212.774 140.955 222.453 143.421 246.599C143.421 246.599 150.582 251.108 162.161 258.461C166.857 261.402 172.268 264.817 178.244 268.616C182.844 271.508 187.78 274.64 192.951 277.916C193.282 278.108 193.617 278.343 193.948 278.535C196.035 279.863 198.078 281.192 200.26 282.564H200.308C201.066 283.039 201.829 283.562 202.635 284.037C204.011 284.938 205.436 285.84 206.904 286.742C207.187 286.929 207.474 287.121 207.805 287.265C217.197 293.241 227.021 299.505 236.935 305.818H236.983C238.595 306.763 240.211 307.808 241.823 308.854C243.056 309.66 244.337 310.418 245.617 311.228C247.181 312.273 248.797 313.267 250.409 314.264H250.457C261.7 321.382 272.708 328.404 283.002 334.904C284.614 335.949 286.23 336.943 287.794 337.94C289.075 338.746 290.307 339.556 291.54 340.314C293.2 341.36 294.72 342.353 296.284 343.399H296.332C315.974 355.779 331.156 365.458 336.705 369.017C338.173 369.95 338.979 370.424 338.979 370.472Z" fill="#FFD5C3"/>
<path d="M122.167 235.125C122.394 239.155 119.61 242.688 115.62 243.289L114.588 243.441C113.233 234.041 111.691 225.568 110.458 219.16C109.848 216.028 108.911 213.018 109.177 209.812C115.664 206.636 118.16 214.312 118.957 217.422C120.286 222.488 121.801 229.297 122.167 235.125Z" fill="#FFC197"/>
<path opacity="0.3" d="M297.134 417.063C292.246 422.709 287.455 428.355 282.994 433.813L282.946 433.861C281.569 435.473 280.289 437.041 279.008 438.605C276.351 441.881 273.885 445.008 271.607 447.953C264.776 456.87 259.984 464.084 259.083 467.735C253.629 490.557 264.253 554.793 267.007 570.497H170.033C188.016 543.694 190.337 496.486 190.481 474.805C190.529 469.346 192.285 462.799 195.129 455.873C200.54 442.495 209.836 427.501 218.378 415.116C226.254 403.633 233.512 394.433 236.457 390.778C236.457 390.778 236.457 390.778 236.457 390.73C237.406 389.641 237.881 389.022 237.881 389.022L291.493 386.744H291.541L292.251 390.538L292.821 393.766L295.287 407.144L297.134 417.063Z" fill="#FFD5C3"/>
<path d="M334.963 441.401L174.511 457.985C169.48 458.503 164.941 454.813 164.418 449.782L131.259 128.917C130.74 123.886 134.43 119.347 139.461 118.824L299.913 102.24C304.945 101.722 309.484 105.411 310.006 110.443L343.166 431.307C343.684 436.339 339.995 440.882 334.963 441.401Z" fill="#414141"/>
<path d="M352.287 439.61L191.835 456.194C186.804 456.712 182.265 453.022 181.742 447.991L148.583 127.126C148.064 122.095 151.754 117.556 156.785 117.033L317.237 100.449C322.269 99.9306 326.808 103.62 327.331 108.652L360.49 429.516C361.008 434.548 357.319 439.091 352.287 439.61Z" fill="#2D2D2D"/>
<path opacity="0.2" d="M266.527 120.496C266.423 119.502 265.525 118.771 264.532 118.875L218.069 123.676C217.076 123.78 216.344 124.678 216.448 125.671C216.553 126.664 217.45 127.396 218.444 127.291L264.907 122.491C265.9 122.386 266.632 121.489 266.527 120.496Z" fill="white"/>
<path opacity="0.2" d="M209.818 124.529C208.825 124.634 208.093 125.531 208.197 126.525C208.302 127.518 209.199 128.25 210.193 128.145C211.186 128.041 211.918 127.143 211.813 126.15C211.709 125.157 210.811 124.425 209.818 124.529Z" fill="white"/>
<path d="M284 427.731C283.334 421.292 277.575 416.61 271.136 417.276C264.698 417.943 260.015 423.701 260.681 430.14C261.348 436.578 267.107 441.261 273.545 440.595C279.984 439.928 284.667 434.169 284 427.731Z" fill="white"/>
<path d="M313.905 127.98L165.297 143.338L193.648 417.663L342.256 402.305L313.905 127.98Z" fill="#EDFFEA"/>
<path d="M338.969 370.478L190.36 385.836L193.651 417.68L342.26 402.322L338.969 370.478Z" fill="#31EB0A"/>
<path d="M238.212 392.241L314.907 384.312C315.796 384.221 316.445 383.419 316.353 382.535C316.262 381.646 315.46 380.997 314.576 381.089L237.881 389.017C236.992 389.108 236.343 389.91 236.434 390.794C236.526 391.683 237.327 392.332 238.212 392.241Z" fill="white"/>
<path d="M317.085 389.601C316.993 388.713 316.192 388.064 315.307 388.155L238.612 396.083C237.723 396.175 237.074 396.976 237.166 397.861C237.257 398.749 238.059 399.398 238.943 399.307L315.638 391.379C316.527 391.287 317.176 390.486 317.085 389.601Z" fill="white"/>
<path d="M226.159 385.274C226.063 384.181 225.78 383.187 225.353 382.238C223.597 377.825 219.088 374.98 214.157 375.503C209.222 376.026 205.379 379.724 204.526 384.377C204.338 385.422 204.29 386.463 204.382 387.557C205.001 393.533 217.285 405.774 217.285 405.774C217.285 405.774 226.777 391.299 226.159 385.274ZM215.769 391.395C212.972 391.678 210.454 389.639 210.171 386.838C210.075 385.701 210.315 384.608 210.833 383.706C211.639 382.329 213.064 381.38 214.724 381.192C216.431 381.001 217.995 381.667 219.041 382.852C219.755 383.61 220.225 384.608 220.369 385.745C220.657 388.594 218.614 391.111 215.769 391.395Z" fill="#2D2D2D"/>
<path d="M193.612 252.807L279.299 243.951L271.997 173.295L186.309 182.151L193.612 252.807Z" fill="#768792"/>
<path d="M301.28 170.272L229.151 177.727L236.453 248.382L308.582 240.928L301.28 170.272Z" fill="#627480"/>
<path opacity="0.4" d="M306.731 223.011L308.582 240.928L236.452 248.382L229.151 177.729L306.731 223.011Z" fill="#93A3AD"/>
<path d="M191.81 234.886L205.389 233.483L203.799 229.785L204.709 226.932L191.131 228.334L191.81 234.886Z" fill="#31EB0A"/>
<path d="M188.87 206.427L202.448 205.024L200.854 201.33L201.769 198.473L188.19 199.88L188.87 206.427Z" fill="#31EB0A"/>
<path d="M303.791 194.552L290.213 195.954L291.014 192.012L289.533 189.403L303.111 188L303.791 194.552Z" fill="#31EB0A"/>
<path d="M206.516 272.93C206.089 272.647 205.614 272.407 205.092 272.172C203.763 271.649 202.243 271.414 200.679 271.553C196.976 271.932 193.988 274.542 192.946 277.913C192.567 279.05 192.424 280.287 192.567 281.568C193.09 286.552 197.595 290.202 202.578 289.679C204.617 289.488 206.42 288.638 207.797 287.262C209.835 285.458 211.02 282.661 210.689 279.669C210.406 276.82 208.794 274.354 206.516 272.93ZM206.895 286.735C205.71 287.776 204.19 288.442 202.482 288.634C198.069 289.061 194.083 285.881 193.656 281.468C193.561 280.47 193.657 279.473 193.94 278.527C194.746 275.395 197.403 272.93 200.818 272.599C202.147 272.455 203.427 272.647 204.564 273.169C205.135 273.361 205.653 273.644 206.128 273.975C208.028 275.256 209.404 277.347 209.639 279.813C209.931 282.513 208.842 285.075 206.895 286.735Z" fill="#DAF5D6"/>
<path d="M196.37 276.484L202.142 285.462L209.87 263.236L201.467 278.923L196.37 276.484Z" fill="#31EB0A"/>
<path d="M214.157 313.116C213.874 310.224 212.258 307.802 209.984 306.334C209.557 306.051 209.034 305.811 208.559 305.576C207.183 305.053 205.715 304.818 204.146 304.961C199.163 305.484 195.512 309.989 196.035 314.972C196.558 319.956 201.019 323.606 206.046 323.083C211.025 322.604 214.675 318.095 214.157 313.116ZM205.898 322.033C201.485 322.508 197.547 319.28 197.072 314.867C196.645 310.455 199.869 306.469 204.286 306.042C205.614 305.898 206.895 306.09 208.032 306.565C208.603 306.752 209.126 307.039 209.596 307.37C211.495 308.651 212.872 310.738 213.107 313.208C213.538 317.621 210.31 321.559 205.898 322.033Z" fill="#DAF5D6"/>
<path d="M199.82 309.892L205.592 318.87L213.325 296.645L204.917 312.331L199.82 309.892Z" fill="#31EB0A"/>
<path d="M217.616 346.514C217.093 341.482 212.589 337.832 207.605 338.355C202.622 338.877 198.971 343.382 199.494 348.365C200.017 353.392 204.478 356.999 209.505 356.524C214.488 356.001 218.139 351.497 217.616 346.514ZM209.361 355.435C204.948 355.91 201.01 352.682 200.535 348.269C200.108 343.856 203.288 339.87 207.701 339.444C212.114 338.969 216.1 342.197 216.527 346.61C217.002 351.022 213.774 354.96 209.361 355.435Z" fill="#DAF5D6"/>
<path d="M309.784 268.006L223.989 276.871C223.122 276.962 222.334 276.322 222.247 275.455L222.212 275.106C222.12 274.235 222.761 273.451 223.628 273.364L309.423 264.499C310.294 264.407 311.078 265.048 311.165 265.915L311.2 266.263C311.292 267.13 310.651 267.914 309.784 268.006Z" fill="#DAF5D6"/>
<path d="M310.429 274.253L224.634 283.122C223.762 283.21 222.978 282.574 222.891 281.707L222.856 281.358C222.765 280.491 223.405 279.703 224.272 279.616L310.067 270.751C310.939 270.659 311.723 271.3 311.81 272.167L311.845 272.515C311.936 273.378 311.3 274.162 310.429 274.253Z" fill="#DAF5D6"/>
<path d="M313.242 301.471L227.447 310.335C226.576 310.427 225.792 309.787 225.705 308.92L225.67 308.571C225.578 307.704 226.219 306.916 227.086 306.829L312.881 297.964C313.748 297.872 314.532 298.513 314.623 299.38L314.658 299.728C314.745 300.595 314.109 301.379 313.242 301.471Z" fill="#DAF5D6"/>
<path d="M313.887 307.717L228.092 316.581C227.225 316.673 226.441 316.033 226.349 315.166L226.314 314.817C226.223 313.946 226.863 313.162 227.73 313.075L313.525 304.21C314.397 304.118 315.181 304.759 315.268 305.626L315.303 305.974C315.394 306.841 314.754 307.625 313.887 307.717Z" fill="#DAF5D6"/>
<path d="M316.701 334.931L230.906 343.801C230.039 343.892 229.251 343.252 229.164 342.385L229.129 342.036C229.037 341.17 229.678 340.385 230.545 340.294L316.34 331.425C317.211 331.333 317.995 331.974 318.082 332.84L318.117 333.189C318.204 334.06 317.568 334.844 316.701 334.931Z" fill="#DAF5D6"/>
<path d="M317.346 341.178L231.551 350.047C230.679 350.138 229.895 349.498 229.808 348.631L229.773 348.283C229.682 347.411 230.322 346.627 231.189 346.54L316.984 337.671C317.856 337.579 318.64 338.22 318.727 339.087L318.762 339.435C318.853 340.306 318.213 341.09 317.346 341.178Z" fill="#DAF5D6"/>
<path d="M331.909 153.278C331.909 153.278 355.197 132.586 370.475 144.33C385.752 156.074 336.109 193.903 336.109 193.903L331.909 153.278Z" fill="#FFD5C3"/>
<path d="M358.857 238.205L331.792 253.177C323.946 257.516 313.975 254.65 309.636 246.804L305.214 238.815C300.876 230.969 303.742 220.998 311.588 216.659L338.648 201.687C346.494 197.348 356.465 200.215 360.804 208.06L365.225 216.049C369.569 223.895 366.702 233.862 358.857 238.205Z" fill="#FFD5C3"/>
<path d="M363.54 283.545L336.479 298.517C328.634 302.856 318.662 299.99 314.323 292.144L309.902 284.155C305.563 276.309 308.43 266.338 316.275 261.999L343.34 247.027C351.186 242.688 361.157 245.555 365.496 253.4L369.917 261.389C374.256 269.239 371.385 279.206 363.54 283.545Z" fill="#FFD5C3"/>
<path d="M368.1 327.666L341.04 342.638C333.194 346.977 323.223 344.111 318.884 336.265L314.462 328.276C310.124 320.43 312.99 310.459 320.836 306.12L347.901 291.148C355.746 286.809 365.718 289.676 370.056 297.521L374.478 305.51C378.812 313.356 375.946 323.327 368.1 327.666Z" fill="#FFD5C3"/>
<path d="M306.495 228.117C310.695 224.959 316.423 220.982 321.672 218.477C325.301 216.743 329.644 217.985 331.709 221.439L337.642 231.354C339.703 234.795 338.64 239.26 335.229 241.364C331.038 243.948 325.144 247.324 319.115 249.929C314.885 251.754 309.958 250.059 307.693 246.047L304.091 239.661C301.882 235.749 302.901 230.818 306.495 228.117Z" fill="#FFC197"/>
<path d="M311.308 274.707C315.508 271.549 321.236 267.576 326.486 265.067C330.114 263.333 334.457 264.575 336.522 268.029L342.455 277.944C344.516 281.385 343.453 285.85 340.042 287.954C335.851 290.537 329.957 293.914 323.928 296.519C319.703 298.344 314.772 296.649 312.511 292.637L308.908 286.251C306.695 282.343 307.719 277.408 311.308 274.707Z" fill="#FFC197"/>
<path d="M316.68 318.377C320.879 315.219 326.608 311.246 331.857 308.737C335.485 307.003 339.829 308.244 341.893 311.699L347.827 321.614C349.887 325.055 348.824 329.52 345.413 331.624C341.223 334.207 335.329 337.583 329.3 340.188C325.07 342.014 320.143 340.319 317.878 336.307L314.275 329.921C312.067 326.009 313.09 321.078 316.68 318.377Z" fill="#FFC197"/>
<path opacity="0.3" d="M491.806 373.949C491.519 373.949 491.233 373.824 491.035 373.586L489.788 372.073C489.437 371.645 489.497 371.016 489.921 370.664C490.349 370.313 490.978 370.374 491.329 370.798L492.576 372.307C492.927 372.735 492.871 373.364 492.443 373.715C492.258 373.873 492.032 373.949 491.806 373.949ZM488.86 370.374C488.569 370.374 488.283 370.249 488.085 370.007C487.528 369.325 486.963 368.639 486.39 367.937C486.039 367.509 486.104 366.879 486.531 366.528C486.959 366.177 487.589 366.242 487.94 366.669C488.509 367.368 489.074 368.054 489.631 368.736C489.982 369.163 489.917 369.793 489.493 370.144C489.308 370.301 489.086 370.374 488.86 370.374ZM485.486 366.238C485.196 366.238 484.905 366.113 484.707 365.866C484.151 365.18 483.594 364.486 483.029 363.784C482.682 363.352 482.754 362.723 483.182 362.376C483.614 362.029 484.243 362.101 484.59 362.529C485.151 363.231 485.708 363.921 486.261 364.607C486.608 365.035 486.543 365.669 486.112 366.016C485.93 366.165 485.708 366.238 485.486 366.238ZM482.145 362.069C481.85 362.069 481.556 361.94 481.358 361.69C480.809 360.996 480.256 360.298 479.704 359.587C479.361 359.152 479.437 358.522 479.873 358.183C480.309 357.844 480.938 357.917 481.277 358.353C481.83 359.059 482.379 359.757 482.928 360.447C483.271 360.879 483.198 361.508 482.766 361.851C482.581 361.996 482.363 362.069 482.145 362.069ZM478.852 357.864C478.553 357.864 478.255 357.731 478.061 357.477C477.52 356.775 476.976 356.068 476.431 355.354C476.096 354.914 476.181 354.285 476.621 353.95C477.06 353.615 477.69 353.7 478.025 354.14C478.566 354.85 479.11 355.556 479.647 356.25C479.986 356.686 479.905 357.315 479.469 357.654C479.28 357.796 479.066 357.864 478.852 357.864ZM475.612 353.615C475.309 353.615 475.006 353.478 474.813 353.215C474.28 352.505 473.747 351.791 473.211 351.069C472.884 350.625 472.977 349.999 473.42 349.668C473.864 349.338 474.49 349.434 474.821 349.878C475.353 350.597 475.882 351.307 476.415 352.013C476.746 352.453 476.657 353.082 476.217 353.413C476.031 353.55 475.822 353.615 475.612 353.615ZM472.436 349.325C472.125 349.325 471.822 349.184 471.625 348.914C471.1 348.196 470.58 347.469 470.059 346.743C469.736 346.295 469.841 345.669 470.289 345.347C470.737 345.024 471.362 345.129 471.685 345.581C472.206 346.307 472.722 347.025 473.243 347.739C473.57 348.187 473.469 348.813 473.021 349.136C472.847 349.261 472.642 349.325 472.436 349.325ZM469.329 344.979C469.014 344.979 468.703 344.83 468.509 344.552C467.997 343.825 467.488 343.091 466.98 342.352C466.665 341.896 466.782 341.275 467.238 340.96C467.694 340.645 468.316 340.762 468.63 341.218C469.135 341.953 469.643 342.679 470.148 343.406C470.467 343.857 470.358 344.483 469.902 344.802C469.728 344.919 469.53 344.979 469.329 344.979ZM466.302 340.581C465.979 340.581 465.664 340.427 465.471 340.141C464.974 339.402 464.478 338.66 463.986 337.909C463.683 337.449 463.808 336.828 464.272 336.521C464.732 336.219 465.354 336.344 465.66 336.808C466.149 337.55 466.641 338.289 467.137 339.023C467.448 339.483 467.323 340.105 466.867 340.411C466.689 340.524 466.496 340.581 466.302 340.581ZM463.364 336.122C463.037 336.122 462.715 335.96 462.521 335.662C462.037 334.911 461.556 334.16 461.08 333.402C460.786 332.934 460.927 332.316 461.395 332.022C461.863 331.727 462.481 331.868 462.775 332.336C463.247 333.087 463.723 333.838 464.204 334.58C464.502 335.044 464.369 335.666 463.905 335.964C463.736 336.069 463.55 336.122 463.364 336.122ZM460.519 331.602C460.184 331.602 459.854 331.433 459.664 331.126C459.196 330.367 458.736 329.601 458.276 328.83C457.993 328.354 458.147 327.74 458.623 327.458C459.099 327.175 459.712 327.329 459.995 327.805C460.451 328.567 460.911 329.326 461.371 330.077C461.661 330.549 461.512 331.166 461.04 331.453C460.879 331.554 460.697 331.602 460.519 331.602ZM457.783 327.018C457.436 327.018 457.101 326.84 456.916 326.518C456.468 325.747 456.024 324.968 455.584 324.189C455.314 323.709 455.483 323.096 455.963 322.825C456.444 322.555 457.057 322.724 457.327 323.204C457.763 323.975 458.203 324.746 458.647 325.509C458.925 325.985 458.76 326.598 458.284 326.877C458.126 326.974 457.953 327.018 457.783 327.018ZM455.16 322.365C454.805 322.365 454.462 322.175 454.281 321.845C453.853 321.058 453.425 320.267 453.006 319.472C452.747 318.983 452.933 318.378 453.421 318.12C453.909 317.862 454.515 318.047 454.773 318.536C455.189 319.322 455.608 320.105 456.036 320.884C456.302 321.368 456.121 321.978 455.637 322.244C455.487 322.325 455.322 322.365 455.16 322.365ZM452.659 317.632C452.295 317.632 451.944 317.434 451.767 317.087C451.359 316.288 450.96 315.485 450.56 314.682C450.318 314.185 450.52 313.584 451.016 313.342C451.512 313.1 452.114 313.302 452.356 313.798C452.747 314.593 453.143 315.388 453.546 316.179C453.796 316.671 453.603 317.272 453.11 317.527C452.969 317.595 452.812 317.632 452.659 317.632ZM450.302 312.83C449.927 312.83 449.567 312.62 449.398 312.257C449.015 311.445 448.639 310.634 448.268 309.815C448.042 309.311 448.264 308.718 448.768 308.492C449.273 308.266 449.866 308.487 450.092 308.992C450.459 309.799 450.831 310.602 451.206 311.405C451.44 311.905 451.226 312.503 450.73 312.737C450.588 312.801 450.443 312.83 450.302 312.83ZM448.099 307.963C447.711 307.963 447.344 307.737 447.179 307.358C446.823 306.534 446.472 305.711 446.133 304.88C445.923 304.367 446.166 303.782 446.678 303.572C447.191 303.363 447.776 303.605 447.986 304.117C448.325 304.936 448.668 305.752 449.019 306.563C449.237 307.071 449.006 307.66 448.498 307.878C448.365 307.935 448.232 307.963 448.099 307.963ZM446.061 303.02C445.661 303.02 445.282 302.777 445.129 302.382C444.802 301.547 444.483 300.711 444.172 299.868C443.978 299.347 444.245 298.774 444.765 298.581C445.286 298.387 445.859 298.653 446.053 299.17C446.359 299.997 446.674 300.824 446.997 301.648C447.199 302.164 446.944 302.741 446.428 302.943C446.307 302.999 446.182 303.02 446.061 303.02ZM444.208 298.016C443.793 298.016 443.405 297.757 443.264 297.342C442.97 296.494 442.683 295.647 442.405 294.791C442.235 294.267 442.522 293.702 443.046 293.528C443.571 293.359 444.136 293.645 444.309 294.17C444.584 295.009 444.866 295.849 445.157 296.68C445.338 297.201 445.064 297.774 444.539 297.955C444.426 297.996 444.317 298.016 444.208 298.016ZM442.554 292.939C442.126 292.939 441.727 292.661 441.598 292.229C441.339 291.374 441.085 290.502 440.843 289.646C440.694 289.114 441.004 288.561 441.537 288.412C442.07 288.262 442.623 288.573 442.772 289.106C443.01 289.949 443.256 290.805 443.514 291.648C443.676 292.177 443.377 292.737 442.849 292.895C442.748 292.923 442.651 292.939 442.554 292.939ZM441.113 287.798C440.665 287.798 440.262 287.5 440.145 287.048C439.923 286.176 439.705 285.296 439.507 284.433C439.382 283.896 439.717 283.355 440.254 283.23C440.795 283.105 441.331 283.44 441.456 283.977C441.654 284.824 441.864 285.692 442.086 286.547C442.223 287.084 441.9 287.629 441.364 287.766C441.279 287.79 441.194 287.798 441.113 287.798ZM439.907 282.601C439.443 282.601 439.027 282.274 438.926 281.802C438.745 280.922 438.571 280.03 438.41 279.158C438.309 278.614 438.672 278.093 439.213 277.992C439.757 277.891 440.278 278.255 440.379 278.799C440.536 279.659 440.706 280.531 440.883 281.394C440.996 281.935 440.649 282.463 440.109 282.576C440.04 282.593 439.971 282.601 439.907 282.601ZM438.946 277.347C438.462 277.347 438.034 276.996 437.958 276.499C437.82 275.611 437.691 274.716 437.574 273.832C437.502 273.283 437.889 272.783 438.438 272.71C438.987 272.641 439.487 273.025 439.56 273.574C439.673 274.441 439.798 275.321 439.935 276.192C440.02 276.737 439.649 277.25 439.1 277.334C439.051 277.343 438.999 277.347 438.946 277.347ZM438.256 272.048C437.752 272.048 437.316 271.665 437.264 271.152C437.171 270.256 437.09 269.353 437.021 268.465C436.981 267.912 437.393 267.432 437.942 267.391C438.49 267.343 438.975 267.763 439.015 268.311C439.084 269.183 439.16 270.067 439.253 270.947C439.31 271.495 438.91 271.988 438.361 272.044C438.325 272.048 438.293 272.048 438.256 272.048ZM437.849 266.721C437.32 266.721 436.876 266.306 436.848 265.769C436.804 264.869 436.771 263.961 436.755 263.069C436.743 262.517 437.183 262.061 437.736 262.049C438.289 262.024 438.745 262.476 438.757 263.029C438.773 263.905 438.805 264.793 438.85 265.672C438.878 266.225 438.45 266.693 437.897 266.721C437.881 266.717 437.865 266.721 437.849 266.721ZM437.74 261.371C437.736 261.371 437.736 261.371 437.732 261.371C437.179 261.367 436.735 260.915 436.739 260.362C436.747 259.462 436.767 258.554 436.8 257.662C436.82 257.109 437.28 256.686 437.837 256.698C438.389 256.718 438.821 257.182 438.801 257.735C438.769 258.606 438.749 259.494 438.741 260.374C438.737 260.931 438.289 261.371 437.74 261.371ZM437.942 256.032C437.917 256.032 437.897 256.032 437.873 256.028C437.32 255.991 436.904 255.515 436.941 254.962C437.001 254.067 437.074 253.159 437.163 252.267C437.215 251.718 437.707 251.314 438.256 251.367C438.805 251.419 439.209 251.908 439.156 252.461C439.071 253.332 438.999 254.22 438.942 255.096C438.902 255.628 438.462 256.032 437.942 256.032ZM438.454 250.713C438.414 250.713 438.369 250.709 438.325 250.705C437.776 250.637 437.389 250.132 437.457 249.587C437.57 248.7 437.699 247.8 437.837 246.916C437.921 246.371 438.434 246 438.983 246.085C439.527 246.169 439.903 246.682 439.814 247.231C439.677 248.094 439.552 248.974 439.443 249.842C439.382 250.346 438.95 250.713 438.454 250.713ZM439.289 245.443C439.229 245.443 439.164 245.439 439.104 245.427C438.559 245.326 438.204 244.801 438.305 244.257C438.47 243.377 438.652 242.489 438.845 241.613C438.967 241.073 439.499 240.73 440.04 240.851C440.581 240.968 440.92 241.504 440.803 242.045C440.613 242.901 440.435 243.768 440.274 244.632C440.181 245.108 439.757 245.443 439.289 245.443ZM440.439 240.233C440.359 240.233 440.274 240.225 440.193 240.201C439.657 240.064 439.334 239.523 439.467 238.986C439.685 238.123 439.923 237.243 440.169 236.38C440.322 235.847 440.875 235.54 441.404 235.69C441.937 235.843 442.243 236.396 442.094 236.924C441.852 237.768 441.622 238.627 441.408 239.471C441.295 239.931 440.887 240.233 440.439 240.233ZM441.9 235.104C441.799 235.104 441.698 235.088 441.598 235.056C441.069 234.891 440.778 234.326 440.948 233.801C441.218 232.954 441.505 232.09 441.803 231.243C441.985 230.722 442.558 230.448 443.079 230.629C443.599 230.811 443.874 231.384 443.692 231.904C443.401 232.736 443.119 233.575 442.857 234.406C442.719 234.83 442.324 235.104 441.9 235.104ZM443.664 230.064C443.547 230.064 443.426 230.044 443.305 230C442.788 229.802 442.53 229.225 442.727 228.708C443.046 227.877 443.381 227.034 443.728 226.202C443.942 225.694 444.527 225.452 445.036 225.662C445.544 225.876 445.786 226.461 445.576 226.969C445.237 227.78 444.911 228.607 444.596 229.419C444.443 229.822 444.063 230.064 443.664 230.064ZM445.714 225.141C445.576 225.141 445.435 225.113 445.302 225.052C444.798 224.826 444.572 224.233 444.798 223.729C445.165 222.914 445.548 222.094 445.936 221.287C446.178 220.791 446.775 220.581 447.271 220.823C447.768 221.065 447.978 221.663 447.735 222.159C447.352 222.95 446.977 223.757 446.618 224.552C446.46 224.919 446.093 225.141 445.714 225.141ZM448.034 220.335C447.881 220.335 447.723 220.299 447.574 220.222C447.082 219.968 446.892 219.362 447.146 218.874C447.554 218.083 447.982 217.284 448.417 216.497C448.684 216.013 449.293 215.836 449.777 216.102C450.262 216.368 450.439 216.978 450.173 217.462C449.749 218.233 449.329 219.019 448.93 219.79C448.744 220.137 448.397 220.335 448.034 220.335ZM450.609 215.662C450.435 215.662 450.262 215.618 450.104 215.525C449.628 215.246 449.467 214.633 449.745 214.157C450.193 213.394 450.661 212.615 451.133 211.849C451.424 211.38 452.041 211.235 452.509 211.526C452.977 211.816 453.123 212.434 452.832 212.902C452.368 213.652 451.908 214.415 451.468 215.166C451.287 215.484 450.952 215.662 450.609 215.662ZM453.417 211.126C453.232 211.126 453.038 211.074 452.872 210.965C452.408 210.662 452.279 210.041 452.582 209.581C453.066 208.838 453.571 208.084 454.079 207.345C454.394 206.889 455.015 206.772 455.471 207.087C455.927 207.402 456.04 208.023 455.729 208.479C455.229 209.205 454.733 209.944 454.257 210.674C454.063 210.965 453.744 211.126 453.417 211.126ZM456.44 206.728C456.238 206.728 456.032 206.667 455.855 206.538C455.407 206.215 455.306 205.59 455.629 205.142C456.149 204.419 456.686 203.693 457.227 202.979C457.561 202.539 458.187 202.45 458.627 202.785C459.067 203.12 459.155 203.746 458.821 204.185C458.288 204.888 457.759 205.606 457.247 206.312C457.057 206.582 456.75 206.728 456.44 206.728ZM459.656 202.47C459.438 202.47 459.22 202.402 459.034 202.257C458.603 201.914 458.526 201.284 458.869 200.852C459.418 200.158 459.987 199.456 460.56 198.758C460.911 198.33 461.54 198.27 461.968 198.621C462.396 198.972 462.456 199.601 462.105 200.029C461.54 200.715 460.979 201.405 460.443 202.091C460.245 202.337 459.95 202.47 459.656 202.47ZM463.05 198.35C462.82 198.35 462.586 198.27 462.396 198.108C461.976 197.749 461.928 197.115 462.287 196.696C462.868 196.022 463.457 195.348 464.058 194.674C464.426 194.262 465.059 194.226 465.471 194.593C465.882 194.961 465.919 195.594 465.551 196.006C464.958 196.672 464.377 197.333 463.804 197.999C463.615 198.233 463.332 198.35 463.05 198.35ZM466.605 194.371C466.363 194.371 466.116 194.283 465.923 194.105C465.519 193.73 465.495 193.096 465.87 192.689C466.476 192.039 467.089 191.385 467.714 190.736C468.098 190.336 468.731 190.324 469.131 190.707C469.53 191.091 469.542 191.724 469.159 192.124C468.542 192.765 467.936 193.407 467.339 194.049C467.141 194.262 466.875 194.371 466.605 194.371ZM470.305 190.526C470.051 190.526 469.793 190.429 469.599 190.235C469.208 189.844 469.208 189.21 469.595 188.819C470.22 188.189 470.858 187.56 471.508 186.934C471.903 186.551 472.537 186.559 472.924 186.954C473.307 187.35 473.299 187.983 472.904 188.371C472.266 188.992 471.637 189.614 471.015 190.231C470.818 190.429 470.563 190.526 470.305 190.526ZM474.139 186.809C473.872 186.809 473.606 186.704 473.408 186.494C473.029 186.091 473.049 185.457 473.453 185.078C474.098 184.469 474.756 183.863 475.426 183.258C475.834 182.887 476.467 182.915 476.838 183.327C477.21 183.734 477.181 184.368 476.77 184.739C476.112 185.34 475.462 185.938 474.821 186.539C474.627 186.72 474.381 186.809 474.139 186.809ZM478.085 183.218C477.807 183.218 477.533 183.105 477.335 182.879C476.968 182.463 477.008 181.834 477.424 181.466C478.089 180.881 478.763 180.292 479.449 179.707C479.869 179.348 480.503 179.396 480.862 179.816C481.221 180.236 481.172 180.869 480.753 181.228C480.075 181.809 479.409 182.386 478.751 182.967C478.557 183.137 478.319 183.218 478.085 183.218ZM482.141 179.747C481.854 179.747 481.568 179.626 481.37 179.388C481.015 178.964 481.076 178.331 481.499 177.98C482.181 177.411 482.871 176.846 483.573 176.281C484.001 175.934 484.635 175.998 484.982 176.43C485.329 176.858 485.264 177.491 484.832 177.839C484.138 178.399 483.456 178.96 482.778 179.521C482.593 179.671 482.363 179.747 482.141 179.747ZM486.273 176.37C485.987 176.37 485.704 176.249 485.506 176.011C485.151 175.587 485.208 174.957 485.631 174.602C486.305 174.037 486.975 173.456 487.625 172.875C488.037 172.508 488.67 172.54 489.037 172.956C489.405 173.367 489.372 174.001 488.957 174.368C488.291 174.961 487.605 175.559 486.915 176.136C486.725 176.293 486.499 176.37 486.273 176.37ZM490.248 172.81C489.986 172.81 489.719 172.706 489.526 172.5C489.142 172.1 489.158 171.467 489.558 171.083C490.191 170.478 490.825 169.857 491.434 169.231C491.822 168.836 492.455 168.828 492.851 169.215C493.246 169.602 493.254 170.236 492.867 170.631C492.241 171.269 491.596 171.911 490.946 172.532C490.744 172.718 490.494 172.81 490.248 172.81ZM493.981 168.997C493.739 168.997 493.496 168.912 493.307 168.735C492.899 168.363 492.871 167.73 493.242 167.322C493.835 166.673 494.421 166.011 494.985 165.349C495.345 164.929 495.974 164.877 496.398 165.236C496.818 165.595 496.87 166.225 496.511 166.648C495.93 167.326 495.328 168.008 494.723 168.674C494.521 168.888 494.251 168.997 493.981 168.997ZM497.439 164.937C497.221 164.937 497.003 164.865 496.817 164.72C496.386 164.377 496.313 163.747 496.656 163.315C497.201 162.629 497.738 161.927 498.254 161.225C498.581 160.781 499.206 160.684 499.654 161.011C500.098 161.338 500.195 161.963 499.868 162.411C499.336 163.134 498.783 163.856 498.226 164.558C498.028 164.808 497.734 164.937 497.439 164.937ZM500.603 160.64C500.409 160.64 500.211 160.583 500.042 160.466C499.586 160.156 499.469 159.534 499.779 159.074C500.272 158.352 500.756 157.613 501.224 156.871C501.519 156.403 502.136 156.261 502.604 156.556C503.072 156.851 503.214 157.468 502.919 157.936C502.439 158.695 501.942 159.457 501.438 160.2C501.236 160.486 500.921 160.64 500.603 160.64ZM503.444 156.124C503.274 156.124 503.101 156.08 502.943 155.987C502.463 155.709 502.302 155.099 502.58 154.619C503.016 153.864 503.448 153.09 503.859 152.319C504.117 151.831 504.723 151.645 505.211 151.903C505.699 152.162 505.885 152.771 505.627 153.255C505.203 154.05 504.763 154.845 504.315 155.62C504.126 155.947 503.791 156.124 503.444 156.124ZM505.95 151.419C505.804 151.419 505.655 151.387 505.514 151.318C505.017 151.076 504.808 150.479 505.05 149.982C505.433 149.196 505.804 148.392 506.155 147.598C506.377 147.093 506.97 146.863 507.475 147.085C507.979 147.307 508.209 147.9 507.987 148.405C507.628 149.22 507.245 150.047 506.853 150.854C506.676 151.209 506.321 151.419 505.95 151.419ZM508.1 146.54C507.975 146.54 507.85 146.516 507.729 146.468C507.217 146.262 506.966 145.681 507.168 145.168C507.491 144.357 507.806 143.53 508.1 142.707C508.286 142.186 508.859 141.916 509.38 142.101C509.9 142.287 510.17 142.86 509.985 143.381C509.682 144.224 509.359 145.075 509.028 145.907C508.875 146.302 508.5 146.54 508.1 146.54ZM509.9 141.52C509.799 141.52 509.698 141.504 509.597 141.472C509.069 141.302 508.778 140.741 508.948 140.213C509.214 139.381 509.468 138.534 509.702 137.691C509.852 137.158 510.405 136.847 510.937 136.997C511.47 137.146 511.781 137.699 511.631 138.231C511.389 139.095 511.127 139.967 510.857 140.822C510.715 141.25 510.324 141.52 509.9 141.52ZM511.341 136.387C511.264 136.387 511.183 136.379 511.103 136.359C510.566 136.23 510.235 135.685 510.368 135.148C510.574 134.301 510.772 133.437 510.949 132.578C511.062 132.037 511.591 131.69 512.132 131.803C512.672 131.916 513.02 132.445 512.907 132.985C512.725 133.865 512.523 134.753 512.309 135.621C512.2 136.081 511.789 136.387 511.341 136.387ZM512.43 131.161C512.374 131.161 512.317 131.157 512.257 131.145C511.712 131.053 511.349 130.532 511.442 129.987C511.591 129.128 511.728 128.248 511.849 127.38C511.926 126.832 512.434 126.452 512.979 126.529C513.528 126.606 513.907 127.11 513.831 127.659C513.705 128.547 513.564 129.446 513.411 130.326C513.33 130.818 512.906 131.161 512.43 131.161ZM513.173 125.875C513.137 125.875 513.1 125.875 513.064 125.871C512.515 125.811 512.116 125.318 512.176 124.769C512.269 123.906 512.354 123.018 512.418 122.142C512.463 121.59 512.943 121.178 513.492 121.222C514.044 121.267 514.456 121.747 514.412 122.296C514.343 123.196 514.258 124.1 514.162 124.987C514.109 125.492 513.677 125.875 513.173 125.875ZM513.584 120.548C513.568 120.548 513.552 120.548 513.536 120.548C512.983 120.524 512.555 120.052 512.584 119.503C512.624 118.632 512.652 117.744 512.668 116.864C512.676 116.311 513.141 115.875 513.685 115.88C514.238 115.888 514.678 116.344 514.67 116.896C514.654 117.796 514.626 118.704 514.585 119.596C514.557 120.133 514.113 120.548 513.584 120.548ZM513.673 115.21C513.124 115.21 512.681 114.77 512.672 114.221C512.66 113.345 512.64 112.458 512.604 111.578C512.584 111.025 513.011 110.561 513.564 110.537C514.109 110.521 514.581 110.944 514.605 111.497C514.642 112.393 514.666 113.301 514.674 114.197C514.682 114.75 514.238 115.202 513.685 115.21C513.681 115.21 513.677 115.21 513.673 115.21ZM513.459 109.867C512.939 109.867 512.499 109.463 512.463 108.935C512.402 108.067 512.333 107.179 512.249 106.3C512.196 105.751 512.6 105.262 513.153 105.21C513.701 105.154 514.19 105.561 514.242 106.114C514.327 107.01 514.4 107.914 514.46 108.802C514.496 109.354 514.081 109.831 513.528 109.867C513.504 109.867 513.484 109.867 513.459 109.867ZM512.959 104.552C512.459 104.552 512.027 104.181 511.966 103.673C511.861 102.801 511.744 101.921 511.615 101.054C511.534 100.505 511.914 99.9963 512.459 99.9197C513.003 99.839 513.516 100.218 513.593 100.763C513.722 101.647 513.843 102.547 513.952 103.434C514.016 103.983 513.629 104.484 513.08 104.548C513.04 104.552 512.999 104.552 512.959 104.552ZM512.184 99.274C511.704 99.274 511.284 98.931 511.2 98.4427C511.05 97.5872 510.889 96.7116 510.719 95.844C510.61 95.3032 510.965 94.7746 511.506 94.6697C512.047 94.5647 512.576 94.9158 512.681 95.4566C512.854 96.3403 513.019 97.2321 513.169 98.1038C513.262 98.6485 512.898 99.1651 512.354 99.2619C512.297 99.27 512.241 99.274 512.184 99.274ZM511.151 94.0361C510.691 94.0361 510.279 93.7173 510.175 93.2532C509.985 92.3977 509.779 91.5302 509.569 90.6787C509.436 90.142 509.763 89.6012 510.3 89.4681C510.836 89.3349 511.377 89.6618 511.51 90.1985C511.724 91.0661 511.93 91.9498 512.128 92.8215C512.249 93.3622 511.906 93.8949 511.369 94.0159C511.296 94.028 511.224 94.0361 511.151 94.0361ZM509.872 88.8547C509.432 88.8547 509.029 88.5601 508.907 88.1162C508.677 87.2728 508.435 86.4133 508.185 85.5699C508.028 85.0413 508.33 84.4844 508.863 84.327C509.392 84.1696 509.949 84.4723 510.106 85.005C510.36 85.8645 510.606 86.7361 510.84 87.5957C510.986 88.1283 510.671 88.6771 510.138 88.8224C510.045 88.8426 509.957 88.8547 509.872 88.8547ZM508.355 83.7258C507.931 83.7258 507.535 83.4554 507.402 83.0276C507.136 82.1923 506.853 81.3449 506.567 80.5055C506.385 79.9809 506.664 79.4119 507.188 79.2344C507.713 79.0528 508.282 79.3312 508.46 79.8558C508.754 80.7073 509.041 81.5709 509.311 82.4183C509.48 82.9469 509.19 83.5078 508.661 83.6773C508.56 83.7096 508.456 83.7258 508.355 83.7258ZM506.615 78.6614C506.208 78.6614 505.824 78.4112 505.675 78.0076C505.368 77.1804 505.054 76.3451 504.731 75.5259C504.529 75.0094 504.783 74.4323 505.296 74.2305C505.812 74.0288 506.393 74.283 506.591 74.7955C506.918 75.6268 507.241 76.4782 507.552 77.3176C507.741 77.8382 507.475 78.4112 506.958 78.6008C506.845 78.6412 506.728 78.6614 506.615 78.6614ZM504.658 73.6777C504.267 73.6777 503.896 73.4477 503.734 73.0603C503.395 72.2492 503.044 71.426 502.689 70.6189C502.467 70.1145 502.697 69.5213 503.201 69.2993C503.706 69.0774 504.299 69.3074 504.521 69.8118C504.884 70.631 505.239 71.4663 505.582 72.2895C505.796 72.798 505.554 73.3871 505.042 73.597C504.916 73.6494 504.787 73.6777 504.658 73.6777ZM502.503 68.7788C502.124 68.7788 501.765 68.5649 501.595 68.1977C501.224 67.3987 500.841 66.5956 500.453 65.8047C500.211 65.3083 500.417 64.7071 500.913 64.4649C501.41 64.2228 502.011 64.4286 502.253 64.925C502.645 65.728 503.036 66.5472 503.415 67.3543C503.649 67.8547 503.431 68.4519 502.931 68.6819C502.786 68.7505 502.645 68.7788 502.503 68.7788ZM270.498 64.6869C270.325 64.6869 270.147 64.6425 269.99 64.5457C269.513 64.2632 269.36 63.6498 269.639 63.1736C269.659 63.1414 270.151 62.3141 271.148 60.8654C271.463 60.4094 272.084 60.2964 272.54 60.6071C272.996 60.9219 273.109 61.5434 272.798 61.9993C271.842 63.3875 271.366 64.1865 271.362 64.1946C271.172 64.5093 270.841 64.6869 270.498 64.6869ZM500.151 63.9807C499.788 63.9807 499.436 63.783 499.259 63.4359C498.855 62.649 498.444 61.8662 498.02 61.0914C497.758 60.6031 497.939 59.9978 498.424 59.7355C498.908 59.4732 499.517 59.6548 499.779 60.139C500.207 60.93 500.623 61.7209 501.034 62.5199C501.289 63.0122 501.095 63.6135 500.603 63.8677C500.461 63.9444 500.304 63.9807 500.151 63.9807ZM273.529 60.252C273.323 60.252 273.113 60.1875 272.935 60.0583C272.492 59.7315 272.395 59.102 272.722 58.6581C273.242 57.9519 273.791 57.2255 274.356 56.5032C274.695 56.0674 275.324 55.9907 275.76 56.3297C276.196 56.6686 276.273 57.2981 275.934 57.734C275.381 58.4402 274.844 59.1504 274.332 59.8445C274.138 60.1108 273.835 60.252 273.529 60.252ZM497.612 59.2795C497.265 59.2795 496.922 59.0979 496.741 58.7711C496.305 58.0003 495.861 57.2376 495.413 56.479C495.131 56.0028 495.288 55.3894 495.764 55.1069C496.24 54.8245 496.854 54.9819 497.136 55.458C497.592 56.2288 498.044 57.0036 498.484 57.7864C498.754 58.2666 498.585 58.88 498.105 59.1504C497.947 59.2351 497.778 59.2795 497.612 59.2795ZM276.813 56.031C276.592 56.031 276.366 55.9584 276.18 55.8051C275.752 55.454 275.688 54.8245 276.039 54.3967C276.596 53.7147 277.181 53.0207 277.77 52.3306C278.129 51.9109 278.763 51.8625 279.182 52.2217C279.602 52.5808 279.65 53.2144 279.291 53.634C278.71 54.312 278.137 54.994 277.588 55.6679C277.39 55.9059 277.104 56.031 276.813 56.031ZM494.893 54.6832C494.558 54.6832 494.231 54.5137 494.041 54.2071C493.577 53.4565 493.105 52.7099 492.625 51.9674C492.326 51.5034 492.459 50.8819 492.923 50.5833C493.387 50.2847 494.009 50.4178 494.307 50.8819C494.792 51.6325 495.272 52.3911 495.744 53.1538C496.035 53.626 495.889 54.2393 495.421 54.5299C495.256 54.6348 495.074 54.6832 494.893 54.6832ZM280.292 51.9715C280.054 51.9715 279.816 51.8867 279.626 51.7172C279.214 51.35 279.178 50.7165 279.545 50.3049C280.139 49.639 280.752 48.9692 281.361 48.3154C281.737 47.9119 282.37 47.8877 282.778 48.267C283.181 48.6423 283.205 49.2758 282.826 49.6834C282.225 50.3291 281.624 50.9868 281.038 51.6406C280.841 51.8585 280.566 51.9715 280.292 51.9715ZM491.995 50.204C491.672 50.204 491.358 50.0506 491.164 49.7641C490.672 49.0337 490.171 48.3074 489.663 47.585C489.344 47.1331 489.453 46.5076 489.905 46.1888C490.357 45.87 490.982 45.9789 491.301 46.4309C491.818 47.1613 492.322 47.8998 492.827 48.6423C493.137 49.1023 493.016 49.7238 492.556 50.0305C492.383 50.1475 492.189 50.204 491.995 50.204ZM283.932 48.0612C283.682 48.0612 283.427 47.9684 283.234 47.7787C282.838 47.3954 282.826 46.7618 283.214 46.3623C283.823 45.7328 284.452 45.0952 285.106 44.4495C285.498 44.0622 286.131 44.0621 286.523 44.4536C286.91 44.845 286.91 45.4786 286.518 45.87C285.877 46.5076 285.255 47.1371 284.654 47.7545C284.456 47.9603 284.194 48.0612 283.932 48.0612ZM488.928 45.8458C488.622 45.8458 488.315 45.7045 488.121 45.4382C487.601 44.728 487.072 44.0218 486.535 43.3237C486.2 42.8838 486.285 42.2543 486.721 41.9194C487.161 41.5844 487.786 41.6692 488.125 42.105C488.67 42.8152 489.203 43.5295 489.735 44.2518C490.062 44.6957 489.965 45.3252 489.522 45.6521C489.344 45.7812 489.134 45.8458 488.928 45.8458ZM287.725 44.3002C287.463 44.3002 287.196 44.1953 287.003 43.9895C286.619 43.59 286.636 42.9565 287.035 42.5731C287.673 41.9678 288.326 41.3544 289 40.733C289.408 40.3577 290.041 40.3859 290.413 40.7935C290.788 41.2011 290.76 41.8346 290.352 42.2059C289.69 42.8152 289.045 43.4205 288.415 44.0178C288.221 44.2074 287.975 44.3002 287.725 44.3002ZM485.696 41.6167C485.401 41.6167 485.111 41.4876 484.913 41.2374C484.368 40.5514 483.808 39.8613 483.247 39.1874C482.891 38.7637 482.952 38.1302 483.376 37.7791C483.803 37.424 484.433 37.4845 484.784 37.9082C485.353 38.5942 485.922 39.2923 486.475 39.9864C486.818 40.4182 486.749 41.0477 486.317 41.3948C486.132 41.5441 485.914 41.6167 485.696 41.6167ZM291.66 40.6886C291.381 40.6886 291.107 40.5756 290.909 40.3496C290.542 39.934 290.582 39.3045 290.994 38.9372C291.656 38.3521 292.329 37.767 293.024 37.1738C293.443 36.8146 294.077 36.8671 294.436 37.2868C294.795 37.7065 294.743 38.34 294.323 38.6992C293.641 39.2802 292.971 39.8613 292.321 40.4384C292.132 40.6038 291.894 40.6886 291.66 40.6886ZM482.294 37.5208C482.016 37.5208 481.733 37.4038 481.536 37.1738C480.963 36.508 480.369 35.8421 479.78 35.1884C479.409 34.7768 479.441 34.1432 479.853 33.776C480.264 33.4048 480.894 33.437 481.265 33.8486C481.862 34.5145 482.464 35.1924 483.045 35.8663C483.408 36.286 483.36 36.9155 482.944 37.2787C482.762 37.4401 482.528 37.5208 482.294 37.5208ZM295.723 37.2222C295.433 37.2222 295.146 37.0971 294.948 36.855C294.597 36.4272 294.658 35.7977 295.086 35.4466C295.768 34.8857 296.466 34.3248 297.18 33.7599C297.612 33.4169 298.241 33.4895 298.584 33.9253C298.927 34.3571 298.855 34.9866 298.419 35.3296C297.717 35.8865 297.027 36.4393 296.353 36.9922C296.171 37.1496 295.945 37.2222 295.723 37.2222ZM299.912 33.9132C299.609 33.9132 299.311 33.776 299.113 33.5177C298.778 33.0779 298.863 32.4484 299.303 32.1134C300.009 31.5767 300.723 31.04 301.457 30.5033C301.901 30.1765 302.531 30.2733 302.858 30.7172C303.185 31.1611 303.088 31.7906 302.644 32.1175C301.921 32.6461 301.215 33.1747 300.521 33.7034C300.336 33.8446 300.126 33.9132 299.912 33.9132ZM478.719 33.5581C478.453 33.5581 478.186 33.4532 477.988 33.2433C477.383 32.6017 476.766 31.9601 476.152 31.3346C475.765 30.9391 475.769 30.3056 476.165 29.9182C476.56 29.5308 477.194 29.5348 477.581 29.9303C478.206 30.5679 478.832 31.2176 479.445 31.8713C479.825 32.2748 479.804 32.9084 479.401 33.2877C479.211 33.4693 478.965 33.5581 478.719 33.5581ZM304.218 30.7575C303.903 30.7575 303.592 30.6082 303.398 30.3338C303.08 29.8819 303.189 29.2564 303.641 28.9376C304.363 28.4251 305.101 27.9167 305.852 27.4082C306.308 27.0975 306.933 27.2185 307.244 27.6745C307.555 28.1305 307.434 28.756 306.978 29.0667C306.239 29.5671 305.513 30.0715 304.799 30.576C304.621 30.697 304.419 30.7575 304.218 30.7575ZM474.978 29.7487C474.728 29.7487 474.474 29.6559 474.28 29.4662C473.65 28.8529 473.005 28.2395 472.363 27.6382C471.96 27.2629 471.935 26.6294 472.315 26.2218C472.694 25.8183 473.324 25.7941 473.731 26.1734C474.385 26.7827 475.039 27.4082 475.68 28.0296C476.076 28.417 476.084 29.0506 475.696 29.4461C475.499 29.6478 475.236 29.7487 474.978 29.7487ZM308.636 27.7552C308.309 27.7552 307.991 27.5938 307.797 27.3033C307.494 26.8392 307.623 26.2218 308.088 25.9191C308.83 25.4349 309.585 24.9507 310.351 24.4705C310.819 24.1759 311.437 24.3171 311.731 24.7852C312.026 25.2533 311.885 25.8707 311.417 26.1653C310.662 26.6415 309.916 27.1176 309.185 27.5938C309.012 27.7028 308.822 27.7552 308.636 27.7552ZM471.072 26.1088C470.834 26.1088 470.596 26.0241 470.406 25.8546C469.744 25.2654 469.074 24.6803 468.409 24.1153C467.989 23.7562 467.936 23.1267 468.296 22.703C468.655 22.2833 469.284 22.2308 469.708 22.59C470.382 23.163 471.064 23.7562 471.738 24.3575C472.149 24.7247 472.186 25.3582 471.818 25.7698C471.621 25.9958 471.346 26.1088 471.072 26.1088ZM313.156 24.9184C312.817 24.9184 312.486 24.7449 312.296 24.4341C312.01 23.962 312.163 23.3446 312.635 23.0581C313.394 22.598 314.165 22.142 314.948 21.6901C315.428 21.4116 316.037 21.5771 316.316 22.0533C316.594 22.5294 316.429 23.1428 315.952 23.4213C315.182 23.8692 314.419 24.3171 313.668 24.7691C313.511 24.87 313.333 24.9184 313.156 24.9184ZM467.004 22.6505C466.782 22.6505 466.56 22.5779 466.375 22.4286C465.693 21.8757 464.995 21.3229 464.301 20.7862C463.865 20.4472 463.78 19.8217 464.119 19.3819C464.458 18.942 465.083 18.8613 465.523 19.2003C466.229 19.745 466.94 20.306 467.638 20.8709C468.066 21.2179 468.134 21.8475 467.787 22.2793C467.585 22.5254 467.295 22.6505 467.004 22.6505ZM317.772 22.2429C317.421 22.2429 317.078 22.0573 316.897 21.7264C316.626 21.2422 316.804 20.6328 317.284 20.3665C318.059 19.9347 318.846 19.507 319.645 19.0832C320.133 18.8209 320.738 19.0066 321.001 19.4948C321.259 19.9831 321.077 20.5884 320.589 20.8507C319.802 21.2704 319.027 21.6941 318.261 22.1178C318.107 22.2026 317.938 22.2429 317.772 22.2429ZM322.486 19.7289C322.123 19.7289 321.771 19.5312 321.594 19.1841C321.344 18.6918 321.537 18.0905 322.03 17.8363C322.821 17.4328 323.624 17.0333 324.435 16.6338C324.931 16.3916 325.532 16.5975 325.775 17.0938C326.017 17.5902 325.811 18.1914 325.314 18.4336C324.515 18.825 323.725 19.2204 322.942 19.6199C322.792 19.6966 322.639 19.7289 322.486 19.7289ZM462.775 19.3899C462.569 19.3899 462.364 19.3254 462.186 19.1962C461.476 18.6757 460.749 18.1591 460.031 17.6628C459.575 17.348 459.462 16.7225 459.777 16.2706C460.092 15.8146 460.717 15.7016 461.169 16.0164C461.899 16.5208 462.638 17.0494 463.364 17.5821C463.812 17.9089 463.909 18.5344 463.582 18.9824C463.389 19.2487 463.086 19.3899 462.775 19.3899ZM327.28 17.3884C326.904 17.3884 326.541 17.1745 326.372 16.8113C326.138 16.3109 326.356 15.7137 326.856 15.4797C327.663 15.1044 328.474 14.7331 329.297 14.3619C329.802 14.1359 330.395 14.3619 330.621 14.8663C330.847 15.3707 330.621 15.9639 330.117 16.1899C329.301 16.5531 328.498 16.9203 327.703 17.2915C327.566 17.3561 327.421 17.3884 327.28 17.3884ZM458.389 16.3513C458.199 16.3513 458.009 16.2988 457.84 16.1858C457.101 15.7016 456.351 15.2254 455.608 14.7694C455.136 14.4789 454.991 13.8615 455.282 13.3934C455.572 12.9212 456.189 12.776 456.658 13.0665C457.416 13.5346 458.179 14.0189 458.934 14.5112C459.398 14.8138 459.527 15.4353 459.224 15.8953C459.034 16.1899 458.716 16.3513 458.389 16.3513ZM332.154 15.2093C331.767 15.2093 331.396 14.9793 331.234 14.6C331.016 14.0915 331.255 13.5023 331.763 13.2885C332.582 12.9414 333.409 12.5984 334.245 12.2594C334.757 12.0496 335.342 12.2998 335.548 12.8123C335.758 13.3248 335.508 13.9099 334.995 14.1157C334.172 14.4506 333.353 14.7896 332.546 15.1326C332.417 15.1851 332.284 15.2093 332.154 15.2093ZM453.845 13.5508C453.675 13.5508 453.502 13.5064 453.345 13.4176C452.586 12.9777 451.807 12.5419 451.04 12.1303C450.552 11.868 450.374 11.2587 450.637 10.7744C450.899 10.2861 451.508 10.1086 451.993 10.3709C452.78 10.7946 453.57 11.2385 454.345 11.6864C454.825 11.9649 454.987 12.5742 454.708 13.0544C454.527 13.3692 454.192 13.5508 453.845 13.5508ZM337.098 13.2037C336.694 13.2037 336.319 12.9616 336.166 12.5621C335.968 12.0456 336.222 11.4685 336.739 11.2667C337.57 10.9479 338.405 10.6332 339.253 10.3225C339.769 10.1328 340.346 10.3991 340.536 10.9157C340.726 11.4322 340.459 12.0092 339.943 12.1989C339.107 12.5056 338.28 12.8163 337.461 13.1311C337.34 13.1835 337.219 13.2037 337.098 13.2037ZM342.11 11.3676C341.694 11.3676 341.307 11.1094 341.165 10.6937C340.984 10.1732 341.262 9.60013 341.783 9.41854C342.622 9.12799 343.47 8.84148 344.325 8.55901C344.85 8.38548 345.415 8.672 345.588 9.19659C345.762 9.72119 345.475 10.2861 344.951 10.4597C344.107 10.7381 343.268 11.0206 342.437 11.3071C342.328 11.3515 342.219 11.3676 342.11 11.3676ZM449.148 11.0125C448.998 11.0125 448.845 10.9802 448.7 10.9076C447.913 10.5121 447.114 10.1247 446.323 9.76155C445.823 9.5275 445.605 8.9343 445.835 8.43391C446.069 7.93353 446.662 7.71562 447.162 7.94563C447.969 8.32092 448.785 8.71638 449.592 9.11992C450.084 9.37011 450.286 9.97138 450.036 10.4637C449.87 10.8107 449.515 11.0125 449.148 11.0125ZM347.178 9.70101C346.75 9.70101 346.355 9.42661 346.222 8.99483C346.056 8.46619 346.355 7.90528 346.879 7.74387C347.727 7.48157 348.586 7.2233 349.45 6.96907C349.979 6.81169 350.536 7.11838 350.693 7.64702C350.846 8.17968 350.544 8.73253 350.015 8.88991C349.159 9.1401 348.316 9.39433 347.477 9.65663C347.376 9.68891 347.279 9.70101 347.178 9.70101ZM444.309 8.76481C444.18 8.76481 444.047 8.7406 443.918 8.6841C443.111 8.34109 442.288 8.00616 441.477 7.6914C440.96 7.49367 440.706 6.91258 440.903 6.39605C441.101 5.87952 441.682 5.6253 442.199 5.82303C443.03 6.14586 443.874 6.48887 444.701 6.83994C445.209 7.05785 445.447 7.64298 445.229 8.15144C445.068 8.53883 444.697 8.76481 444.309 8.76481ZM352.303 8.2039C351.863 8.2039 351.46 7.91335 351.339 7.46946C351.193 6.93679 351.504 6.38394 352.041 6.23867C352.896 6.00462 353.764 5.77461 354.635 5.54863C355.172 5.41142 355.717 5.73425 355.854 6.26692C355.991 6.80362 355.669 7.3484 355.136 7.4856C354.276 7.70755 353.421 7.93352 352.573 8.16757C352.477 8.19179 352.388 8.2039 352.303 8.2039ZM357.468 6.87626C357.016 6.87626 356.605 6.56957 356.496 6.10954C356.367 5.57284 356.698 5.0321 357.234 4.90297C358.098 4.69716 358.969 4.49539 359.849 4.29766C360.39 4.1766 360.923 4.51557 361.044 5.05631C361.165 5.59705 360.826 6.12972 360.285 6.25078C359.417 6.44447 358.554 6.64221 357.702 6.84801C357.626 6.86819 357.545 6.87626 357.468 6.87626ZM439.334 6.83994C439.225 6.83994 439.112 6.8238 439.007 6.78345C438.176 6.4929 437.336 6.21849 436.505 5.96023C435.976 5.79882 435.682 5.2379 435.843 4.70927C436.005 4.18064 436.565 3.88606 437.094 4.04747C437.946 4.30977 438.809 4.59628 439.665 4.89086C440.185 5.07245 440.464 5.64144 440.282 6.16604C440.133 6.58168 439.745 6.83994 439.334 6.83994ZM362.678 5.71407C362.214 5.71407 361.798 5.38721 361.697 4.91507C361.584 4.37433 361.935 3.8457 362.476 3.73271C363.348 3.55112 364.223 3.3776 365.107 3.21215C365.648 3.10723 366.173 3.46638 366.277 4.00711C366.382 4.55189 366.023 5.07245 365.483 5.17737C364.607 5.34282 363.739 5.51634 362.88 5.6939C362.811 5.70601 362.743 5.71407 362.678 5.71407ZM434.233 5.26615C434.148 5.26615 434.059 5.25404 433.971 5.22983C433.119 4.99981 432.26 4.78594 431.416 4.59628C430.88 4.47118 430.541 3.93852 430.662 3.39778C430.787 2.85704 431.319 2.5221 431.86 2.64317C432.728 2.8409 433.612 3.06284 434.487 3.29689C435.02 3.44217 435.339 3.99097 435.193 4.52364C435.08 4.97157 434.677 5.26615 434.233 5.26615ZM367.92 4.7133C367.444 4.7133 367.02 4.3703 366.935 3.88605C366.838 3.34128 367.206 2.82475 367.75 2.7279C368.626 2.57456 369.51 2.42929 370.398 2.28805C370.942 2.20331 371.455 2.57456 371.544 3.11934C371.628 3.66411 371.257 4.1766 370.712 4.26538C369.833 4.40662 368.961 4.55189 368.093 4.7012C368.033 4.70927 367.976 4.7133 367.92 4.7133ZM429.035 4.07975C428.975 4.07975 428.91 4.07572 428.85 4.06361C427.986 3.90219 427.115 3.75692 426.259 3.63183C425.71 3.55112 425.335 3.04267 425.412 2.49789C425.492 1.94908 426.001 1.56976 426.546 1.65046C427.429 1.77959 428.325 1.92891 429.217 2.09436C429.762 2.19524 430.117 2.71983 430.016 3.26461C429.927 3.74482 429.508 4.07975 429.035 4.07975ZM373.19 3.87799C372.702 3.87799 372.274 3.51884 372.201 3.01845C372.125 2.46964 372.504 1.96522 373.049 1.88451C373.929 1.75942 374.816 1.63836 375.708 1.52537C376.253 1.45273 376.757 1.84416 376.83 2.39297C376.899 2.94178 376.511 3.44216 375.962 3.5148C375.079 3.62779 374.203 3.74482 373.331 3.86991C373.287 3.87395 373.238 3.87799 373.19 3.87799ZM423.757 3.309C423.721 3.309 423.685 3.309 423.648 3.30496C422.765 3.20812 421.881 3.11933 421.005 3.03459C420.456 2.98213 420.053 2.49385 420.105 1.94101C420.158 1.3922 420.646 0.988665 421.199 1.04112C422.083 1.12587 422.97 1.21868 423.866 1.31553C424.415 1.37606 424.814 1.86837 424.754 2.41718C424.693 2.92967 424.262 3.309 423.757 3.309ZM378.484 3.20004C377.984 3.20004 377.548 2.82475 377.492 2.31226C377.431 1.76345 377.823 1.2671 378.376 1.20657C379.259 1.10569 380.147 1.01287 381.043 0.924096C381.596 0.871636 382.084 1.27114 382.136 1.82398C382.189 2.37279 381.789 2.86511 381.237 2.91757C380.353 3.00635 379.473 3.09916 378.597 3.19601C378.557 3.19601 378.521 3.20004 378.484 3.20004ZM418.443 2.7965C418.414 2.7965 418.386 2.79651 418.358 2.79247C417.47 2.7158 416.586 2.6472 415.711 2.58263C415.158 2.54228 414.746 2.06207 414.787 1.51326C414.827 0.960417 415.311 0.544771 415.856 0.58916C416.744 0.653726 417.632 0.726364 418.527 0.799001C419.076 0.847425 419.488 1.33167 419.439 1.88048C419.395 2.40104 418.959 2.7965 418.443 2.7965ZM383.795 2.67544C383.278 2.67544 382.843 2.27998 382.798 1.75942C382.754 1.21061 383.161 0.726363 383.71 0.677938C384.598 0.605302 385.486 0.536703 386.386 0.472137C386.943 0.431783 387.415 0.851462 387.455 1.40027C387.495 1.95312 387.076 2.42929 386.527 2.46964C385.639 2.53017 384.755 2.59877 383.88 2.67141C383.851 2.67545 383.823 2.67544 383.795 2.67544ZM413.124 2.40507C413.104 2.40507 413.084 2.40507 413.064 2.40507C412.176 2.35261 411.292 2.30015 410.412 2.2598C409.859 2.23155 409.436 1.76345 409.46 1.21061C409.488 0.657764 409.956 0.234051 410.509 0.258263C411.397 0.302652 412.289 0.351075 413.185 0.40757C413.737 0.439853 414.157 0.916028 414.121 1.46887C414.088 1.99347 413.649 2.40507 413.124 2.40507ZM389.118 2.30419C388.589 2.30419 388.149 1.89258 388.121 1.35992C388.089 0.807071 388.512 0.334933 389.065 0.306686C389.953 0.258261 390.845 0.213875 391.745 0.177557C392.294 0.149309 392.762 0.585127 392.786 1.13394C392.81 1.68678 392.378 2.15085 391.829 2.17506C390.942 2.21138 390.058 2.25577 389.178 2.30419C389.154 2.30419 389.138 2.30419 389.118 2.30419ZM407.793 2.14278C407.781 2.14278 407.769 2.14278 407.757 2.14278C406.869 2.11049 405.981 2.08225 405.102 2.06207C404.549 2.04997 404.113 1.58993 404.125 1.03709C404.137 0.484241 404.589 0.0443866 405.15 0.060528C406.038 0.0807048 406.934 0.108951 407.83 0.141234C408.383 0.161411 408.814 0.625481 408.794 1.17833C408.77 1.71906 408.326 2.14278 407.793 2.14278ZM394.448 2.08224C393.908 2.08224 393.464 1.6545 393.448 1.10973C393.431 0.55688 393.867 0.0968475 394.42 0.0807061C395.308 0.0564939 396.204 0.0363173 397.104 0.0242112C397.108 0.0242112 397.112 0.0242112 397.12 0.0242112C397.665 0.0242112 398.112 0.464067 398.121 1.00884C398.129 1.56169 397.689 2.01768 397.136 2.02575C396.244 2.03785 395.36 2.05803 394.481 2.08224C394.469 2.08224 394.46 2.08224 394.448 2.08224ZM402.455 2.01364C402.45 2.01364 402.446 2.01364 402.442 2.01364C401.668 2.00557 400.897 2.00154 400.13 2.00154H399.787C399.234 2.00154 398.786 1.55361 398.786 1.00077C398.786 0.447924 399.234 0 399.787 0H400.134C400.909 0 401.684 0.00403487 402.467 0.0121056C403.019 0.0201763 403.463 0.472135 403.455 1.02498C403.451 1.57379 403.003 2.01364 402.455 2.01364Z" fill="#768894"/>
<path d="M475.534 403.158L543.874 413.912L498.879 382.283L496.423 392.181L479.726 394.96L475.534 403.158Z" fill="#31EB0A"/>
<path d="M543.874 413.911L487.311 383.709L431.5 380.098L543.874 413.911Z" fill="#99FF84"/>
<path d="M498.879 382.282L543.874 413.911L509.39 365L498.879 382.282Z" fill="#99FF84"/>
<path d="M962.158 402.543C960.352 398.627 958.318 394.957 956.143 391.46C953.337 391.263 950.689 392.297 948.147 393.824C945.277 396.131 945.277 397.338 945.706 400.356C946.785 402.543 946.785 402.543 948.147 404.582C950.002 406.393 954.425 412.494 962.158 402.543Z" fill="#FECDB6"/>
<path d="M1029.59 268.065C1020.34 258.865 1006.95 264.569 995.903 265.88C996.511 268.841 997.895 271.22 1000.11 273.065C1002.9 273.599 1005.69 274.23 1008.44 274.958C1009.94 279.667 1010.67 284.595 1011.91 289.401C1014.85 288.43 1017.71 287.192 1020.63 286.124C1020.75 289.449 1020.36 292.823 1020.92 296.149C1022.69 298.042 1024.54 299.887 1026.46 301.635C1031.02 291.537 1038.6 277.944 1029.59 268.065Z" fill="#2D2D2D"/>
<path d="M1008.44 274.958C1005.69 274.23 1002.9 273.598 1000.1 273.064C993.838 277.652 999.133 287.361 992.745 291.876C995.539 296.61 995.951 301.804 995.709 307.314C999.4 308.285 1003.24 307.654 1006.98 307.873C1008.44 312.703 1007.8 317.8 1007.78 322.776C1014.46 319.694 1021.02 316.368 1027.7 313.31C1027.31 309.402 1026.87 305.518 1026.46 301.634C1024.54 299.887 1022.69 298.042 1020.92 296.148C1020.36 292.823 1020.75 289.449 1020.63 286.124C1017.71 287.192 1014.85 288.43 1011.91 289.4C1010.67 284.594 1009.94 279.667 1008.44 274.958Z" fill="#FFD5C3"/>
<path d="M1028.52 312.945L1027.7 313.309C1021.02 316.368 1014.46 319.693 1007.78 322.776C991.993 336.539 991.726 360.06 995.321 379.236C1005.89 374.964 1002.29 359.55 1005.64 350.423C1005.67 338.384 1016.79 324.184 1029.76 330.956C1034.04 352.147 1020.58 372.974 1014.34 392.829C1009.53 395.159 1004.19 396.009 998.988 397.126C999.717 402.83 1000.62 408.534 1001.73 414.166C1013.32 412.199 1024.98 410.767 1036.61 409.165C1024.95 377.464 1051.09 341.709 1028.52 312.945Z" fill="#2D2D2D"/>
<path d="M1029.76 330.957C1016.79 324.184 1005.67 338.384 1005.64 350.424C1002.29 359.551 1005.89 374.964 995.321 379.236C981.476 383.072 967.656 387.101 954.006 391.592C957.018 395.038 959.836 398.655 962.337 402.515C974.603 401.083 986.698 398.51 998.988 397.126C1004.19 396.009 1009.53 395.16 1014.34 392.83C1020.58 372.974 1034.04 352.147 1029.76 330.957Z" fill="#2D2D2D"/>
<path d="M1031.29 480.239C1028.26 456.354 1046.3 431.959 1036.61 409.166C1024.98 410.768 1013.32 412.2 1001.73 414.166C1004.89 455.358 1006.35 496.623 1007.56 537.888C1003.63 554.928 1021.09 556.481 1033.4 558.302C1033.4 532.281 1035.23 506.066 1031.29 480.239Z" fill="#768894"/>
<path d="M1033.4 558.303C1021.09 556.482 1003.63 554.929 1007.56 537.889C1011.42 550.802 1003.6 558.23 992.988 563.424C992.891 564.856 992.721 567.721 992.624 569.153C993.936 569.444 996.534 570.002 997.822 570.294C1009.48 569.614 1021.24 569.347 1032.87 570.439C1033.84 566.459 1033.65 562.332 1033.4 558.303Z" fill="#242329"/>
<defs>
<linearGradient id="paint0_linear_647_6758" x1="571.25" y1="120" x2="571.25" y2="570" gradientUnits="userSpaceOnUse">
<stop stop-color="white"/>
<stop offset="1" stop-color="white" stop-opacity="0"/>
</linearGradient>
</defs>
</svg>
