<svg width="156" height="64" viewBox="0 0 156 64" fill="none" xmlns="http://www.w3.org/2000/svg">
<path d="M28.4731 8.20341C26.6468 10.3526 23.7246 12.0478 20.8025 11.8057C20.4372 8.89964 21.8678 5.81201 23.542 3.90495C25.3683 1.69517 28.5644 0.121084 31.1518 0C31.4561 3.02709 30.269 5.99364 28.4731 8.20341ZM31.1213 12.3808C26.8903 12.1386 23.268 14.7722 21.2591 14.7722C19.2196 14.7722 16.1453 12.5019 12.797 12.5624C8.44421 12.623 4.39581 15.0749 2.17376 18.9799C-2.3921 26.7897 0.986635 38.3532 5.4003 44.7101C7.56147 47.8583 10.1488 51.3092 13.558 51.1881C16.7845 51.067 18.063 49.0994 21.9592 49.0994C25.8858 49.0994 27.012 51.1881 30.4212 51.1275C33.9521 51.067 36.1742 47.9794 38.3354 44.8312C40.8009 41.2592 41.8054 37.7781 41.8663 37.5965C41.8054 37.5359 35.048 34.9629 34.9871 27.2135C34.9262 20.7356 40.3139 17.6479 40.5574 17.4663C37.5135 12.9862 32.765 12.5019 31.1213 12.3808ZM55.5639 3.60224V50.7946H62.9301V34.6602H73.1272C82.4416 34.6602 88.986 28.3033 88.986 19.1009C88.986 9.89858 82.5633 3.60224 73.3707 3.60224H55.5639ZM62.9301 9.7775H71.4226C77.8148 9.7775 81.4675 13.1678 81.4675 19.1312C81.4675 25.0946 77.8148 28.5152 71.3922 28.5152H62.9301V9.7775ZM102.44 51.1578C107.067 51.1578 111.359 48.827 113.307 45.1339H113.459V50.7946H120.277V27.3043C120.277 20.4934 114.798 16.1041 106.367 16.1041C98.5438 16.1041 92.7604 20.5539 92.5473 26.6687H99.1831C99.731 23.7627 102.44 21.8556 106.154 21.8556C110.659 21.8556 113.185 23.9443 113.185 27.7887V30.392L103.992 30.9369C95.4391 31.4515 90.8123 34.9326 90.8123 40.9868C90.8123 47.1015 95.5912 51.1578 102.44 51.1578ZM104.419 45.5577C100.492 45.5577 97.9959 43.6809 97.9959 40.8052C97.9959 37.8386 100.401 36.1132 104.997 35.8407L113.185 35.3261V37.99C113.185 42.4095 109.411 45.5577 104.419 45.5577ZM129.379 63.6294C136.562 63.6294 139.941 60.905 142.894 52.6411L155.83 16.5582H148.342L139.667 44.4377H139.515L130.84 16.5582H123.139L135.619 50.9156L134.949 53.0043C133.823 56.546 131.996 57.9082 128.739 57.9082C128.161 57.9082 127.035 57.8477 126.578 57.7871V63.4478C127.004 63.5689 128.831 63.6294 129.379 63.6294Z" fill="white"/>
</svg>
