<svg width="56" height="51" viewBox="0 0 56 51" fill="none" xmlns="http://www.w3.org/2000/svg">
<path d="M27.9931 4.13964C34.3469 -1.56499 44.1657 -1.37565 50.2869 4.75636C56.4054 10.8911 56.6163 20.6612 50.9252 27.0339L27.9877 50.0039L5.05557 27.0339C-0.635533 20.6612 -0.421846 10.8748 5.69393 4.75636C11.8205 -1.36753 21.6204 -1.5731 27.9931 4.13964ZM46.4567 8.57838C42.3994 4.51562 35.8535 4.35062 31.6069 8.16453L27.9958 11.405L24.3821 8.16724C20.1219 4.34792 13.5895 4.51562 9.52136 8.58379C5.49106 12.6141 5.2882 19.0653 9.00202 23.3282L27.9904 42.3463L46.9788 23.3309C50.6953 19.0653 50.4925 12.6222 46.4567 8.57838Z" fill="#012239"/>
</svg>
