<svg width="72" height="72" viewBox="0 0 72 72" fill="none" xmlns="http://www.w3.org/2000/svg">
<path d="M53.708 7.68197H67.8747C68.814 7.68197 69.7148 8.05511 70.379 8.7193C71.0432 9.38349 71.4163 10.2843 71.4163 11.2236V67.8903C71.4163 68.8296 71.0432 69.7304 70.379 70.3946C69.7148 71.0588 68.814 71.432 67.8747 71.432H4.12467C3.18537 71.432 2.28453 71.0588 1.62034 70.3946C0.956146 69.7304 0.583008 68.8296 0.583008 67.8903V11.2236C0.583008 10.2843 0.956146 9.38349 1.62034 8.7193C2.28453 8.05511 3.18537 7.68197 4.12467 7.68197H18.2913V0.598633H25.3747V7.68197H46.6247V0.598633H53.708V7.68197ZM7.66634 28.932V64.3486H64.333V28.932H7.66634ZM14.7497 36.0153H21.833V43.0986H14.7497V36.0153ZM32.458 36.0153H39.5413V43.0986H32.458V36.0153ZM50.1663 36.0153H57.2497V43.0986H50.1663V36.0153Z" fill="#012239"/>
</svg>
