<svg width="47" height="48" viewBox="0 0 47 48" fill="none" xmlns="http://www.w3.org/2000/svg">
<path d="M17.2692 5.89404H28.7692L32.6025 9.81071H40.2692C40.7775 9.81071 41.2651 10.017 41.6245 10.3843C41.9839 10.7516 42.1859 11.2497 42.1859 11.769V39.1857C42.1859 39.7051 41.9839 40.2032 41.6245 40.5705C41.2651 40.9377 40.7775 41.144 40.2692 41.144H5.76921C5.26087 41.144 4.77336 40.9377 4.41392 40.5705C4.05447 40.2032 3.85254 39.7051 3.85254 39.1857V11.769C3.85254 11.2497 4.05447 10.7516 4.41392 10.3843C4.77336 10.017 5.26087 9.81071 5.76921 9.81071H13.4359L17.2692 5.89404ZM23.0192 37.2274C26.0692 37.2274 28.9943 35.9894 31.1509 33.7859C33.3076 31.5823 34.5192 28.5937 34.5192 25.4774C34.5192 22.3611 33.3076 19.3724 31.1509 17.1689C28.9943 14.9653 26.0692 13.7274 23.0192 13.7274C19.9692 13.7274 17.0441 14.9653 14.8875 17.1689C12.7308 19.3724 11.5192 22.3611 11.5192 25.4774C11.5192 28.5937 12.7308 31.5823 14.8875 33.7859C17.0441 35.9894 19.9692 37.2274 23.0192 37.2274ZM23.0192 33.3107C20.9859 33.3107 19.0358 32.4854 17.5981 31.0164C16.1603 29.5473 15.3525 27.5549 15.3525 25.4774C15.3525 23.3998 16.1603 21.4074 17.5981 19.9384C19.0358 18.4693 20.9859 17.644 23.0192 17.644C25.0525 17.644 27.0026 18.4693 28.4404 19.9384C29.8781 21.4074 30.6859 23.3998 30.6859 25.4774C30.6859 27.5549 29.8781 29.5473 28.4404 31.0164C27.0026 32.4854 25.0525 33.3107 23.0192 33.3107Z" fill="#012239"/>
</svg>
