<svg width="56" height="56" viewBox="0 0 56 56" fill="none" xmlns="http://www.w3.org/2000/svg">
<path d="M30.333 2.90479L30.3353 9.92187C34.4472 10.4324 38.2693 12.2718 41.1997 15.1503C44.1301 18.0289 46.0024 21.783 46.5217 25.8214H53.6663V30.4048L46.5217 30.4071C46.0019 34.4451 44.1294 38.1987 41.1991 41.0768C38.2687 43.9549 34.4468 45.7939 30.3353 46.3044L30.333 53.3214H25.6663V46.3044C21.5544 45.7944 17.7321 43.9555 14.8012 41.0774C11.8703 38.1993 9.99752 34.4455 9.47767 30.4071L2.33301 30.4048V25.8214H9.47767C9.99704 21.7826 11.8697 18.0283 14.8006 15.1497C17.7315 12.2711 21.5541 10.432 25.6663 9.92187V2.90479H30.333ZM27.9997 14.3631C24.2866 14.3631 20.7257 15.8118 18.1002 18.3904C15.4747 20.969 13.9997 24.4664 13.9997 28.1131C13.9997 31.7598 15.4747 35.2572 18.1002 37.8358C20.7257 40.4145 24.2866 41.8631 27.9997 41.8631C31.7127 41.8631 35.2737 40.4145 37.8992 37.8358C40.5247 35.2572 41.9997 31.7598 41.9997 28.1131C41.9997 24.4664 40.5247 20.969 37.8992 18.3904C35.2737 15.8118 31.7127 14.3631 27.9997 14.3631ZM27.9997 23.5298C29.2374 23.5298 30.4243 24.0127 31.2995 24.8722C32.1747 25.7318 32.6663 26.8975 32.6663 28.1131C32.6663 29.3287 32.1747 30.4945 31.2995 31.354C30.4243 32.2136 29.2374 32.6964 27.9997 32.6964C26.762 32.6964 25.575 32.2136 24.6998 31.354C23.8247 30.4945 23.333 29.3287 23.333 28.1131C23.333 26.8975 23.8247 25.7318 24.6998 24.8722C25.575 24.0127 26.762 23.5298 27.9997 23.5298Z" fill="#012239"/>
</svg>
