<svg width="160" height="219" viewBox="0 0 160 219" fill="none" xmlns="http://www.w3.org/2000/svg">
<path d="M20.1719 94.5H136.208V211.45H20.1719V94.5Z" fill="#31EB0A" stroke="black"/>
<path d="M54.3737 173.754V173.754C54.3741 176.843 51.869 179.349 48.7782 179.349C45.6878 179.349 43.1826 176.844 43.1826 173.754V134.742C43.1826 131.652 45.6878 129.146 48.7782 129.146C51.8685 129.146 54.3737 131.652 54.3737 134.742V173.754Z" fill="#012239" stroke="black"/>
<path d="M78.1893 179.349C75.0989 179.349 72.5938 176.844 72.5938 173.754V134.742C72.5938 131.652 75.0989 129.146 78.1893 129.146C81.2797 129.146 83.7848 131.652 83.7848 134.742V173.754C83.7848 176.843 81.2796 179.349 78.1893 179.349Z" fill="#012239" stroke="black"/>
<path d="M107.601 179.349C104.511 179.349 102.006 176.844 102.006 173.754V134.742C102.006 131.652 104.511 129.146 107.601 129.146C110.692 129.146 113.197 131.652 113.197 134.742V173.754C113.197 176.843 110.692 179.349 107.601 179.349Z" fill="#012239" stroke="black"/>
<path d="M147.59 101.591C148.027 101.689 148.471 101.736 148.912 101.736C150.062 101.736 151.199 101.411 152.185 100.783L147.59 101.591ZM147.59 101.591L143.302 100.638L147.59 101.591ZM140.219 47.3908L140.219 47.3909C146.619 48.8123 152.081 52.6394 155.602 58.1708C159.123 63.7022 160.279 70.2707 158.858 76.6708L154.375 96.8531C154.052 98.3023 153.168 99.5643 151.917 100.361L151.916 100.361C151.011 100.938 149.968 101.236 148.912 101.236C148.507 101.236 148.1 101.192 147.699 101.103L147.699 101.103L142.911 100.039L142.302 99.9039V100.527V211.952C142.302 215.042 139.797 217.548 136.707 217.548H19.6721C16.5817 217.548 14.0765 215.042 14.0765 211.952V94.002C14.0765 90.912 16.5817 88.4064 19.6721 88.4064H85.9747L86.0832 87.4183L4.88349 69.3838C1.86695 68.7134 -0.0353672 65.7254 0.63428 62.7081C0.634286 62.7081 0.634291 62.7081 0.634297 62.708L5.11703 42.5255C8.0515 29.3152 21.1863 20.9513 34.3976 23.8878L34.3977 23.8878L49.2245 27.1807L49.7126 27.2891L49.821 26.8009L54.6888 4.88292C55.3588 1.86644 58.3489 -0.0342613 61.3645 0.633786C61.3646 0.633804 61.3647 0.633821 61.3648 0.633839L125.631 14.9065C127.08 15.2283 128.342 16.1123 129.139 17.3639C129.935 18.6157 130.202 20.133 129.881 21.5818L123.691 49.451C123.112 52.0584 120.799 53.8348 118.234 53.8348C117.832 53.8348 117.425 53.791 117.015 53.7001C113.999 53.0296 112.096 50.0417 112.766 47.0244C112.766 47.0244 112.766 47.0244 112.766 47.0244L117.634 25.106L117.743 24.6179L117.255 24.5095L64.8891 12.8797L64.401 12.7713L64.2926 13.2594L60.7463 29.2267L60.6379 29.7148L61.126 29.8232L96.235 37.6205C99.2515 38.291 101.154 41.2789 100.484 44.2962C99.8138 47.3127 96.8237 49.215 93.8085 48.5454L31.9716 34.8114L31.9714 34.8113C24.7824 33.2176 17.6392 37.7637 16.0427 44.9508L16.5308 45.0592L16.0427 44.9508L12.8815 59.1835L12.773 59.6716L13.2612 59.78L144.174 88.8566L144.662 88.965L144.77 88.4769L147.931 74.2451C148.705 70.7644 148.075 67.1882 146.161 64.1804C144.246 61.1725 141.273 59.0894 137.793 58.3158C134.776 57.6453 132.874 54.6573 133.544 51.6401C134.214 48.6227 137.205 46.7178 140.219 47.3908ZM130.611 206.357H131.111V205.857V100.097V99.5975H130.611H25.768H25.268V100.097V205.857V206.357H25.768H130.611Z" fill="#012239" stroke="black"/>
</svg>
