<svg width="272" height="152" viewBox="0 0 272 152" fill="none" xmlns="http://www.w3.org/2000/svg">
<path d="M190.588 82.8938V74.3968V39.1491C190.588 38.5033 190.849 37.8694 191.306 37.4127C191.762 36.9559 192.395 36.6941 193.04 36.6941H221.752C222.487 36.6941 223.187 37.0268 223.654 37.5977L252.365 72.8455C252.965 73.5798 253.087 74.5957 252.68 75.4501C252.273 76.3045 251.409 76.8518 250.464 76.8518H195.493V123.977H208.509C209.982 111.794 220.336 102.354 232.902 102.352C245.468 102.352 255.822 111.794 257.295 123.977H262.849V75.267L228.409 32.7764H180.321V109.204V118.462L190.588 82.8938Z" fill="#FFBD54"/>
<path d="M190.588 82.8945L180.321 118.463V123.978V124.505H190.588V82.8945Z" fill="#FFBD54"/>
<path d="M25.8579 123.977H33.2738C33.8323 119.353 35.671 115.128 38.4242 111.661H25.8579V123.977Z" fill="#00D88A"/>
<path d="M175.416 111.661H76.9097C79.6628 115.128 81.5016 119.353 82.0601 123.977H175.416V111.661Z" fill="#00D88A"/>
<path d="M175.416 30.3217V5.47852H25.8579V106.751H43.6552C47.6316 103.983 52.4575 102.357 57.6688 102.355C62.8782 102.355 67.7061 103.983 71.6825 106.751H175.418V30.3217H175.416Z" fill="#00D88A"/>
<path d="M252.576 126.96C252.576 121.514 250.377 116.606 246.814 113.035C243.246 109.466 238.344 107.267 232.902 107.265C227.463 107.265 222.558 109.466 218.991 113.033C215.428 116.606 213.229 121.512 213.229 126.96C213.231 132.407 215.428 137.315 218.991 140.886C222.533 144.43 227.394 146.617 232.788 146.649C232.863 146.649 232.94 146.649 233.014 146.649C238.409 146.617 243.27 144.43 246.812 140.886C250.379 137.315 252.576 132.407 252.576 126.96ZM232.904 139.418C225.74 139.416 219.937 133.604 219.935 126.434C219.937 119.262 225.742 113.452 232.904 113.45C240.067 113.45 245.872 119.262 245.874 126.434C245.872 133.604 240.067 139.416 232.904 139.418Z" fill="#595959"/>
<path d="M240.967 126.432C240.967 124.194 240.068 122.191 238.605 120.725C237.138 119.26 235.138 118.362 232.904 118.36C230.668 118.36 228.67 119.26 227.203 120.725C225.74 122.191 224.841 124.196 224.841 126.432C224.843 128.67 225.74 130.673 227.203 132.141C228.67 133.606 230.67 134.504 232.904 134.506C235.138 134.504 237.14 133.606 238.605 132.141C240.068 130.673 240.965 128.67 240.967 126.432Z" fill="white"/>
<path d="M77.3402 126.96C77.3382 121.514 75.1416 116.606 71.5782 113.033C68.0109 109.466 63.1063 107.265 57.6668 107.265C52.2253 107.265 47.3227 109.466 43.7554 113.035C40.1901 116.606 37.9934 121.514 37.9934 126.96C37.9954 132.407 40.192 137.315 43.7554 140.886C47.2342 144.365 51.9874 146.527 57.2637 146.635C57.5331 146.635 57.7986 146.635 58.0699 146.635C63.3462 146.527 68.0994 144.365 71.5782 140.886C75.1436 137.315 77.3402 132.407 77.3402 126.96ZM57.6668 139.418C50.5027 139.416 44.6994 133.604 44.6974 126.434C44.6994 119.262 50.5027 113.452 57.6668 113.45C64.831 113.45 70.6343 119.262 70.6362 126.434C70.6362 133.604 64.831 139.416 57.6668 139.418Z" fill="#595959"/>
<path d="M65.7317 126.432C65.7297 124.194 64.833 122.191 63.3699 120.725C61.9028 119.26 59.9028 118.362 57.6669 118.36C55.4329 118.36 53.4309 119.26 51.9639 120.725C50.5008 122.191 49.604 124.196 49.6021 126.432C49.604 128.67 50.5008 130.673 51.9639 132.141C53.4309 133.606 55.4309 134.504 57.6669 134.506C59.9009 134.504 61.9009 133.606 63.3699 132.141C64.833 130.673 65.7297 128.67 65.7317 126.432Z" fill="white"/>
<path d="M195.493 41.6045V71.9403H245.3L220.588 41.6045H195.493Z" fill="#EAFDE6"/>
<path d="M232.904 113.45C225.74 113.45 219.937 119.262 219.935 126.434C219.937 133.606 225.742 139.415 232.904 139.417C240.068 139.415 245.872 133.604 245.874 126.434C245.872 119.262 240.066 113.45 232.904 113.45ZM238.605 132.141C237.138 133.606 235.138 134.504 232.904 134.506C230.668 134.504 228.67 133.606 227.203 132.141C225.74 130.672 224.841 128.67 224.841 126.432C224.843 124.193 225.74 122.191 227.203 120.725C228.67 119.26 230.67 118.362 232.904 118.36C235.138 118.36 237.14 119.26 238.605 120.725C240.068 122.191 240.965 124.195 240.967 126.432C240.965 128.67 240.068 130.672 238.605 132.141Z" fill="#012239"/>
<path d="M70.6361 126.432C70.6341 119.26 64.8308 113.45 57.6667 113.448C50.5025 113.448 44.6992 119.26 44.6973 126.432C44.6992 133.604 50.5025 139.414 57.6667 139.416C64.8308 139.416 70.6361 133.604 70.6361 126.432ZM63.3697 132.141C61.9026 133.606 59.9026 134.504 57.6667 134.506C55.4327 134.504 53.4307 133.606 51.9637 132.141C50.5006 130.672 49.6038 128.67 49.6018 126.432C49.6038 124.193 50.5006 122.191 51.9637 120.725C53.4307 119.26 55.4307 118.362 57.6667 118.36C59.9007 118.36 61.9007 119.26 63.3697 120.725C64.8328 122.191 65.7295 124.195 65.7315 126.432C65.7295 128.67 64.8328 130.672 63.3697 132.141Z" fill="#012239"/>
<path d="M269.104 146.654C269.104 146.654 261.004 146.654 247.641 146.652C253.134 142.526 256.835 136.149 257.399 128.889H265.301C265.946 128.889 266.577 128.627 267.035 128.17C267.494 127.714 267.753 127.08 267.753 126.434V74.3969C267.753 73.8299 267.562 73.2905 267.205 72.8495L231.48 28.776C231.016 28.2031 230.312 27.8685 229.575 27.8685H180.318V3.02139C180.318 2.37368 180.057 1.74173 179.599 1.28499C179.142 0.828245 178.511 0.566406 177.866 0.566406H23.4055C22.7605 0.566406 22.1273 0.828245 21.671 1.28499C21.2148 1.74173 20.9532 2.37565 20.9532 3.02139V109.204V126.432C20.9532 127.078 21.2148 127.71 21.671 128.168C22.1273 128.625 22.7605 128.887 23.4055 128.887H33.1714C33.7338 136.138 37.427 142.508 42.9097 146.635C35.5548 146.635 28.9531 146.637 23.3386 146.639C17.1027 146.641 12.0782 146.643 8.56592 146.645C6.80979 146.647 5.43321 146.647 4.47353 146.649C3.99369 146.649 3.61612 146.649 3.34867 146.651C3.07138 146.651 2.93766 146.651 2.8354 146.652C1.48045 146.682 0.406709 147.806 0.438174 149.163C0.467672 150.517 1.59057 151.594 2.94553 151.562C3.04975 151.561 3.65545 151.559 4.64659 151.557C10.4931 151.549 30.4123 151.543 56.8742 151.543C57.1397 151.551 57.4052 151.562 57.6726 151.562C57.9421 151.562 58.2075 151.551 58.475 151.543C63.0905 151.543 67.8889 151.543 72.8465 151.543C124.132 151.543 191.687 151.551 232.68 151.557C232.755 151.557 232.831 151.562 232.908 151.562C232.983 151.562 233.057 151.559 233.134 151.557C254.933 151.561 269.11 151.562 269.11 151.562C270.465 151.562 271.562 150.464 271.562 149.107C271.557 147.755 270.459 146.656 269.104 146.654ZM246.813 140.886C243.272 144.43 238.41 146.617 233.016 146.649C232.941 146.649 232.865 146.649 232.79 146.649C227.396 146.617 222.534 144.43 218.993 140.886C215.429 137.315 213.233 132.407 213.231 126.96C213.231 121.514 215.429 116.606 218.993 113.033C222.56 109.466 227.465 107.265 232.904 107.265C238.343 107.265 243.246 109.466 246.815 113.035C250.379 116.606 252.575 121.514 252.577 126.96C252.575 132.407 250.379 137.315 246.813 140.886ZM180.32 32.7765H228.408L262.849 75.2671V123.977H257.295C255.822 111.795 245.468 102.355 232.902 102.353C220.336 102.353 209.982 111.795 208.509 123.977H195.492V76.8519H250.463C251.409 76.8519 252.273 76.3046 252.68 75.4502C253.087 74.5958 252.963 73.5799 252.365 72.8456L223.653 37.5978C223.187 37.0269 222.489 36.6942 221.752 36.6942H193.04C192.395 36.6942 191.764 36.956 191.306 37.4128C190.849 37.8695 190.588 38.5034 190.588 39.1492V74.3969V82.8939V124.505H180.32V123.979V118.465V109.206V32.7765ZM195.492 71.94V41.6041H220.586L245.297 71.94H195.492ZM82.0598 123.977C81.5013 119.352 79.6626 115.128 76.9094 111.661H175.416V123.977H82.0598ZM25.8578 5.47834H175.416V30.3234V106.751H71.6804C67.704 103.983 62.8781 102.357 57.6667 102.355C52.4573 102.355 47.6295 103.983 43.6531 106.751H25.8558V5.47834H25.8578ZM25.8578 123.977V111.661H38.424C35.6709 115.128 33.8322 119.352 33.2737 123.977H25.8578ZM43.7554 140.886C40.192 137.315 37.9953 132.407 37.9934 126.96C37.9953 121.514 40.192 116.606 43.7554 113.035C47.3227 109.466 52.2253 107.267 57.6667 107.265C63.1062 107.265 68.0108 109.466 71.5781 113.033C75.1415 116.606 77.3381 121.512 77.3401 126.96C77.3381 132.407 75.1415 137.315 71.5781 140.886C68.0993 144.365 63.3481 146.527 58.0699 146.635C57.7985 146.635 57.533 146.635 57.2636 146.635C51.9873 146.527 47.2342 144.365 43.7554 140.886ZM72.8406 146.635C72.701 146.635 72.5653 146.635 72.4277 146.635C77.9084 142.508 81.6016 136.138 82.164 128.889H176.366C176.783 129.214 177.3 129.414 177.868 129.414H193.04C193.585 129.414 194.112 129.222 194.541 128.889H208.407C208.969 136.147 212.67 142.522 218.159 146.649C176.938 146.641 118.453 146.635 72.8406 146.635Z" fill="#012239"/>
</svg>
