<svg width="226" height="101" viewBox="0 0 226 101" fill="none" xmlns="http://www.w3.org/2000/svg">
<line x1="0.649889" y1="52.9183" x2="224.968" y2="48.9183" stroke="#B3BDC4" stroke-width="4" stroke-dasharray="13 13"/>
<circle cx="112.846" cy="50.918" r="48" fill="white" stroke="#B3BDC4" stroke-width="4"/>
<path opacity="0.3" d="M91.5257 48.268C91.5257 52.293 92.8907 55.618 95.5857 58.278C98.2807 60.903 101.606 62.233 105.526 62.233C109.446 62.233 112.771 60.903 115.536 58.208C118.301 55.513 119.666 52.153 119.666 48.163C119.666 44.173 118.301 40.848 115.571 38.153C112.876 35.458 109.551 34.128 105.631 34.128C101.746 34.128 98.4207 35.493 95.6557 38.223C92.8907 40.953 91.5257 44.313 91.5257 48.268ZM105.596 58.243C102.901 58.243 100.661 57.263 98.8057 55.303C96.9507 53.343 96.0407 50.963 96.0407 48.163C96.0407 45.363 96.9507 42.983 98.8057 41.058C100.661 39.098 102.901 38.118 105.596 38.118C108.256 38.118 110.496 39.098 112.351 41.058C114.206 42.983 115.151 45.363 115.151 48.163C115.151 50.963 114.206 53.343 112.351 55.303C110.496 57.263 108.256 58.243 105.596 58.243ZM134.729 43.158C134.484 43.088 134.169 43.053 133.714 43.053C131.439 43.053 129.724 44.103 128.569 46.203V43.228H124.509V61.918H128.674V52.433C128.674 49.178 130.354 47.323 133.539 47.323C133.994 47.323 134.379 47.358 134.729 47.428V43.158Z" fill="#012239"/>
</svg>
