<svg width="54" height="55" viewBox="0 0 54 55" fill="none" xmlns="http://www.w3.org/2000/svg">
<path d="M27.1911 0.822266C41.9191 0.822266 53.8577 12.7609 53.8577 27.4889C53.8577 42.2169 41.9191 54.1556 27.1911 54.1556C12.4631 54.1556 0.524414 42.2169 0.524414 27.4889C0.524414 12.7609 12.4631 0.822266 27.1911 0.822266ZM16.5244 30.1556L6.02308 30.1583C6.61719 34.8575 8.75757 39.2256 12.1071 42.5747C15.4567 45.9238 19.8251 48.0635 24.5244 48.6569V38.1556C22.4027 38.1556 20.3679 37.3127 18.8676 35.8125C17.3673 34.3122 16.5244 32.2773 16.5244 30.1556ZM48.3591 30.1583L37.8577 30.1556C37.8577 32.2773 37.0149 34.3122 35.5146 35.8125C34.0143 37.3127 31.9795 38.1556 29.8577 38.1556L29.8604 48.6569C34.5593 48.0629 38.9271 45.923 42.2761 42.5739C45.6251 39.2249 47.7651 34.8571 48.3591 30.1583ZM27.1911 6.1556C21.9948 6.15569 16.9771 8.0521 13.0798 11.4889C9.18237 14.9258 6.67319 19.6668 6.02308 24.8223H16.5244C16.5244 24.115 16.8054 23.4367 17.3055 22.9366C17.8056 22.4366 18.4838 22.1556 19.1911 22.1556H35.1911C35.8983 22.1556 36.5766 22.4366 37.0767 22.9366C37.5768 23.4367 37.8577 24.115 37.8577 24.8223H48.3591C47.709 19.6668 45.1998 14.9258 41.3024 11.4889C37.405 8.0521 32.3874 6.15569 27.1911 6.1556Z" fill="white"/>
</svg>
