<svg width="61" height="61" viewBox="0 0 61 61" fill="none" xmlns="http://www.w3.org/2000/svg">
<path d="M7.3737 27.6685L14.0404 21.0018L32.3737 39.3351L44.0404 27.6685L54.0404 37.6685V7.33512H7.3737V27.6685ZM4.04036 0.668457H57.3737C58.2578 0.668457 59.1056 1.01965 59.7307 1.64477C60.3558 2.26989 60.707 3.11774 60.707 4.00179V57.3351C60.707 58.2192 60.3558 59.067 59.7307 59.6921C59.1056 60.3173 58.2578 60.6685 57.3737 60.6685H4.04036C3.15631 60.6685 2.30846 60.3173 1.68334 59.6921C1.05822 59.067 0.707031 58.2192 0.707031 57.3351V4.00179C0.707031 3.11774 1.05822 2.26989 1.68334 1.64477C2.30846 1.01965 3.15631 0.668457 4.04036 0.668457ZM42.3737 24.0018C41.0476 24.0018 39.7758 23.475 38.8382 22.5373C37.9005 21.5996 37.3737 20.3279 37.3737 19.0018C37.3737 17.6757 37.9005 16.4039 38.8382 15.4663C39.7758 14.5286 41.0476 14.0018 42.3737 14.0018C43.6998 14.0018 44.9715 14.5286 45.9092 15.4663C46.8469 16.4039 47.3737 17.6757 47.3737 19.0018C47.3737 20.3279 46.8469 21.5996 45.9092 22.5373C44.9715 23.475 43.6998 24.0018 42.3737 24.0018Z" fill="#47646D"/>
</svg>
