<svg width="103" height="91" viewBox="0 0 103 91" fill="none" xmlns="http://www.w3.org/2000/svg">
<path d="M23.2538 24.7623C27.0241 23.8481 29.5866 20.7251 32.9966 19.1035C32.9765 20.4048 32.9565 21.706 32.9499 23.0073C30.0537 25.2161 26.9774 27.3582 23.3872 28.2257C16.9276 29.9674 10.2011 28.5193 3.93502 26.6976C3.69479 35.8197 4.80921 44.9486 7.09809 53.7772C12.5367 53.9907 17.9753 53.8506 23.4139 53.904C24.0946 56.1728 24.6551 58.6552 26.4102 60.3769C28.1252 62.172 30.6343 62.7392 32.9365 63.3932C33.0633 71.3676 32.9565 79.342 33.0299 87.3231C33.0166 88.2573 33.0099 89.1982 32.9966 90.1391C32.4627 90.1325 31.4084 90.1191 30.8812 90.1124C20.7313 85.4546 13.0906 76.4058 8.30593 66.4762C1.7529 52.616 -0.0688618 36.9742 0.645165 21.7928C7.76541 24.5021 15.6464 27.0646 23.2538 24.7623Z" fill="white"/>
<path d="M32.9962 19.1035C36.493 20.8852 39.269 24.0216 43.2195 24.9025C50.7335 26.9978 58.3475 24.3152 65.3944 21.8262C66.035 38.449 63.8729 55.7658 55.5648 70.4467C51.0738 78.3076 44.5808 85.1476 36.5731 89.4585C34.838 90.4394 32.7961 90.4661 30.8809 90.1124C31.408 90.1191 32.4624 90.1324 32.9962 90.1391C33.0096 89.1982 33.0163 88.2573 33.0296 87.3231C46.456 81.3372 55.0977 67.7841 58.6545 53.9173C53.2893 53.8572 47.9241 54.0307 42.5655 53.8172C41.8248 51.535 41.2643 49.0259 39.4892 47.2909C37.7475 45.5692 35.2851 44.9953 33.0296 44.2546C32.8695 37.1744 32.9762 30.0875 32.9495 23.0073C32.9562 21.706 32.9762 20.4048 32.9962 19.1035Z" fill="white"/>
<path d="M31.235 48.1849C34.6183 47.0504 38.5554 49.6129 38.8491 53.1697C39.3295 56.3194 36.8004 59.5225 33.6173 59.7361C30.4676 60.1832 27.2711 57.6407 27.0976 54.4509C26.7573 51.715 28.6258 48.9923 31.235 48.1849Z" fill="#31EB0A"/>
<g opacity="0.5">
<path d="M80.9063 3.68985C82.8469 3.21932 84.1657 1.61194 85.9208 0.777344C85.9105 1.44708 85.9002 2.11682 85.8967 2.78656C84.4061 3.9234 82.8228 5.0259 80.975 5.47239C77.6504 6.36881 74.1883 5.62351 70.9633 4.68588C70.8396 9.38092 71.4132 14.0794 72.5912 18.6233C75.3904 18.7332 78.1896 18.6611 80.9888 18.6886C81.3391 19.8563 81.6276 21.134 82.5309 22.0201C83.4136 22.944 84.705 23.2359 85.8899 23.5725C85.9551 27.6768 85.9002 31.7811 85.938 35.8889C85.9311 36.3697 85.9277 36.854 85.9208 37.3383C85.646 37.3348 85.1034 37.328 84.832 37.3245C79.6081 34.9272 75.6755 30.2699 73.2129 25.1593C69.8402 18.0257 68.9025 9.9751 69.27 2.16147C72.9347 3.5559 76.9909 4.87478 80.9063 3.68985Z" fill="white"/>
<path d="M85.9208 0.777344C87.7205 1.69437 89.1493 3.30862 91.1825 3.76198C95.0499 4.84043 98.9687 3.45974 102.596 2.17864C102.925 10.7341 101.813 19.6468 97.5365 27.2029C95.225 31.2488 91.8832 34.7692 87.7617 36.9879C86.8687 37.4928 85.8178 37.5065 84.832 37.3245C85.1034 37.328 85.646 37.3348 85.9208 37.3383C85.9277 36.854 85.9311 36.3697 85.938 35.8889C92.8483 32.8081 97.2961 25.8325 99.1267 18.6955C96.3653 18.6645 93.6039 18.7538 90.8459 18.6439C90.4647 17.4693 90.1762 16.1779 89.2626 15.2849C88.3662 14.3988 87.0988 14.1034 85.938 13.7222C85.8555 10.0781 85.9105 6.43063 85.8967 2.78656C85.9002 2.11682 85.9105 1.44708 85.9208 0.777344Z" fill="white"/>
<path d="M85.0138 15.7463C86.7551 15.1624 88.7815 16.4813 88.9326 18.3119C89.1799 19.9331 87.8782 21.5816 86.2399 21.6915C84.6188 21.9217 82.9737 20.6131 82.8844 18.9714C82.7092 17.5632 83.6709 16.1619 85.0138 15.7463Z" fill="white"/>
</g>
</svg>
