<svg width="71" height="87" viewBox="0 0 71 87" fill="none" xmlns="http://www.w3.org/2000/svg">
<path d="M60.5142 61.2793L35.6554 86.6622L10.7966 61.2793C5.88011 56.259 2.53193 49.8628 1.17549 42.8996C-0.180958 35.9363 0.515261 28.7187 3.1761 22.1595C5.83694 15.6003 10.3429 9.994 16.1242 6.04964C21.9054 2.10529 28.7023 0 35.6554 0C42.6085 0 49.4054 2.10529 55.1866 6.04964C60.9679 9.994 65.4739 15.6003 68.1347 22.1595C70.7956 28.7187 71.4918 35.9363 70.1353 42.8996C68.7789 49.8628 65.4307 56.259 60.5142 61.2793ZM35.6554 43.8734C37.7274 43.8734 39.7145 43.0329 41.1795 41.5369C42.6446 40.041 43.4677 38.012 43.4677 35.8963C43.4677 33.7807 42.6446 31.7517 41.1795 30.2557C39.7145 28.7597 37.7274 27.9193 35.6554 27.9193C33.5835 27.9193 31.5964 28.7597 30.1313 30.2557C28.6662 31.7517 27.8431 33.7807 27.8431 35.8963C27.8431 38.012 28.6662 40.041 30.1313 41.5369C31.5964 43.0329 33.5835 43.8734 35.6554 43.8734Z" fill="#31EB0A"/>
</svg>
