<svg width="51" height="50" viewBox="0 0 51 50" fill="none" xmlns="http://www.w3.org/2000/svg">
<path d="M40.0833 20.8327H42.1667C42.7192 20.8327 43.2491 21.0522 43.6398 21.4429C44.0305 21.8336 44.25 22.3635 44.25 22.916V43.7494C44.25 44.3019 44.0305 44.8318 43.6398 45.2225C43.2491 45.6132 42.7192 45.8327 42.1667 45.8327H8.83333C8.2808 45.8327 7.75089 45.6132 7.36019 45.2225C6.96949 44.8318 6.75 44.3019 6.75 43.7494V22.916C6.75 22.3635 6.96949 21.8336 7.36019 21.4429C7.75089 21.0522 8.2808 20.8327 8.83333 20.8327H10.9167V18.7493C10.9167 16.8342 11.2939 14.9379 12.0268 13.1685C12.7596 11.3992 13.8338 9.79156 15.188 8.43738C16.5422 7.08319 18.1499 6.00899 19.9192 5.27611C21.6885 4.54322 23.5849 4.16602 25.5 4.16602C27.4151 4.16602 29.3115 4.54322 31.0808 5.27611C32.8501 6.00899 34.4578 7.08319 35.812 8.43738C37.1662 9.79156 38.2404 11.3992 38.9732 13.1685C39.7061 14.9379 40.0833 16.8342 40.0833 18.7493V20.8327ZM10.9167 24.9994V41.666H40.0833V24.9994H10.9167ZM23.4167 29.166H27.5833V37.4994H23.4167V29.166ZM35.9167 20.8327V18.7493C35.9167 15.9867 34.8192 13.3372 32.8657 11.3837C30.9122 9.43015 28.2627 8.33268 25.5 8.33268C22.7373 8.33268 20.0878 9.43015 18.1343 11.3837C16.1808 13.3372 15.0833 15.9867 15.0833 18.7493V20.8327H35.9167Z" fill="#00C6BD"/>
</svg>
