<svg width="169" height="168" viewBox="0 0 169 168" fill="none" xmlns="http://www.w3.org/2000/svg">
<path d="M11.8135 0H95.5015C97.5183 0.49875 99.5846 0.895781 101.466 1.81125C108.094 4.81359 112.646 11.7895 112.652 19.0378C112.666 29.6428 112.675 40.2478 112.649 50.8528C112.682 53.6648 110.137 55.9814 107.374 56.0569C104.635 55.9814 102.09 53.6747 102.113 50.8856C102.077 40.2708 102.129 29.6559 102.087 19.0444C102.1 14.4834 97.9969 10.4738 93.422 10.5066C78.4233 10.5328 63.4212 10.4245 48.4258 10.5623C52.6078 12.0225 56.8427 13.335 61.038 14.7722C65.3092 16.298 68.7454 19.9631 69.9072 24.337C70.5311 26.4502 70.3958 28.6716 70.4057 30.8438C70.4057 66.0483 70.4057 101.253 70.409 136.457C76.9742 136.556 83.5428 136.47 90.1113 136.5C92.2238 136.457 94.4287 136.73 96.4389 135.916C99.71 134.715 102.057 131.427 102.087 127.956C102.129 117.344 102.073 106.729 102.113 96.1177C102.09 93.322 104.622 91.0055 107.378 90.9464C110.14 91.0153 112.672 93.3417 112.649 96.1505C112.659 106.969 112.695 117.79 112.633 128.609C112.401 138.045 104.242 146.406 94.7654 146.941C86.7247 147.089 78.6807 146.941 70.64 147.016L70.3528 147.039C70.2868 149.789 70.2637 152.545 70.3991 155.295C69.9402 161.618 64.7085 166.848 58.5394 168H54.047C39.2199 163.272 24.4918 158.245 9.7076 153.392C4.6673 151.82 1.02654 147.266 0 142.193V11.7403C1.14867 5.87672 5.94801 1.18453 11.8135 0ZM13.279 10.6017C11.7046 10.9594 10.4998 12.4786 10.5658 14.0897C10.5559 55.988 10.5691 97.8895 10.5592 139.788C10.4701 141.409 11.6055 142.977 13.1734 143.423C27.1951 148.066 41.2103 152.736 55.2419 157.352C57.4567 158.11 59.9917 156.21 59.8465 153.878C59.8531 111.999 59.8564 70.1105 59.8498 28.2286C59.9554 26.5552 58.744 24.9834 57.1431 24.5372C43.2765 19.9467 29.4133 15.3497 15.5434 10.7658C14.8205 10.5066 14.0316 10.418 13.279 10.6017Z" fill="#012239"/>
<path d="M133.744 43.3674C135.721 41.4872 139.154 41.566 141.049 43.5314C149.918 52.3219 158.754 61.1452 167.626 69.9291C168.204 70.5657 168.603 71.3302 169 72.0882V74.8838C168.442 76.1799 167.537 77.2824 166.474 78.2077C157.982 86.6077 149.538 95.0569 141.042 103.457C139.147 105.416 135.731 105.508 133.747 103.628C131.628 101.787 131.457 98.2266 133.417 96.2119C139.213 90.368 145.125 84.6324 150.898 78.7655C136.391 78.7294 121.881 78.7524 107.374 78.7557C103.812 78.7327 100.251 78.7688 96.6927 78.7425C93.9266 78.736 91.4741 76.2488 91.5302 73.4991C91.4741 70.7461 93.9101 68.2491 96.6894 68.2589C100.248 68.2261 103.809 68.2655 107.371 68.2425C121.881 68.2458 136.391 68.2688 150.901 68.2327C145.128 62.3625 139.21 56.6368 133.424 50.783C131.457 48.7716 131.625 45.2082 133.744 43.3674Z" fill="#012239"/>
<path d="M13.2794 10.6012C14.032 10.4175 14.8209 10.5061 15.5438 10.7653C29.4137 15.3492 43.2769 19.9462 57.1435 24.5367C58.7444 24.9829 59.9558 26.5547 59.8502 28.2281C59.8568 70.11 59.8535 111.998 59.8469 153.877C59.9921 156.21 57.4571 158.11 55.2423 157.352C41.2106 152.735 27.1955 148.066 13.1738 143.423C11.6059 142.977 10.4705 141.408 10.5596 139.787C10.5695 97.889 10.5563 55.9875 10.5662 14.0892C10.5002 12.4781 11.705 10.9589 13.2794 10.6012Z" fill="#FFBD54"/>
<path d="M48.4258 10.5619C63.4212 10.4241 78.4233 10.5323 93.422 10.5061C97.9969 10.4733 102.1 14.483 102.087 19.0439C102.129 29.6555 102.077 40.2703 102.113 50.8851C102.09 53.6742 104.635 55.9809 107.374 56.0564C107.381 60.1186 107.388 64.1808 107.371 68.243C103.81 68.2659 100.248 68.2265 96.6898 68.2594C93.9105 68.2495 91.4746 70.7465 91.5307 73.4995C91.4746 76.2492 93.9271 78.7364 96.6931 78.743C100.251 78.7692 103.813 78.7331 107.374 78.7561C107.388 82.8183 107.381 86.8837 107.378 90.9459C104.622 91.005 102.09 93.3215 102.113 96.1172C102.073 106.729 102.129 117.344 102.087 127.955C102.057 131.427 99.71 134.715 96.439 135.915C94.4288 136.729 92.2239 136.457 90.1114 136.5C83.5428 136.47 76.9742 136.555 70.409 136.457C70.4057 101.252 70.4057 66.0478 70.4057 30.8433C70.3958 28.6711 70.5311 26.4497 69.9073 24.3366C68.7454 19.9627 65.3093 16.2975 61.0381 14.7717C56.8428 13.3345 52.6079 12.022 48.4258 10.5619Z" fill="#00D88A"/>
<path opacity="0.52" d="M70.3525 147.039L70.6396 147.016C70.5373 149.772 70.8773 152.561 70.3987 155.294C70.2633 152.545 70.2864 149.788 70.3525 147.039Z" fill="#012239"/>
</svg>
