<svg width="44" height="54" viewBox="0 0 44 54" fill="none" xmlns="http://www.w3.org/2000/svg">
<path d="M16.8584 24.3887H0.858398V3.05534C0.858398 2.34809 1.13935 1.66982 1.63945 1.16972C2.13954 0.669623 2.81782 0.388672 3.52506 0.388672H40.8584C41.5656 0.388672 42.2439 0.669623 42.744 1.16972C43.2441 1.66982 43.5251 2.34809 43.5251 3.05534V51.0553C43.5251 51.7626 43.2441 52.4409 42.744 52.941C42.2439 53.4411 41.5656 53.722 40.8584 53.722H3.52506C2.81782 53.722 2.13954 53.4411 1.63945 52.941C1.13935 52.4409 0.858398 51.7626 0.858398 51.0553V29.722H16.8584V37.722L30.1917 27.0553L16.8584 16.3887V24.3887Z" fill="white"/>
</svg>
