<svg width="61" height="13" viewBox="0 0 61 13" fill="none" xmlns="http://www.w3.org/2000/svg">
<g opacity="0.5">
<path d="M0.630859 6.73031C0.630859 10.0203 3.36086 12.8203 6.72086 12.8203C10.0809 12.8203 12.8109 10.0903 12.8109 6.73031C12.8109 3.30031 10.1509 0.570312 6.72086 0.570312C3.36086 0.570312 0.630859 3.30031 0.630859 6.73031Z" fill="#012239"/>
<path d="M24.5703 6.73031C24.5703 10.0203 27.3003 12.8203 30.6603 12.8203C34.0203 12.8203 36.7503 10.0903 36.7503 6.73031C36.7503 3.30031 34.0903 0.570312 30.6603 0.570312C27.3003 0.570312 24.5703 3.30031 24.5703 6.73031Z" fill="#012239"/>
<path d="M48.5098 6.73031C48.5098 10.0203 51.2398 12.8203 54.5998 12.8203C57.9598 12.8203 60.6898 10.0903 60.6898 6.73031C60.6898 3.30031 58.0298 0.570312 54.5998 0.570312C51.2398 0.570312 48.5098 3.30031 48.5098 6.73031Z" fill="#012239"/>
</g>
</svg>
