<svg width="65" height="64" viewBox="0 0 65 64" fill="none" xmlns="http://www.w3.org/2000/svg">
<path d="M10.6921 21.334H53.3588V56.0007C53.3588 56.7079 53.0778 57.3862 52.5777 57.8863C52.0776 58.3864 51.3993 58.6673 50.6921 58.6673H13.3588C12.6515 58.6673 11.9732 58.3864 11.4731 57.8863C10.9731 57.3862 10.6921 56.7079 10.6921 56.0007V21.334ZM18.6921 13.334V8.00065C18.6921 7.29341 18.9731 6.61513 19.4731 6.11503C19.9732 5.61494 20.6515 5.33398 21.3588 5.33398H42.6921C43.3993 5.33398 44.0776 5.61494 44.5777 6.11503C45.0778 6.61513 45.3588 7.29341 45.3588 8.00065V13.334H58.6921V18.6673H5.35876V13.334H18.6921ZM24.0254 10.6673V13.334H40.0254V10.6673H24.0254ZM24.0254 32.0007V48.0007H29.3588V32.0007H24.0254ZM34.6921 32.0007V48.0007H40.0254V32.0007H34.6921Z" fill="#012239"/>
</svg>
