<svg width="71" height="71" viewBox="0 0 71 71" fill="none" xmlns="http://www.w3.org/2000/svg">
<path d="M8.9375 38.6117H26.4375V32.7783H8.9375V6.07918C8.93754 5.82576 9.00362 5.57673 9.12922 5.35663C9.25482 5.13653 9.43561 4.95296 9.65377 4.82401C9.87192 4.69506 10.1199 4.62518 10.3733 4.62127C10.6267 4.61735 10.8767 4.67953 11.0987 4.80168L64.9462 34.4175C65.1749 34.5434 65.3656 34.7283 65.4984 34.9531C65.6311 35.1778 65.7012 35.434 65.7012 35.695C65.7012 35.956 65.6311 36.2123 65.4984 36.437C65.3656 36.6617 65.1749 36.8466 64.9462 36.9725L11.0987 66.5883C10.8767 66.7105 10.6267 66.7727 10.3733 66.7687C10.1199 66.7648 9.87192 66.695 9.65377 66.566C9.43561 66.4371 9.25482 66.2535 9.12922 66.0334C9.00362 65.8133 8.93754 65.5643 8.9375 65.3108V38.6117Z" fill="white"/>
</svg>
