<svg width="66" height="66" viewBox="0 0 66 66" fill="none" xmlns="http://www.w3.org/2000/svg">
<path d="M51.9587 60.279H14.042C11.8871 60.279 9.82048 59.423 8.29675 57.8992C6.77302 56.3755 5.91699 54.3089 5.91699 52.154V8.82064C5.91699 8.10234 6.20233 7.41347 6.71024 6.90556C7.21816 6.39765 7.90703 6.1123 8.62533 6.1123H46.542C47.2603 6.1123 47.9492 6.39765 48.4571 6.90556C48.965 7.41347 49.2503 8.10234 49.2503 8.82064V41.3206H60.0837V52.154C60.0837 54.3089 59.2276 56.3755 57.7039 57.8992C56.1802 59.423 54.1135 60.279 51.9587 60.279ZM49.2503 46.7373V52.154C49.2503 52.8723 49.5357 53.5611 50.0436 54.0691C50.5515 54.577 51.2404 54.8623 51.9587 54.8623C52.677 54.8623 53.3658 54.577 53.8737 54.0691C54.3817 53.5611 54.667 52.8723 54.667 52.154V46.7373H49.2503ZM16.7503 19.654V25.0706H38.417V19.654H16.7503ZM16.7503 30.4873V35.904H38.417V30.4873H16.7503ZM16.7503 41.3206V46.7373H30.292V41.3206H16.7503Z" fill="#99A7B0"/>
</svg>
