<svg width="260" height="70" viewBox="0 0 260 70" fill="none" xmlns="http://www.w3.org/2000/svg">
<g filter="url(#filter0_d_358_5160)">
<path d="M98.3786 13.8818H84.4999C84.0404 13.8815 83.596 14.0456 83.2466 14.3445C82.8972 14.6433 82.6659 15.0573 82.5943 15.5119L76.9812 51.1553C76.9553 51.3207 76.9656 51.4897 77.0113 51.6507C77.057 51.8118 77.137 51.961 77.2458 52.0881C77.3545 52.2152 77.4895 52.3172 77.6414 52.387C77.7933 52.4568 77.9586 52.4929 78.1257 52.4926H84.7515C85.2113 52.4929 85.656 52.3285 86.0054 52.0292C86.3548 51.73 86.5859 51.3155 86.6571 50.8606L88.171 41.247C88.2421 40.7924 88.4729 40.3782 88.8219 40.079C89.1709 39.7798 89.6151 39.6152 90.0745 39.6149H94.468C103.61 39.6149 108.887 35.1841 110.264 26.4039C110.885 22.5625 110.291 19.5443 108.495 17.4305C106.522 15.1094 103.024 13.8818 98.3786 13.8818ZM99.9797 26.8998C99.2208 31.8875 95.4157 31.8875 91.7365 31.8875H89.6422L91.1115 22.5727C91.1545 22.3002 91.2932 22.052 91.5027 21.8727C91.7121 21.6935 91.9785 21.5951 92.254 21.5951H93.2139C95.7201 21.5951 98.0843 21.5951 99.306 23.0259C100.035 23.8795 100.258 25.1478 99.9797 26.8998ZM139.865 26.7392H133.218C132.943 26.7392 132.677 26.8377 132.467 27.0169C132.258 27.1961 132.119 27.4443 132.076 27.7168L131.782 29.5786L131.317 28.9038C129.878 26.8124 126.67 26.1132 123.467 26.1132C116.123 26.1132 109.85 31.6842 108.629 39.4991C107.994 43.3973 108.897 47.1249 111.105 49.7244C113.13 52.1146 116.028 53.1105 119.476 53.1105C125.393 53.1105 128.675 49.2996 128.675 49.2996L128.378 51.1492C128.352 51.3145 128.362 51.4837 128.407 51.6449C128.452 51.8062 128.532 51.9557 128.64 52.0832C128.748 52.2107 128.883 52.3131 129.035 52.3835C129.187 52.4538 129.352 52.4904 129.519 52.4906H135.505C135.965 52.4908 136.41 52.3265 136.759 52.0272C137.109 51.7279 137.34 51.3134 137.411 50.8585L141.003 28.0766C141.029 27.9116 141.02 27.7428 140.975 27.5819C140.93 27.421 140.85 27.2718 140.742 27.1447C140.634 27.0175 140.499 26.9154 140.348 26.8454C140.196 26.7754 140.031 26.7392 139.865 26.7392ZM130.601 39.6942C129.959 43.4969 126.946 46.0497 123.102 46.0497C121.172 46.0497 119.63 45.4298 118.64 44.255C117.657 43.0884 117.284 41.4279 117.597 39.5783C118.195 35.8081 121.259 33.172 125.044 33.172C126.932 33.172 128.466 33.8 129.476 34.985C130.489 36.1821 130.891 37.8528 130.601 39.6942ZM175.26 26.7392H168.582C168.267 26.7397 167.957 26.8172 167.678 26.9649C167.4 27.1126 167.162 27.326 166.985 27.5868L157.774 41.1759L153.869 28.1172C153.749 27.719 153.505 27.3699 153.171 27.1217C152.838 26.8735 152.434 26.7394 152.018 26.7392H145.455C145.271 26.7387 145.089 26.7823 144.925 26.8664C144.761 26.9504 144.62 27.0724 144.512 27.2224C144.405 27.3723 144.335 27.5457 144.308 27.7282C144.281 27.9107 144.298 28.0971 144.357 28.2717L151.714 49.8931L144.798 59.6713C144.675 59.8447 144.602 60.0486 144.587 60.2607C144.572 60.4728 144.616 60.6849 144.713 60.8738C144.811 61.0627 144.958 61.2211 145.14 61.3317C145.321 61.4422 145.529 61.5006 145.742 61.5005H152.412C152.723 61.501 153.03 61.4257 153.306 61.2813C153.582 61.1369 153.819 60.9276 153.997 60.6713L176.21 28.5583C176.331 28.3846 176.401 28.1811 176.414 27.97C176.428 27.759 176.383 27.5483 176.285 27.3609C176.187 27.1735 176.04 27.0165 175.859 26.9069C175.679 26.7973 175.472 26.7393 175.26 26.7392Z" fill="white"/>
<path d="M197.372 13.8805H183.491C183.032 13.8806 182.588 14.0449 182.239 14.3437C181.89 14.6426 181.659 15.0563 181.588 15.5105L175.975 51.1539C175.949 51.319 175.959 51.4878 176.004 51.6487C176.049 51.8096 176.129 51.9588 176.237 52.0859C176.346 52.213 176.48 52.3151 176.632 52.385C176.783 52.455 176.948 52.4913 177.115 52.4913H184.238C184.559 52.4908 184.87 52.3755 185.114 52.1661C185.358 51.9567 185.52 51.667 185.569 51.349L187.162 41.2456C187.234 40.791 187.464 40.3768 187.813 40.0776C188.162 39.7784 188.607 39.6138 189.066 39.6135H193.457C202.602 39.6135 207.876 35.1828 209.256 26.4025C209.879 22.5611 209.28 19.5429 207.484 17.4291C205.514 15.1081 202.017 13.8805 197.372 13.8805ZM198.973 26.8984C198.216 31.8861 194.411 31.8861 190.73 31.8861H188.638L190.109 22.5713C190.151 22.2988 190.289 22.0504 190.499 21.871C190.708 21.6917 190.974 21.5933 191.25 21.5937H192.209C194.714 21.5937 197.08 21.5937 198.302 23.0245C199.03 23.8782 199.251 25.1464 198.973 26.8984ZM238.856 26.7379H232.214C231.938 26.7371 231.672 26.8353 231.463 27.0147C231.253 27.1941 231.115 27.4428 231.073 27.7155L230.779 29.5772L230.312 28.9024C228.874 26.811 225.667 26.1119 222.465 26.1119C215.121 26.1119 208.85 31.6829 207.628 39.4977C206.995 43.396 207.894 47.1235 210.102 49.7231C212.132 52.1132 215.025 53.1091 218.473 53.1091C224.391 53.1091 227.672 49.2983 227.672 49.2983L227.376 51.1478C227.35 51.3135 227.359 51.483 227.405 51.6445C227.45 51.8061 227.53 51.9558 227.639 52.0834C227.748 52.2109 227.883 52.3133 228.035 52.3834C228.187 52.4535 228.353 52.4896 228.521 52.4892H234.505C234.964 52.489 235.409 52.3244 235.758 52.0252C236.107 51.7259 236.337 51.3117 236.409 50.8572L240.003 28.0752C240.028 27.9097 240.017 27.7406 239.972 27.5796C239.926 27.4186 239.845 27.2694 239.736 27.1424C239.628 27.0153 239.492 26.9134 239.34 26.8435C239.188 26.7737 239.023 26.7377 238.856 26.7379ZM229.592 39.6928C228.955 43.4956 225.937 46.0483 222.094 46.0483C220.168 46.0483 218.621 45.4284 217.631 44.2537C216.649 43.087 216.279 41.4265 216.588 39.577C217.191 35.8067 220.251 33.1706 224.036 33.1706C225.923 33.1706 227.457 33.7987 228.468 34.9836C229.484 36.1807 229.886 37.8514 229.592 39.6928ZM246.691 14.8581L240.995 51.1539C240.969 51.319 240.979 51.4878 241.024 51.6487C241.069 51.8096 241.149 51.9588 241.257 52.0859C241.366 52.213 241.5 52.3151 241.652 52.385C241.804 52.455 241.968 52.4913 242.135 52.4913H247.862C248.814 52.4913 249.622 51.8002 249.768 50.8592L255.385 15.2178C255.411 15.0526 255.401 14.8837 255.356 14.7227C255.311 14.5617 255.231 14.4124 255.123 14.2852C255.014 14.1579 254.88 14.0557 254.728 13.9854C254.576 13.9152 254.412 13.8787 254.244 13.8784H247.832C247.556 13.8794 247.29 13.9785 247.081 14.158C246.873 14.3375 246.734 14.5857 246.691 14.8581Z" fill="#179BD7"/>
<path d="M19.3455 59.4185L20.4069 52.6666L18.0427 52.6118H6.75342L14.5989 2.78983C14.6222 2.6376 14.6994 2.49885 14.8164 2.39886C14.9334 2.29887 15.0823 2.24431 15.2361 2.24513H34.2714C40.5908 2.24513 44.9518 3.56217 47.2288 6.16169C48.2962 7.38118 48.976 8.65553 49.3048 10.0579C49.6498 11.5294 49.6558 13.2875 49.319 15.4318L49.2946 15.5883V16.9622L50.3621 17.5679C51.177 17.9814 51.9094 18.5407 52.5233 19.2183C53.4365 20.2609 54.0271 21.5861 54.2767 23.1572C54.5344 24.773 54.4492 26.6957 54.0271 28.8725C53.54 31.3765 52.7526 33.5574 51.6893 35.3419C50.751 36.9405 49.4895 38.3251 47.9857 39.4068C46.5733 40.4108 44.895 41.173 42.9976 41.6608C41.159 42.1405 39.0627 42.3823 36.7634 42.3823H35.282C34.2227 42.3823 33.1938 42.7644 32.3861 43.4494C31.5796 44.1416 31.0445 45.0981 30.8763 46.1485L30.7647 46.7562L28.8895 58.6563L28.8043 59.0933C28.782 59.2315 28.7434 59.3006 28.6866 59.3474C28.6316 59.3924 28.5629 59.4175 28.4918 59.4185H19.3455Z" fill="white"/>
<path d="M51.3728 15.7471C51.316 16.1109 51.251 16.4828 51.178 16.8649C48.6677 29.7731 40.0795 34.2324 29.1108 34.2324H23.5261C22.1847 34.2324 21.0543 35.208 20.8453 36.5331L17.9859 54.6953L17.1762 59.8435C17.144 60.0477 17.1563 60.2565 17.2123 60.4555C17.2684 60.6545 17.3668 60.8389 17.5008 60.9962C17.6349 61.1534 17.8014 61.2797 17.9888 61.3663C18.1762 61.4529 18.3802 61.4978 18.5866 61.4979H28.4919C29.6648 61.4979 30.6613 60.6443 30.8459 59.4858L30.9433 58.9817L32.8083 47.1284L32.928 46.478C33.1107 45.3154 34.1091 44.4618 35.2821 44.4618H36.7635C46.3603 44.4618 53.8729 40.5595 56.0687 29.2671C56.986 24.5497 56.5111 20.6108 54.084 17.8405C53.3147 16.9835 52.396 16.2741 51.3728 15.7471Z" fill="#179BD7"/>
<path d="M48.7467 14.699C47.9452 14.4668 47.1298 14.2856 46.3054 14.1564C44.6765 13.9056 43.0302 13.7854 41.3822 13.7966H26.4624C25.8946 13.7962 25.3454 13.9992 24.9141 14.369C24.4827 14.7388 24.1976 15.2509 24.1104 15.8128L20.9365 35.9465L20.8452 36.5339C20.9441 35.8929 21.2687 35.3086 21.7605 34.8866C22.2522 34.4646 22.8784 34.2328 23.526 34.2331H29.1107C40.0794 34.2331 48.6676 29.7718 51.1779 16.8657C51.2529 16.4835 51.3159 16.1116 51.3727 15.7478C50.7103 15.3999 50.0199 15.1082 49.3088 14.8759C49.1224 14.8139 48.935 14.755 48.7467 14.699Z" fill="#179BD7"/>
<path d="M24.1106 15.8121C24.197 15.25 24.4819 14.7376 24.9135 14.368C25.3451 13.9984 25.8947 13.7961 26.4626 13.7979H41.3823C43.1499 13.7979 44.7998 13.9137 46.3055 14.1576C47.3245 14.318 48.3294 14.5579 49.311 14.8751C50.0517 15.121 50.7397 15.4117 51.3748 15.747C52.1217 10.9768 51.3688 7.72892 48.7935 4.78793C45.9545 1.55021 40.8304 0.164062 34.2735 0.164062H15.2382C13.8989 0.164062 12.7564 1.13965 12.5494 2.46685L4.6207 52.801C4.58377 53.0347 4.59782 53.2736 4.66188 53.5013C4.72595 53.7291 4.83851 53.9402 4.99182 54.1202C5.14513 54.3002 5.33555 54.4448 5.54999 54.5441C5.76443 54.6434 5.99779 54.6949 6.23403 54.6953H17.986L20.9367 35.9457L24.1106 15.8121Z" fill="white"/>
</g>
<defs>
<filter id="filter0_d_358_5160" x="0.600586" y="0.164062" width="258.799" height="69.3364" filterUnits="userSpaceOnUse" color-interpolation-filters="sRGB">
<feFlood flood-opacity="0" result="BackgroundImageFix"/>
<feColorMatrix in="SourceAlpha" type="matrix" values="0 0 0 0 0 0 0 0 0 0 0 0 0 0 0 0 0 0 127 0" result="hardAlpha"/>
<feOffset dy="4"/>
<feGaussianBlur stdDeviation="2"/>
<feComposite in2="hardAlpha" operator="out"/>
<feColorMatrix type="matrix" values="0 0 0 0 0 0 0 0 0 0 0 0 0 0 0 0 0 0 0.25 0"/>
<feBlend mode="normal" in2="BackgroundImageFix" result="effect1_dropShadow_358_5160"/>
<feBlend mode="normal" in="SourceGraphic" in2="effect1_dropShadow_358_5160" result="shape"/>
</filter>
</defs>
</svg>
