<svg width="49" height="54" viewBox="0 0 49 54" fill="none" xmlns="http://www.w3.org/2000/svg">
<path d="M37.5247 37.6947H42.8581V5.69466H16.1914V11.028H37.5247V37.6947ZM37.5247 43.028V51.028C37.5247 52.5 36.3247 53.6947 34.8394 53.6947H2.87674C2.52508 53.6968 2.17647 53.6294 1.85093 53.4963C1.5254 53.3633 1.22936 53.1673 0.979829 52.9195C0.730297 52.6717 0.532187 52.377 0.396884 52.0524C0.261581 51.7278 0.191751 51.3797 0.191406 51.028L0.199406 13.6947C0.199406 12.2227 1.39941 11.028 2.88474 11.028H10.8581V3.02799C10.8581 2.32075 11.139 1.64247 11.6391 1.14238C12.1392 0.64228 12.8175 0.361328 13.5247 0.361328H45.5247C46.232 0.361328 46.9103 0.64228 47.4104 1.14238C47.9105 1.64247 48.1914 2.32075 48.1914 3.02799V40.3613C48.1914 41.0686 47.9105 41.7469 47.4104 42.2469C46.9103 42.747 46.232 43.028 45.5247 43.028H37.5247ZM10.8581 37.6947V43.028H16.1914V45.6947H21.5247V43.028H22.8581C24.6262 43.028 26.3219 42.3256 27.5721 41.0754C28.8224 39.8251 29.5247 38.1294 29.5247 36.3613C29.5247 34.5932 28.8224 32.8975 27.5721 31.6473C26.3219 30.397 24.6262 29.6947 22.8581 29.6947H14.8581C14.5045 29.6947 14.1653 29.5542 13.9153 29.3041C13.6652 29.0541 13.5247 28.715 13.5247 28.3613C13.5247 28.0077 13.6652 27.6686 13.9153 27.4185C14.1653 27.1685 14.5045 27.028 14.8581 27.028H26.8581V21.6947H21.5247V19.028H16.1914V21.6947H14.8581C13.09 21.6947 11.3943 22.397 10.144 23.6473C8.89379 24.8975 8.19141 26.5932 8.19141 28.3613C8.19141 30.1294 8.89379 31.8251 10.144 33.0754C11.3943 34.3256 13.09 35.028 14.8581 35.028H22.8581C23.2117 35.028 23.5508 35.1685 23.8009 35.4185C24.0509 35.6686 24.1914 36.0077 24.1914 36.3613C24.1914 36.715 24.0509 37.0541 23.8009 37.3041C23.5508 37.5542 23.2117 37.6947 22.8581 37.6947H10.8581Z" fill="white"/>
</svg>
