<svg width="51" height="50" viewBox="0 0 51 50" fill="none" xmlns="http://www.w3.org/2000/svg">
<g opacity="0.7">
<path d="M41.7952 45.8335H8.46191V41.6668C8.46191 38.9042 9.55938 36.2546 11.5129 34.3011C13.4664 32.3476 16.1159 31.2502 18.8786 31.2502H31.3786C34.1412 31.2502 36.7908 32.3476 38.7443 34.3011C40.6978 36.2546 41.7952 38.9042 41.7952 41.6668V45.8335ZM25.1286 27.0835C23.4871 27.0835 21.8616 26.7602 20.345 26.132C18.8285 25.5038 17.4505 24.5831 16.2897 23.4223C15.129 22.2616 14.2083 20.8836 13.5801 19.367C12.9519 17.8505 12.6286 16.225 12.6286 14.5835C12.6286 12.942 12.9519 11.3165 13.5801 9.79995C14.2083 8.28338 15.129 6.90539 16.2897 5.74466C17.4505 4.58393 18.8285 3.66319 20.345 3.035C21.8616 2.40682 23.4871 2.0835 25.1286 2.0835C28.4438 2.0835 31.6232 3.40046 33.9674 5.74466C36.3116 8.08887 37.6286 11.2683 37.6286 14.5835C37.6286 17.8987 36.3116 21.0781 33.9674 23.4223C31.6232 25.7665 28.4438 27.0835 25.1286 27.0835Z" fill="#677A88"/>
</g>
</svg>
