<svg width="46" height="48" viewBox="0 0 46 48" fill="none" xmlns="http://www.w3.org/2000/svg">
<g clip-path="url(#clip0_259_9459)">
<path d="M14.6471 2.67217C15.5137 1.75237 16.861 1.38794 18.0484 1.7487C19.9144 2.22879 21.202 3.88848 22.9853 4.54758C24.7686 3.89032 26.0553 2.23063 27.9203 1.74686C29.2958 1.31817 30.8532 1.90751 31.6935 3.10913C32.8738 4.62653 33.0145 6.68553 34.0217 8.29565C35.9324 8.81246 38.0304 8.24332 39.8576 9.18057C41.2234 9.81672 41.9934 11.4213 41.8466 12.9488C41.7903 14.7187 40.8851 16.3159 40.8288 18.0812C41.6128 19.1139 42.7554 19.7317 43.6642 20.6258C44.5835 21.452 45.3631 22.5526 45.4844 23.8488V24.4923C45.2945 26.1419 44.0922 27.3609 42.8969 28.3248C42.1771 28.9141 41.3887 29.4392 40.8279 30.2094C40.8921 31.9994 41.8202 33.6215 41.8501 35.4225C41.9731 36.9464 41.1654 38.5216 39.797 39.1284C37.9794 40.028 35.9078 39.468 34.0173 39.9894C33.0145 41.5986 32.8738 43.6558 31.6935 45.1695C30.8787 46.3262 29.4021 46.9274 28.0601 46.5658C26.1265 46.1315 24.8107 44.4039 22.9844 43.732C21.2652 44.3645 20.0198 45.9268 18.2541 46.4712C16.9779 46.9384 15.475 46.5584 14.5609 45.5147C13.1354 43.9899 13.022 41.718 11.9471 39.9839C10.1611 39.491 8.23369 39.9812 6.48379 39.2624C5.18125 38.8034 4.20479 37.5054 4.13008 36.0651C3.93672 34.0291 5.0582 32.2005 5.13994 30.202C4.40518 29.2125 3.32412 28.6158 2.44697 27.7841C1.48984 26.9478 0.654883 25.849 0.484375 24.5198V23.7818C0.675098 22.134 1.87744 20.9177 3.07188 19.9557C3.79346 19.3691 4.58008 18.8404 5.14082 18.0702C5.06699 16.1865 4.05537 14.4754 4.11426 12.5679C4.07559 11.0817 4.96504 9.63496 6.29658 9.09244C8.08955 8.26903 10.1031 8.8042 11.9532 8.29014C13.0378 6.52121 13.1485 4.19049 14.6471 2.67217ZM28.721 17.8288C26.0254 20.6368 23.3412 23.4559 20.6421 26.2594C19.4819 25.0706 18.3473 23.8561 17.188 22.6664C16.4075 21.8862 15.0101 22.0496 14.4098 22.9859C13.8895 23.7203 13.965 24.8292 14.5847 25.4754C16.1799 27.1452 17.7751 28.815 19.3765 30.4784C20.0761 31.1834 21.2951 31.1512 21.9666 30.4196C25.1025 27.147 28.2367 23.8736 31.37 20.5973C32.0934 19.8639 32.0758 18.5218 31.3278 17.8131C30.637 17.087 29.403 17.0944 28.721 17.8288Z" fill="#00C6BD"/>
</g>
<defs>
<clipPath id="clip0_259_9459">
<rect width="45" height="47" fill="white" transform="translate(0.484375 0.640625)"/>
</clipPath>
</defs>
</svg>
