<svg width="201" height="201" viewBox="0 0 201 201" fill="none" xmlns="http://www.w3.org/2000/svg">
<path d="M0.533551 0.353575C16.6236 0.345069 32.7137 0.349323 48.8038 0.351449C48.8038 16.4415 48.8059 32.5316 48.8038 48.6238C32.7116 48.626 16.6215 48.6238 0.531426 48.6238C0.529299 32.5338 0.525046 16.4437 0.533551 0.353575ZM7.42718 7.2472C7.42505 18.7401 7.42505 30.2309 7.42718 41.7238C18.918 41.726 30.4088 41.7323 41.8996 41.7196C41.9123 30.2288 41.9059 18.738 41.9038 7.2472C30.4109 7.24507 18.9201 7.24507 7.42718 7.2472Z" fill="#012239"/>
<path d="M62.6038 0.353575C64.896 0.345069 67.1882 0.349323 69.4826 0.351449C69.4932 2.64791 69.4826 4.94649 69.4889 7.24295C71.7875 7.2472 74.0882 7.24295 76.3868 7.24508C76.389 11.8401 76.3911 16.4373 76.3868 21.0323C74.0861 21.0387 71.7875 21.0366 69.4889 21.0345C69.4826 18.738 69.4911 16.4415 69.4826 14.1451C67.1861 14.1302 64.8875 14.1642 62.5889 14.1259C62.6081 9.53515 62.5804 4.94436 62.6038 0.353575Z" fill="#012239"/>
<path d="M76.3932 0.359957C78.6918 0.338693 80.9904 0.351453 83.289 0.351453C83.2932 2.65004 83.2932 4.94649 83.289 7.24295C80.9904 7.24933 78.6918 7.24721 76.3911 7.24508C76.3847 4.95075 76.3847 2.65429 76.3932 0.359957Z" fill="#012239"/>
<path d="M103.972 0.351469C108.567 0.347216 113.16 0.347216 117.753 0.351469C117.761 2.64793 117.761 4.94438 117.755 7.24297C115.459 7.2536 113.164 7.24084 110.868 7.24935C110.87 9.5458 110.876 11.8444 110.866 14.1408C108.567 14.143 106.271 14.143 103.974 14.1408C103.972 9.54368 103.972 4.94864 103.972 0.351469Z" fill="#012239"/>
<path d="M131.568 0.351469C136.163 0.347216 140.756 0.347216 145.351 0.351469C145.353 7.24509 145.351 14.1387 145.353 21.0302C140.758 21.0409 136.161 21.0366 131.566 21.0323C131.561 18.7359 131.561 16.4394 131.566 14.1451C133.864 14.1281 136.161 14.1642 138.459 14.1238C138.446 11.8316 138.459 9.53943 138.453 7.24509C136.156 7.24297 133.862 7.25147 131.566 7.24084C131.561 4.94438 131.559 2.64793 131.568 0.351469Z" fill="#012239"/>
<path d="M152.246 0.351449C168.337 0.349323 184.427 0.345069 200.517 0.353575C200.525 16.4437 200.521 32.5338 200.519 48.6238C184.429 48.6238 168.337 48.626 152.246 48.6238C152.244 32.5316 152.246 16.4415 152.246 0.351449ZM159.146 7.2472C159.144 18.738 159.138 30.2288 159.151 41.7196C170.642 41.7323 182.132 41.726 193.623 41.7238C193.625 30.2309 193.625 18.7401 193.623 7.2472C182.13 7.24507 170.639 7.24507 159.146 7.2472Z" fill="#012239"/>
<path d="M90.1805 7.24507C92.479 7.2472 94.7798 7.24082 97.0783 7.2472C97.0783 11.8422 97.0762 16.4373 97.0805 21.0302C101.676 21.0408 106.271 21.0323 110.866 21.0345C110.872 23.333 110.874 25.6337 110.866 27.9323C108.567 27.9366 106.271 27.9345 103.972 27.9345C103.974 34.8302 103.97 41.726 103.974 48.6238C106.271 48.6217 108.567 48.626 110.863 48.6196C110.872 50.9203 110.883 53.221 110.857 55.5217C108.563 55.5175 106.268 55.5175 103.974 55.5217C103.972 60.1146 103.976 64.7076 103.972 69.3026C101.673 69.3111 99.3769 69.3111 97.0783 69.3026C97.072 67.0061 97.0805 64.7097 97.0762 62.4153C94.7776 62.4175 92.479 62.4154 90.1826 62.4175C90.1783 60.1189 90.1783 57.8203 90.1826 55.5217C87.8861 55.5132 85.5918 55.526 83.2953 55.5153C83.289 48.6238 83.289 41.7323 83.2953 34.843C85.5897 34.8387 87.884 34.8387 90.1783 34.843C90.1826 39.4338 90.1826 44.0267 90.1783 48.6175C92.4769 48.6281 94.7755 48.6217 97.0762 48.6238C97.0783 44.0309 97.0762 39.438 97.0762 34.8472C94.7755 34.8302 92.4769 34.8493 90.1762 34.8345C90.1847 25.638 90.1783 16.4415 90.1805 7.24507Z" fill="#012239"/>
<path d="M124.663 7.24506C126.962 7.24506 129.261 7.24718 131.559 7.24293C131.57 9.54151 131.561 11.8401 131.563 14.1387C129.263 14.1408 126.962 14.1493 124.663 14.1344C124.661 11.838 124.659 9.54151 124.663 7.24506Z" fill="#012239"/>
<path d="M14.3251 14.1451C21.2229 14.1387 28.1208 14.1387 35.0187 14.1451C35.0187 21.0429 35.0251 27.9387 35.0166 34.8366C28.1187 34.8451 21.2229 34.8387 14.3251 34.8387C14.3187 27.9408 14.3187 21.0429 14.3251 14.1451Z" fill="#012239"/>
<path d="M110.87 14.1408C115.465 14.1387 120.062 14.1472 124.659 14.1366C124.663 18.7359 124.663 23.3373 124.659 27.9366C122.359 27.9345 120.058 27.9345 117.759 27.9366C117.755 25.6359 117.763 23.3352 117.755 21.0366C115.459 21.0323 113.164 21.0408 110.872 21.0323C110.866 18.7338 110.87 16.4373 110.87 14.1408Z" fill="#012239"/>
<path d="M166.032 14.1451C172.93 14.1387 179.827 14.1387 186.725 14.1451C186.732 21.0429 186.732 27.9408 186.725 34.8387C179.827 34.8387 172.932 34.8451 166.034 34.8366C166.025 27.9387 166.032 21.0429 166.032 14.1451Z" fill="#012239"/>
<path d="M55.6974 21.0366C57.9982 21.0345 60.2967 21.0302 62.5975 21.0387C62.5932 23.3373 62.5996 25.6359 62.5932 27.9345C60.2946 27.9366 57.9982 27.9323 55.6996 27.9366C55.6953 25.6359 55.6996 23.3373 55.6974 21.0366Z" fill="#012239"/>
<path d="M76.389 27.9366C78.6875 27.9302 80.9883 27.9366 83.2868 27.9345C83.2953 30.2352 83.2932 32.5359 83.2868 34.8387C80.9883 34.8408 78.6875 34.843 76.389 34.8366C76.389 32.5359 76.3868 30.2373 76.389 27.9366Z" fill="#012239"/>
<path d="M110.868 27.9366C113.164 27.9345 115.461 27.9281 117.757 27.9387C117.761 30.2394 117.753 32.538 117.763 34.8366C120.062 34.8408 122.363 34.843 124.661 34.8366C124.661 32.538 124.659 30.2373 124.663 27.9387C126.962 27.9302 129.263 27.9323 131.561 27.9387C131.563 34.8345 131.568 41.7302 131.559 48.626C129.261 48.6217 126.962 48.6217 124.666 48.626C124.659 55.5153 124.661 62.4068 124.663 69.2962C122.363 69.3175 120.06 69.3026 117.759 69.3068C117.755 67.0104 117.763 64.7139 117.755 62.4196C115.473 62.3303 113.145 62.5769 110.893 62.3069C110.823 60.0466 110.891 57.782 110.87 55.5196C113.164 55.5132 115.459 55.526 117.753 55.5132C117.761 53.2168 117.759 50.9224 117.755 48.626C115.461 48.6196 113.166 48.6302 110.874 48.6196C110.863 41.726 110.874 34.8302 110.868 27.9366ZM117.759 41.7323C117.757 44.0267 117.759 46.3231 117.757 48.6196C120.058 48.626 122.359 48.626 124.659 48.6196C124.661 46.3231 124.663 44.0267 124.659 41.7302C122.359 41.726 120.058 41.7238 117.759 41.7323Z" fill="#012239"/>
<path d="M55.6996 34.8451C60.2946 34.8366 64.8875 34.8387 69.4826 34.8451C69.4932 37.1373 69.4826 39.4316 69.489 41.726C71.7875 41.7281 74.0882 41.7217 76.389 41.7281C76.389 44.0267 76.3868 46.3253 76.389 48.6238C74.0904 48.626 71.7897 48.6217 69.4911 48.626C69.4804 46.3274 69.489 44.0288 69.4868 41.7302C67.1904 41.7238 64.8939 41.726 62.5975 41.7281C62.5953 44.0267 62.5932 46.3253 62.5996 48.6238C64.8939 48.6217 67.1882 48.6217 69.4826 48.626C69.4932 50.9224 69.4826 53.2189 69.489 55.5175C71.7875 55.5196 74.0861 55.5175 76.3847 55.5175C76.3911 69.3111 76.3911 83.1047 76.3847 96.9005C71.7897 96.8962 67.1946 96.8984 62.5975 96.8984C62.5911 94.5998 62.5974 92.3012 62.5953 90.0026C60.2967 89.9984 57.9982 90.0026 55.6996 90.0005C55.6932 87.7061 55.7059 85.4118 55.6932 83.1175C53.3967 83.1068 51.1024 83.109 48.8059 83.1154C48.7996 85.4097 48.8102 87.704 48.7996 89.9962C46.5031 90.0069 44.2066 89.9984 41.9081 90.0005C41.9038 92.2991 41.9102 94.5955 41.9038 96.8941C35.0081 96.9048 28.1123 96.8941 21.2166 96.8984C21.2081 94.5976 21.2229 92.2991 21.208 90.0005C18.9137 90.0047 16.6173 89.9962 14.3229 90.0047C14.3187 92.3033 14.3314 94.6019 14.3144 96.9005C9.72151 96.8941 5.12647 96.9005 0.531426 96.8984C0.537805 90.0005 0.50591 83.1047 0.548437 76.2069C2.83639 76.209 5.12434 76.2068 7.41229 76.209C7.44206 78.5076 7.4208 80.8083 7.42505 83.109C21.2187 83.1154 35.0123 83.1132 48.8059 83.109C48.8017 80.8104 48.8038 78.5097 48.8038 76.2111C46.5052 76.2047 44.2066 76.2111 41.9081 76.209C41.9038 73.9083 41.9081 71.6076 41.9059 69.309C37.3109 69.3047 32.7159 69.309 28.1187 69.3068C28.1102 67.0104 28.1123 64.7139 28.1187 62.4175C32.7137 62.409 37.3109 62.4217 41.9059 62.4111C41.9059 60.1146 41.9059 57.8182 41.9059 55.5217C44.2067 55.5175 46.5052 55.5153 48.8038 55.5217C48.8017 57.8203 48.8059 60.1168 48.8017 62.4153C46.5031 62.4196 44.2066 62.4111 41.9081 62.4196C41.8996 64.7076 41.9187 66.9976 41.8974 69.2856C44.1981 69.3302 46.501 69.292 48.8038 69.309C48.8059 71.6076 48.8017 73.9061 48.8059 76.2047C51.1003 76.209 53.3946 76.2111 55.6911 76.2047C55.7081 71.6097 55.6932 67.0125 55.6974 62.4175C57.996 62.4111 60.2946 62.4175 62.5932 62.4132C62.5974 60.1146 62.5932 57.816 62.5953 55.5175C60.2967 55.5196 57.9982 55.5217 55.6996 55.5175C55.6974 48.626 55.6974 41.7366 55.6996 34.8451ZM62.5932 76.2217C62.5996 78.5161 62.5911 80.8125 62.5996 83.1111C64.8939 83.1132 67.1882 83.1132 69.4826 83.1111C69.4847 80.8083 69.4953 78.5076 69.4762 76.2069C67.1819 76.2175 64.8875 76.1941 62.5932 76.2217Z" fill="#012239"/>
<path d="M138.453 41.7302C140.751 41.7239 143.05 41.7281 145.351 41.726C145.366 53.221 145.329 64.7139 145.368 76.209C149.959 76.2069 154.549 76.209 159.14 76.209C159.146 73.9083 159.142 71.6097 159.144 69.3111C156.844 69.3005 154.545 69.3154 152.246 69.3005C152.246 64.7076 152.246 60.1147 152.246 55.5217C156.839 55.5154 161.432 55.5175 166.025 55.5196C166.04 62.4154 166.021 69.3132 166.034 76.209C170.635 76.209 175.234 76.2047 179.834 76.2111C179.84 83.1069 179.83 90.0026 179.84 96.8984C182.134 96.9005 184.429 96.8877 186.725 96.9048C186.732 99.1991 186.732 101.491 186.725 103.786C184.429 103.803 182.134 103.79 179.84 103.792C179.827 106.093 179.844 108.391 179.832 110.692C175.23 110.688 170.631 110.69 166.032 110.69C166.025 112.984 166.036 115.279 166.025 117.575C163.733 117.586 161.439 117.573 159.146 117.581C159.14 119.88 159.149 122.181 159.142 124.481C154.549 124.484 149.959 124.481 145.366 124.481C145.334 122.183 145.355 119.882 145.353 117.584C143.052 117.569 140.754 117.592 138.453 117.569C138.453 115.276 138.459 112.984 138.451 110.692C136.156 110.688 133.862 110.688 131.568 110.692C131.557 115.287 131.568 119.884 131.563 124.479C129.263 124.484 126.964 124.486 124.663 124.477C124.657 122.179 124.661 119.882 124.663 117.584C122.363 117.575 120.062 117.577 117.761 117.581C117.757 126.778 117.755 135.976 117.763 145.173C120.062 145.177 122.363 145.154 124.661 145.186C124.661 147.474 124.661 149.762 124.661 152.05C120.066 152.09 115.469 152.056 110.872 152.067C110.866 156.657 110.872 161.25 110.87 165.841C108.571 165.862 106.271 165.839 103.97 165.854C103.976 170.453 103.972 175.055 103.972 179.654C106.273 179.66 108.571 179.645 110.872 179.662C110.857 181.959 110.895 184.259 110.849 186.558C108.556 186.539 106.264 186.554 103.972 186.547C103.976 188.846 103.968 191.145 103.976 193.443C101.678 193.447 99.3791 193.445 97.0805 193.443C97.0741 191.145 97.0762 188.846 97.0783 186.547C94.7798 186.55 92.4812 186.547 90.1847 186.55C90.172 191.145 90.1932 195.742 90.1741 200.337C80.984 200.343 71.7939 200.343 62.6038 200.337C62.5847 198.045 62.6017 195.75 62.5953 193.456C60.2967 193.43 57.9982 193.454 55.6996 193.443C55.6974 188.848 55.6996 184.253 55.6974 179.66C57.996 179.647 60.2946 179.656 62.5932 179.656C62.6123 172.758 62.5677 165.858 62.6145 158.96C64.9024 158.964 67.1904 158.96 69.4783 158.964C69.4975 156.664 69.4762 154.365 69.4911 152.064C78.6854 152.067 87.8819 152.069 97.0762 152.064C97.0805 149.772 97.0741 147.48 97.0805 145.19C92.4854 145.15 87.8904 145.184 83.2975 145.171C83.2826 142.872 83.2975 140.574 83.289 138.275C80.9883 138.277 78.6875 138.269 76.3868 138.279C76.389 140.578 76.3911 142.874 76.3847 145.173C74.0861 145.171 71.7875 145.171 69.489 145.173C69.4804 142.874 69.4911 140.576 69.4847 138.279C67.1882 138.273 64.8939 138.271 62.5975 138.279C62.5953 140.576 62.5932 142.874 62.5996 145.171C64.8939 145.173 67.1882 145.164 69.4847 145.177C69.4868 147.471 69.4911 149.768 69.4826 152.064C64.8875 152.069 60.2946 152.069 55.6996 152.064C55.6953 149.768 55.7038 147.471 55.6953 145.175C46.501 145.167 37.3066 145.175 28.1123 145.171C28.1144 142.874 28.1144 140.576 28.1123 138.279C30.4151 138.267 32.7159 138.279 35.0187 138.271C35.0208 135.976 35.0208 133.682 35.0187 131.388C30.4173 131.381 25.818 131.381 21.2166 131.388C21.2102 135.983 21.2229 140.578 21.2102 145.173C18.9158 145.171 16.6194 145.171 14.3251 145.173C14.3166 142.874 14.3229 140.576 14.3208 138.277C9.72576 138.267 5.12859 138.288 0.533551 138.267C0.525045 135.974 0.527173 133.68 0.531426 131.388C5.12859 131.375 9.72576 131.392 14.3229 131.379C14.3208 126.78 14.3208 122.179 14.3229 117.579C16.6194 117.577 18.9158 117.577 21.2123 117.579C21.2229 119.88 21.208 122.181 21.2208 124.484C23.5173 124.475 25.8159 124.49 28.1166 124.473C28.1123 122.176 28.1144 119.88 28.1144 117.584C30.4151 117.575 32.7159 117.575 35.0166 117.584C35.0251 119.88 35.0123 122.179 35.0251 124.477C39.618 124.484 44.2109 124.484 48.8038 124.479C48.8038 122.179 48.8017 119.88 48.8059 117.581C46.5052 117.571 44.2045 117.59 41.9059 117.571C41.9081 115.279 41.9038 112.986 41.9081 110.694C44.2066 110.684 46.5052 110.688 48.8038 110.692C48.8038 112.986 48.8017 115.281 48.8059 117.575C51.1024 117.584 53.3989 117.573 55.6974 117.581C55.7017 119.88 55.6974 122.179 55.6996 124.479C60.2946 124.484 64.8897 124.484 69.4847 124.477C69.4889 122.179 69.4804 119.88 69.4911 117.579C71.7875 117.575 74.0861 117.584 76.3847 117.575C76.3911 112.98 76.3868 108.387 76.3868 103.792C78.6875 103.792 80.9883 103.79 83.2911 103.794C83.2975 108.387 83.2847 112.98 83.2953 117.575C85.5897 117.581 87.884 117.581 90.1783 117.573C90.1847 110.686 90.1762 103.798 90.1826 96.9111C92.4812 96.8899 94.7819 96.8814 97.0805 96.9154C97.0762 99.2055 97.0741 101.498 97.0826 103.788C99.3769 103.798 101.673 103.788 103.97 103.794C103.976 106.093 103.97 108.391 103.974 110.69C110.87 110.688 117.766 110.694 124.661 110.686C124.663 108.389 124.659 106.091 124.661 103.794C122.361 103.792 120.06 103.796 117.761 103.79C117.753 101.493 117.763 99.197 117.755 96.9005C115.461 96.8941 113.166 96.8984 110.872 96.8984C110.868 92.3033 110.868 87.7083 110.872 83.1133C113.166 83.1111 115.461 83.1069 117.755 83.1154C117.768 87.7104 117.749 92.3055 117.763 96.9005C120.062 96.8941 122.359 96.8963 124.657 96.9005C124.666 94.5998 124.659 92.3012 124.661 90.0026C129.256 89.9984 133.849 90.0005 138.444 90.0005C138.468 92.2991 138.449 94.5977 138.455 96.8941C140.754 96.9005 143.052 96.892 145.351 96.9005C145.355 99.197 145.346 101.491 145.355 103.788C149.948 103.801 154.539 103.784 159.132 103.798C159.151 101.496 159.151 99.1948 159.132 96.892C156.835 96.9026 154.541 96.8984 152.246 96.8963C152.242 94.5977 152.255 92.2991 152.238 90.0005C147.645 90.0026 143.05 89.9984 138.457 90.0026C138.451 87.7104 138.453 85.4182 138.457 83.126C136.161 83.0962 133.862 83.1196 131.566 83.1111C131.563 80.8083 131.553 78.5076 131.574 76.2069C133.866 76.2069 136.161 76.2154 138.455 76.2026C138.453 69.3069 138.457 62.4132 138.451 55.5196C136.156 55.5154 133.862 55.526 131.568 55.5132C131.559 53.2168 131.559 50.9203 131.568 48.626C133.862 48.6217 136.156 48.6217 138.451 48.626C138.457 46.3253 138.453 44.0267 138.453 41.7302ZM166.032 83.1175C166.025 85.4097 166.036 87.704 166.025 89.9984C163.739 90.0005 161.451 90.009 159.166 89.992C159.121 92.2927 159.151 94.5934 159.146 96.892C161.439 96.9048 163.733 96.8877 166.027 96.9026C166.034 99.197 166.029 101.493 166.029 103.788C163.735 103.801 161.441 103.786 159.146 103.798C159.142 106.093 159.142 108.389 159.146 110.688C161.441 110.69 163.735 110.692 166.029 110.686C166.034 108.387 166.023 106.088 166.034 103.79C168.334 103.786 170.635 103.809 172.936 103.777C172.936 96.892 172.932 90.009 172.938 83.1239C170.635 83.1005 168.332 83.1111 166.032 83.1175ZM145.357 110.694C145.349 112.988 145.349 115.283 145.357 117.577C147.651 117.577 149.948 117.584 152.244 117.573C152.246 115.281 152.249 112.988 152.244 110.698C149.948 110.684 147.651 110.688 145.357 110.694ZM97.0805 117.581C97.0826 119.88 97.0613 122.181 97.0932 124.481C99.3833 124.484 101.673 124.475 103.963 124.486C103.985 126.784 103.968 129.083 103.974 131.381C106.273 131.384 108.571 131.386 110.87 131.379C110.868 126.78 110.87 122.181 110.87 117.581C106.273 117.575 101.676 117.577 97.0805 117.581ZM48.8059 124.486C48.8038 126.782 48.8038 129.081 48.8059 131.379C46.5052 131.392 44.2067 131.373 41.9059 131.392C41.9081 133.686 41.9059 135.981 41.9081 138.275C44.2045 138.273 46.5031 138.273 48.8017 138.275C48.8059 135.979 48.7996 133.684 48.8059 131.388C51.1003 131.379 53.3967 131.381 55.6932 131.386C55.7059 133.68 55.6953 135.976 55.6996 138.271C57.996 138.275 60.2925 138.275 62.5911 138.273C62.5996 135.976 62.5975 133.682 62.5911 131.386C60.2946 131.379 57.996 131.39 55.6974 131.381C55.6974 129.083 55.6996 126.782 55.6974 124.486C53.3989 124.479 51.1024 124.479 48.8059 124.486ZM69.489 124.484C69.4868 126.782 69.4847 129.081 69.489 131.381C71.7875 131.384 74.0861 131.384 76.3847 131.381C76.389 129.083 76.3911 126.784 76.3847 124.486C74.0861 124.477 71.7875 124.484 69.489 124.484ZM90.1805 131.392C90.2591 133.674 90.0295 135.993 90.2847 138.252C92.5471 138.315 94.8117 138.254 97.0762 138.273C97.0783 135.979 97.0762 133.684 97.0762 131.39C94.7776 131.381 92.479 131.377 90.1805 131.392ZM97.0783 138.284C97.0741 140.578 97.0826 142.874 97.072 145.169C101.671 145.173 106.271 145.169 110.87 145.173C110.868 142.872 110.872 140.574 110.868 138.275C106.271 138.279 101.673 138.264 97.0783 138.284ZM76.3868 165.837C78.6875 165.867 80.9883 165.841 83.2868 165.854C83.2932 168.154 83.2953 170.455 83.2868 172.756C78.6875 172.758 74.0882 172.752 69.489 172.758C69.4826 175.057 69.4911 177.355 69.4847 179.654C67.1882 179.66 64.8939 179.65 62.5975 179.658C62.5953 181.955 62.5932 184.249 62.5996 186.545C64.8918 186.552 67.184 186.547 69.4783 186.547C69.4996 188.846 69.4762 191.147 69.4911 193.445C74.0904 193.443 78.6897 193.443 83.289 193.445C83.2996 188.85 83.2826 184.253 83.2953 179.658C85.5897 179.65 87.884 179.658 90.1783 179.654C90.1783 172.758 90.1868 165.864 90.1741 158.971C85.5854 158.952 80.9967 158.975 76.4081 158.958C76.3634 161.25 76.4017 163.545 76.3868 165.837ZM97.0805 158.971C97.0783 161.263 97.072 163.555 97.0826 165.847C99.3769 165.854 101.671 165.85 103.968 165.85C103.976 163.557 103.972 161.263 103.97 158.971C101.673 158.958 99.3769 158.958 97.0805 158.971Z" fill="#012239"/>
<path d="M7.42718 55.5196C12.0222 55.5175 16.6151 55.5196 21.2102 55.5175C21.2229 60.1146 21.2102 64.7097 21.2166 69.3047C23.5173 69.309 25.8159 69.3047 28.1166 69.3068C28.1123 71.6054 28.1187 73.9061 28.1123 76.2047C25.8137 76.2132 23.5151 76.2111 21.2166 76.2068C21.2123 73.9061 21.2166 71.6076 21.2144 69.309C16.6173 69.3026 12.0222 69.3132 7.42505 69.3026C7.42505 64.7076 7.42292 60.1125 7.42718 55.5196Z" fill="#012239"/>
<path d="M172.938 55.5175C175.237 55.5196 177.535 55.5175 179.834 55.5196C179.842 60.1146 179.827 64.7097 179.84 69.3047C182.134 69.309 184.431 69.3026 186.727 69.309C186.73 71.6054 186.73 73.904 186.727 76.2026C184.431 76.2153 182.132 76.209 179.836 76.2068C179.832 73.9061 179.836 71.6076 179.834 69.3068C177.535 69.3047 175.237 69.3111 172.938 69.3047C172.934 64.7075 172.934 60.1125 172.938 55.5175Z" fill="#012239"/>
<path d="M83.2953 62.4175C85.5918 62.4111 87.8861 62.4154 90.1826 62.4154C90.1783 64.7118 90.1847 67.0062 90.1783 69.3026C87.884 69.3111 85.5897 69.309 83.2953 69.3026C83.289 67.0083 83.289 64.714 83.2953 62.4175Z" fill="#012239"/>
<path d="M186.732 62.4175C191.327 62.4175 195.922 62.4068 200.517 62.4238C200.521 67.0168 200.53 71.6097 200.512 76.2026C198.218 76.2132 195.926 76.2111 193.632 76.2047C193.615 73.9061 193.625 71.6097 193.627 69.3111C191.327 69.3005 189.03 69.3111 186.732 69.3068C186.725 67.0104 186.725 64.7139 186.732 62.4175Z" fill="#012239"/>
<path d="M110.872 69.309C113.166 69.3047 115.463 69.3047 117.757 69.309C117.757 71.6075 117.761 73.9061 117.755 76.2068C115.461 76.2111 113.166 76.2111 110.872 76.2068C110.868 73.9082 110.868 71.6075 110.872 69.309Z" fill="#012239"/>
<path d="M103.97 76.2132C106.268 76.2047 108.567 76.2068 110.868 76.2111C110.872 78.5097 110.872 80.8104 110.868 83.1132C108.569 83.1111 106.271 83.1132 103.974 83.1111C103.97 80.8104 103.976 78.5118 103.97 76.2132Z" fill="#012239"/>
<path d="M186.727 83.1218C189.026 83.1026 191.325 83.1111 193.623 83.1175C193.625 85.4097 193.627 87.7041 193.623 89.9984C191.331 90.0069 189.041 89.992 186.749 90.0069C186.702 87.7126 186.74 85.4182 186.727 83.1218Z" fill="#012239"/>
<path d="M48.7996 90.0069C51.1003 89.9984 53.401 89.9898 55.7017 90.0132C55.6953 92.3076 55.7038 94.6019 55.6953 96.8962C53.3967 96.8984 51.096 96.8984 48.7974 96.8984C48.8081 94.5998 48.8038 92.3033 48.7996 90.0069Z" fill="#012239"/>
<path d="M97.0911 90.0026C99.3812 89.9984 101.669 89.9984 103.959 90.0026C103.987 92.2991 103.97 94.5977 103.97 96.8962C101.671 96.8984 99.3727 96.8984 97.0741 96.8962C97.0868 94.5977 97.0592 92.2991 97.0911 90.0026Z" fill="#012239"/>
<path d="M193.627 90.0047C195.924 89.9962 198.22 89.9984 200.519 90.0026C200.521 94.5977 200.525 99.1948 200.517 103.79C198.22 103.794 195.924 103.796 193.63 103.79C193.619 99.1948 193.625 94.5998 193.627 90.0047Z" fill="#012239"/>
<path d="M41.9208 96.8899C44.2173 96.9175 46.5137 96.8643 48.8102 96.9218C48.7953 99.2097 48.8081 101.5 48.8038 103.79C46.5074 103.798 44.213 103.786 41.9187 103.798C41.8974 101.496 41.8953 99.1927 41.9208 96.8899Z" fill="#012239"/>
<path d="M21.2187 103.792C28.1123 103.796 35.0081 103.786 41.9038 103.796C41.9102 106.091 41.9038 108.387 41.9081 110.681C35.0123 110.703 28.1144 110.684 21.2187 110.692C21.2102 108.391 21.2123 106.093 21.2187 103.792Z" fill="#012239"/>
<path d="M55.6996 103.792C60.2946 103.792 64.8875 103.792 69.4826 103.792C69.4911 108.387 69.4868 112.982 69.4847 117.575C67.1882 117.579 64.8939 117.581 62.5975 117.575C62.5783 115.276 62.6272 112.978 62.5698 110.681C60.2797 110.698 57.9897 110.686 55.7017 110.69C55.6953 108.391 55.6974 106.091 55.6996 103.792Z" fill="#012239"/>
<path d="M0.53355 110.696C5.12859 110.681 9.72364 110.69 14.3187 110.692C14.3251 112.986 14.3251 115.283 14.3187 117.577C12.0201 117.581 9.72364 117.573 7.42505 117.581C7.4208 119.882 7.44206 122.183 7.41229 124.481C5.12434 124.481 2.83639 124.481 0.548436 124.484C0.505909 119.888 0.535677 115.291 0.53355 110.696Z" fill="#012239"/>
<path d="M186.727 117.569C186.74 115.272 186.704 112.978 186.749 110.684C191.337 110.703 195.928 110.675 200.517 110.696C200.525 117.592 200.521 124.486 200.519 131.381C198.222 131.39 195.926 131.379 193.63 131.388C193.621 135.981 193.625 140.576 193.627 145.171C195.924 145.175 198.218 145.167 200.515 145.173C200.525 149.77 200.525 154.367 200.515 158.964C198.216 158.952 195.917 158.988 193.619 158.945C193.63 156.651 193.621 154.357 193.625 152.064C191.327 152.069 189.028 152.069 186.732 152.064C186.725 145.171 186.725 138.277 186.732 131.384C189.03 131.379 191.329 131.39 193.627 131.379C193.621 126.78 193.625 122.181 193.625 117.581C191.325 117.569 189.026 117.592 186.727 117.569Z" fill="#012239"/>
<path d="M172.938 117.579C175.237 117.577 177.533 117.579 179.832 117.579C179.842 119.88 179.825 122.183 179.842 124.483C182.137 124.481 184.433 124.475 186.727 124.488C186.73 126.784 186.73 129.083 186.727 131.381C184.431 131.388 182.134 131.379 179.838 131.388C179.836 138.279 179.832 145.171 179.84 152.064C182.137 152.071 184.431 152.058 186.727 152.071C186.727 154.365 186.732 156.662 186.725 158.958C184.431 158.971 182.137 158.962 179.844 158.962C179.825 161.257 179.842 163.551 179.834 165.845C177.533 165.858 175.234 165.841 172.936 165.854C172.936 172.754 172.94 179.652 172.934 186.552C168.339 186.541 163.744 186.562 159.149 186.541C159.134 181.946 159.151 177.351 159.14 172.756C156.842 172.754 154.545 172.758 152.246 172.756C152.242 177.351 152.255 181.948 152.24 186.545C149.948 186.556 147.656 186.545 145.366 186.549C145.338 188.846 145.355 191.145 145.355 193.443C147.649 193.45 149.946 193.437 152.242 193.45C152.251 195.744 152.249 198.04 152.242 200.337C147.645 200.337 143.048 200.358 138.451 200.326C138.457 193.437 138.455 186.547 138.453 179.658C136.156 179.654 133.862 179.652 131.566 179.66C131.557 184.255 131.572 188.85 131.559 193.447C129.261 193.443 126.962 193.445 124.663 193.445C124.657 191.149 124.661 188.85 124.663 186.554C122.361 186.543 120.06 186.554 117.759 186.545C117.757 177.353 117.757 168.159 117.761 158.966C120.054 158.956 122.348 158.971 124.644 158.958C124.689 165.856 124.646 172.756 124.666 179.654C126.964 179.656 129.263 179.654 131.563 179.654C131.572 172.756 131.546 165.858 131.574 158.96C133.866 158.964 136.159 158.964 138.453 158.962C138.455 154.367 138.457 149.774 138.451 145.179C136.156 145.162 133.862 145.177 131.568 145.173C131.555 142.872 131.57 140.574 131.559 138.275C129.263 138.275 126.964 138.275 124.668 138.275C124.655 135.979 124.661 133.682 124.663 131.386C126.964 131.377 129.263 131.386 131.561 131.381C131.566 129.083 131.559 126.782 131.566 124.483C133.862 124.481 136.159 124.475 138.455 124.488C138.455 126.784 138.455 129.083 138.455 131.379C145.351 131.394 152.249 131.371 159.144 131.392C159.144 133.684 159.142 135.976 159.146 138.271C163.737 138.281 168.33 138.269 172.923 138.277C172.951 135.983 172.927 133.688 172.938 131.394C170.635 131.371 168.334 131.394 166.032 131.379C166.027 129.081 166.029 126.782 166.032 124.486C168.332 124.475 170.633 124.483 172.934 124.481C172.94 122.181 172.929 119.88 172.938 117.579ZM145.355 145.175C145.351 152.066 145.349 158.956 145.357 165.845C152.246 165.852 159.136 165.854 166.025 165.845C166.034 158.956 166.032 152.066 166.025 145.177C159.136 145.169 152.246 145.171 145.355 145.175ZM138.459 172.758C138.453 175.057 138.453 177.355 138.457 179.656C140.756 179.654 143.052 179.656 145.351 179.654C145.351 177.355 145.351 175.057 145.353 172.758C143.054 172.754 140.756 172.754 138.459 172.758Z" fill="#012239"/>
<path d="M0.531426 152.067C16.6215 152.067 32.7116 152.064 48.8038 152.067C48.8059 168.157 48.8038 184.249 48.8038 200.339C32.7137 200.341 16.6236 200.345 0.533551 200.337C0.525046 184.247 0.529299 168.157 0.531426 152.067ZM7.42718 158.967C7.42505 170.459 7.42505 181.95 7.42718 193.443C18.9201 193.445 30.4109 193.445 41.9038 193.443C41.9059 181.952 41.9123 170.462 41.8996 158.971C30.4088 158.958 18.918 158.964 7.42718 158.967Z" fill="#012239"/>
<path d="M152.246 152.066C154.547 152.066 156.846 152.062 159.146 152.071C159.142 154.367 159.146 156.666 159.142 158.962C156.846 158.966 154.547 158.962 152.251 158.966C152.242 156.666 152.246 154.367 152.246 152.066Z" fill="#012239"/>
<path d="M186.729 158.964C189.028 158.962 191.325 158.962 193.623 158.964C193.63 165.86 193.621 172.756 193.627 179.652C195.924 179.66 198.22 179.647 200.519 179.658C200.519 181.954 200.527 184.249 200.515 186.543C193.621 186.554 186.729 186.547 179.838 186.547C179.832 181.95 179.832 177.353 179.838 172.758C182.134 172.752 184.431 172.758 186.727 172.754C186.73 168.157 186.725 163.559 186.729 158.964Z" fill="#012239"/>
<path d="M14.3251 165.852C21.2229 165.852 28.1187 165.845 35.0166 165.854C35.0251 172.752 35.0187 179.647 35.0187 186.545C28.1208 186.552 21.2229 186.552 14.3251 186.545C14.3187 179.647 14.3187 172.749 14.3251 165.852Z" fill="#012239"/>
<path d="M172.936 186.554C175.237 186.541 177.535 186.547 179.836 186.552C179.834 191.147 179.838 195.744 179.834 200.339C172.938 200.341 166.044 200.345 159.149 200.337C159.138 198.042 159.142 195.746 159.146 193.452C163.744 193.435 168.341 193.45 172.938 193.443C172.934 191.147 172.934 188.85 172.936 186.554Z" fill="#012239"/>
<path d="M103.97 193.46C108.565 193.426 113.16 193.447 117.755 193.447C117.761 195.744 117.761 198.042 117.753 200.339C113.16 200.343 108.567 200.343 103.974 200.339C103.97 198.045 103.976 195.752 103.97 193.46Z" fill="#012239"/>
<path d="M193.627 193.447C195.924 193.441 198.218 193.441 200.515 193.45C200.525 195.744 200.523 198.04 200.517 200.337C198.22 200.343 195.924 200.345 193.63 200.335C193.621 198.038 193.621 195.744 193.627 193.447Z" fill="#012239"/>
</svg>
