<svg width="31" height="31" viewBox="0 0 31 31" fill="none" xmlns="http://www.w3.org/2000/svg">
<path d="M11.8952 0.337891V3.67122H3.56185V27.0046H26.8952V18.6712H30.2285V28.6712C30.2285 29.1133 30.0529 29.5372 29.7404 29.8497C29.4278 30.1623 29.0039 30.3379 28.5618 30.3379H1.89518C1.45315 30.3379 1.02923 30.1623 0.716671 29.8497C0.40411 29.5372 0.228516 29.1133 0.228516 28.6712V2.00456C0.228516 1.56253 0.40411 1.13861 0.716671 0.826046C1.02923 0.513485 1.45315 0.337891 1.89518 0.337891H11.8952ZM24.5385 3.67122H16.8952V0.337891H30.2285V13.6712H26.8952V6.02789L15.2285 17.6946L12.8718 15.3379L24.5385 3.67122Z" fill="#677A88"/>
</svg>
