<svg width="45" height="45" viewBox="0 0 45 45" fill="none" xmlns="http://www.w3.org/2000/svg">
<path d="M2.33585 43.0587C7.22311 43.0638 12.1095 43.0604 16.9968 43.0604C17.0037 41.8392 17.0002 40.6172 16.9985 39.396C14.1995 39.3909 11.3997 39.3986 8.59983 39.3917C12.4369 35.5426 16.2887 31.7081 20.1258 27.8581C19.269 26.9901 18.4053 26.1273 17.5373 25.2696C13.6882 29.1076 9.8528 32.9593 6.0028 36.7964C5.99593 33.9966 6.00452 31.1959 5.99851 28.396C4.77733 28.3943 3.5553 28.3909 2.33413 28.3977C2.33413 33.285 2.33069 38.1714 2.33585 43.0587Z" fill="#012239"/>
<path d="M28.0037 43.0604C32.891 43.0604 37.7774 43.0638 42.6647 43.0587C42.6698 38.1714 42.6664 33.285 42.6664 28.3977C41.4452 28.3909 40.2232 28.3943 39.002 28.396C38.9969 31.1959 39.0046 33.9957 38.9986 36.7956C35.1494 32.9576 31.314 29.1067 27.4649 25.2696C26.5969 26.1273 25.735 26.9909 24.8765 27.8572C28.7144 31.7063 32.5653 35.5426 36.4033 39.3917C33.6026 39.3986 30.8027 39.3909 28.002 39.396C28.0003 40.6172 27.9969 41.8392 28.0037 43.0604Z" fill="#012239"/>
<path d="M6.0028 8.99176C9.8528 12.8289 13.6882 16.6806 17.5373 20.5186C18.4044 19.6609 19.2681 18.7989 20.1258 17.9301C16.2887 14.0801 12.4369 10.2456 8.59983 6.39645C11.3997 6.38957 14.1987 6.39731 16.9985 6.39215C17.0002 5.17098 17.0037 3.94894 16.9968 2.72777C12.1095 2.72777 7.22311 2.72433 2.33585 2.72949C2.33069 7.61676 2.33413 12.5032 2.33413 17.3904C3.5553 17.3973 4.77733 17.3939 5.99851 17.3922C6.00452 14.5923 5.99593 11.7916 6.0028 8.99176Z" fill="#012239"/>
<path d="M24.8765 17.931C25.735 18.7972 26.5969 19.6609 27.4649 20.5186C31.314 16.6814 35.1503 12.8306 38.9986 8.99262C39.0046 11.7925 38.9969 14.5923 39.002 17.3922C40.2232 17.3939 41.4452 17.3973 42.6664 17.3904C42.6664 12.5032 42.6698 7.61676 42.6647 2.72949C37.7774 2.72433 32.891 2.72777 28.0037 2.72777C27.9969 3.94894 28.0003 5.17098 28.002 6.39215C30.8027 6.39731 33.6026 6.38957 36.4033 6.39645C32.5653 10.2456 28.7144 14.0818 24.8765 17.931Z" fill="#012239"/>
</svg>
