<svg width="65" height="65" viewBox="0 0 65 65" fill="none" xmlns="http://www.w3.org/2000/svg">
<path d="M48.5823 45.007L60.0037 56.4257L56.2303 60.199L44.8117 48.7777C40.563 52.1836 35.2783 54.0361 29.833 54.0283C16.585 54.0283 5.83301 43.2763 5.83301 30.0283C5.83301 16.7803 16.585 6.02832 29.833 6.02832C43.081 6.02832 53.833 16.7803 53.833 30.0283C53.8408 35.4737 51.9883 40.7583 48.5823 45.007ZM43.233 43.0283C46.6173 39.548 48.5073 34.8828 48.4997 30.0283C48.4997 19.7137 40.145 11.3617 29.833 11.3617C19.5183 11.3617 11.1663 19.7137 11.1663 30.0283C11.1663 40.3403 19.5183 48.695 29.833 48.695C34.6875 48.7026 39.3527 46.8126 42.833 43.4283L43.233 43.0283Z" fill="#012239"/>
</svg>
