<svg width="52" height="54" viewBox="0 0 52 54" fill="none" xmlns="http://www.w3.org/2000/svg">
<path d="M20.7352 0.643255C24.3323 -0.111055 28.0467 -0.112871 31.6445 0.637922C31.8842 2.22002 32.4774 3.72776 33.38 5.04907C34.2825 6.37037 35.4713 7.47127 36.8579 8.26992C38.2434 9.07134 39.7917 9.55009 41.3877 9.67059C42.9838 9.79109 44.5864 9.55023 46.0765 8.96592C48.5253 11.7074 50.3802 14.926 51.5245 18.4193C50.2748 19.4181 49.2662 20.6858 48.5737 22.128C47.8812 23.5703 47.5226 25.15 47.5245 26.7499C47.5245 30.1206 49.0872 33.1259 51.5299 35.0806C50.3788 38.5709 48.5216 41.787 46.0739 44.5286C44.5841 43.9447 42.982 43.7041 41.3864 43.8246C39.7909 43.9451 38.243 44.4236 36.8579 45.2246C35.4724 46.023 34.2846 47.1232 33.3825 48.4435C32.4805 49.7638 31.8873 51.2703 31.6472 52.8513C28.0504 53.6073 24.3361 53.611 20.7379 52.8619C20.4993 51.2784 19.9067 49.7691 19.0041 48.4463C18.1014 47.1235 16.9121 46.0214 15.5245 45.2219C14.1388 44.4209 12.5904 43.9426 10.9944 43.8226C9.39834 43.7026 7.79579 43.9439 6.30587 44.5286C3.8568 41.7863 2.00189 38.5668 0.857873 35.0726C2.10692 34.0743 3.11509 32.8075 3.80757 31.3662C4.50004 29.9249 4.85902 28.3462 4.85787 26.7473C4.85918 25.1469 4.49976 23.5669 3.80632 22.1246C3.11288 20.6824 2.10327 19.4149 0.852539 18.4166C2.00365 14.9262 3.86085 11.7102 6.30854 8.96859C7.79828 9.55248 9.40046 9.79312 10.996 9.67262C12.5915 9.55212 14.1394 9.07359 15.5245 8.27259C16.91 7.47418 18.0978 6.37399 18.9999 5.05367C19.902 3.73336 20.4951 2.22683 20.7352 0.645922V0.643255ZM26.1912 34.7499C28.3129 34.7499 30.3478 33.9071 31.8481 32.4068C33.3484 30.9065 34.1912 28.8717 34.1912 26.7499C34.1912 24.6282 33.3484 22.5934 31.8481 21.0931C30.3478 19.5928 28.3129 18.7499 26.1912 18.7499C24.0695 18.7499 22.0346 19.5928 20.5344 21.0931C19.0341 22.5934 18.1912 24.6282 18.1912 26.7499C18.1912 28.8717 19.0341 30.9065 20.5344 32.4068C22.0346 33.9071 24.0695 34.7499 26.1912 34.7499Z" fill="white"/>
</svg>
