<svg width="65" height="65" viewBox="0 0 65 65" fill="none" xmlns="http://www.w3.org/2000/svg">
<path d="M4.10822 0.980469H61.6537C63.2624 1.269 64.5627 2.57423 64.8587 4.18049V22.7536C64.5439 24.5247 62.9502 25.9986 61.1153 25.9586C54.0083 25.9511 46.8988 25.9849 39.7918 25.9424C38.6277 23.804 36.4382 22.2552 34.0213 21.923C30.8413 21.4071 27.4876 23.1083 25.975 25.9424C18.868 25.9849 11.7598 25.9511 4.65155 25.9586C2.82047 25.9986 1.22546 24.531 0.908203 22.7624V4.18674C1.19673 2.57798 2.50072 1.27524 4.10822 0.980469ZM18.7731 7.35553C17.4579 7.92134 16.4911 9.27405 16.5086 10.7242C16.4674 12.1031 17.348 13.4733 18.6482 13.9579C19.6962 14.4338 20.799 14.781 21.837 15.2756C22.2754 15.4505 22.6326 16.0288 22.203 16.4123C21.2287 17.3253 19.5987 16.8582 18.7294 16.0076C18.2773 15.483 17.4954 15.2632 16.8571 15.5729C15.9578 15.9426 15.648 17.2191 16.2888 17.9561C17.6178 19.5011 19.7698 20.2406 21.7745 19.9645C23.3308 19.7334 24.8059 18.6893 25.3255 17.1704C25.8077 15.8814 25.4442 14.3551 24.47 13.3909C23.1672 12.0669 21.2312 11.8021 19.6412 10.9627C19.6137 10.6929 19.6749 10.3894 19.946 10.2645C20.819 9.83986 21.9544 10.0285 22.6514 10.7054C23.3308 11.3462 24.5424 11.1214 24.9896 10.317C25.4042 9.6525 25.1906 8.74945 24.6024 8.26108C23.061 6.85842 20.6729 6.54741 18.7731 7.35553ZM29.0452 7.01954C28.4569 7.23562 28.0322 7.83391 28.0434 8.46467C28.0347 10.8004 28.0322 13.1373 28.0459 15.4742C28.0422 18.0722 30.6302 20.1294 33.1307 20.022C35.4964 20.0045 37.9295 18.1896 38.0857 15.7253C38.1231 13.3059 38.1007 10.884 38.0982 8.46467C38.1206 7.62282 37.3475 6.8759 36.5081 6.91962C35.6875 6.91213 34.9643 7.6578 34.9868 8.47716C34.9731 10.7254 34.9843 12.9749 34.9818 15.2232C35.068 16.2162 34.0026 16.8557 33.1283 16.9006C32.204 16.9556 31.0698 16.2511 31.1598 15.2244C31.1585 12.9749 31.1685 10.7267 31.1548 8.47716C31.1985 7.42922 30.0144 6.60486 29.0452 7.01954ZM41.5505 7.04202C40.941 7.29433 40.5587 7.95007 40.6025 8.60331C40.605 11.8895 40.595 15.1782 40.6075 18.4644C40.585 19.2838 41.3094 20.0307 42.1313 20.0195C43.3353 20.0307 44.5394 20.0245 45.7435 20.0082C47.2148 19.9695 48.6138 19.0802 49.307 17.7875C50.1351 16.2999 49.944 14.3126 48.8124 13.0324C48.675 12.8475 48.3689 12.6527 48.5613 12.3979C49.2058 11.0539 48.9635 9.35648 47.9767 8.24234C47.1874 7.31931 45.9546 6.83843 44.7493 6.91587C43.6863 6.98332 42.5872 6.77723 41.5505 7.04202Z" fill="white"/>
<path d="M43.7338 10.0509C44.2734 10.0572 44.8292 9.976 45.3588 10.0984C45.9396 10.322 45.9346 11.2413 45.3488 11.4561C44.8192 11.5735 44.2684 11.4998 43.73 11.5023C43.7176 11.0189 43.7188 10.5343 43.7338 10.0509Z" fill="white"/>
<path d="M43.755 14.6324C44.5744 14.7223 45.4899 14.43 46.2393 14.8572C46.9913 15.3581 46.7527 16.6571 45.8671 16.8507C45.1614 16.9369 44.4432 16.8856 43.7325 16.8919C43.73 16.1387 43.6926 15.3843 43.755 14.6324Z" fill="white"/>
<path d="M28.7679 29.5771C28.7766 27.4212 30.7314 25.5377 32.8834 25.5889C34.9906 25.5365 36.9116 27.3401 36.9915 29.4472C37.0402 32.8333 36.964 36.2219 37.029 39.6081C37.3213 38.4502 37.9882 37.3523 39.0574 36.7653C40.6387 35.806 42.8445 36.1158 44.101 37.4722C44.7118 38.078 45.0215 38.8986 45.2489 39.7105C45.5711 38.1192 46.7577 36.6978 48.3727 36.3281C50.3562 35.7835 52.6007 36.9876 53.2489 38.9373C53.6336 39.954 53.4288 41.0544 53.515 42.1111C53.8922 40.3013 55.4722 38.7887 57.3532 38.7113C59.5478 38.5139 61.6449 40.3612 61.7224 42.5633C61.7536 46.0631 61.7286 49.5653 61.7348 53.0664C61.7411 57.0083 60.0337 60.9091 57.1434 63.587C56.5763 64.0978 56.003 64.6312 55.2911 64.9309H29.4723C29.1738 64.7998 28.8703 64.6612 28.6317 64.4338C26.9555 62.6977 25.2081 61.0315 23.5157 59.3103C21.0526 56.7423 19.9809 52.924 20.7741 49.4504C21.2887 46.7813 23.0286 44.5855 25.007 42.8131C25.0283 45.817 25.0045 48.8209 25.017 51.8249C25.007 52.6592 25.6253 53.4361 26.4334 53.6322C27.2391 53.8533 28.1496 53.4386 28.5343 52.7029C28.8566 52.1271 28.7454 51.4451 28.7616 50.8156C28.7654 43.7361 28.7541 36.6566 28.7679 29.5771Z" fill="white"/>
</svg>
