<svg width="255" height="294" viewBox="0 0 255 294" fill="none" xmlns="http://www.w3.org/2000/svg">
<path d="M35.9496 91.6093C36.1534 85.0632 42.1136 79.485 48.6597 79.6633C67.3808 79.6633 86.102 79.5869 104.823 79.7016C105.129 86.948 104.479 94.2327 105.294 101.454C106.504 110.662 115.916 117.615 125.085 116.112C131.262 115.921 135.223 110.725 138.305 106.026C138.954 105.262 139.782 104.765 140.814 104.523C144.94 118.443 167.495 120.85 172.512 106.497C173.111 106.153 174.308 105.465 174.907 105.134C175.301 109.057 175.734 112.979 176.193 116.902C174.397 117.259 172.321 117.118 171.124 118.749C159.573 130.109 148.34 141.813 136.649 153.02C132.778 150.154 130.09 144.895 125.162 143.952C119.431 145.086 121.736 151.657 125.582 153.644C129.836 156.751 134.79 166.558 140.533 160.788C153.205 147.416 167.418 135.343 179.071 121.117C187.145 130.542 203.218 129.039 208.414 117.411C222.792 110.356 220.843 93.0611 220.614 79.727C226.46 79.8544 232.509 78.9247 238.227 80.4275C243.5 82.1086 246.9 87.5976 246.684 93.0356C246.684 125.638 246.709 158.241 246.671 190.844C246.735 197.352 241.22 203.465 234.611 203.491C172.589 203.529 110.58 203.503 48.5578 203.503C41.9353 203.796 35.886 197.81 35.9369 191.214C35.6695 178.733 36.8793 166.29 37.4142 153.835C44.0749 154.013 50.952 156.458 57.4726 154.026C66.3875 151.148 72.7043 141.863 71.8892 132.503C71.5835 122.939 63.7512 114.648 54.5307 112.852C48.2521 111.82 41.9735 110.509 35.9242 108.522C35.886 102.88 35.8605 97.2511 35.9496 91.6093ZM109.153 128.657C109.153 144.372 109.09 160.088 109.191 175.804C108.822 178.223 111.484 179.611 113.534 179.611C128.868 179.637 144.201 179.637 159.548 179.611C161.738 179.828 164.463 178.414 164.209 175.88C164.183 169.105 164.336 162.329 164.132 155.567C163.712 151.912 157.166 151.886 156.695 155.516C156.351 160.865 156.771 166.239 156.529 171.614C143.412 171.728 130.294 171.677 117.189 171.639C117.037 158.522 117.024 145.391 117.189 132.274C126.907 131.968 136.649 132.426 146.366 132.057C150.009 131.229 150.2 125.486 146.647 124.378C135.63 124.034 124.601 124.314 113.585 124.238C111 123.754 108.669 126.071 109.153 128.657Z" fill="white"/>
<path d="M72.7311 17.8958C75.3673 1.28868 98.9025 -5.00264 109.664 7.78379C115.268 13.5275 115.65 21.9202 115.14 29.4596C124.921 22.2895 138.574 24.6838 146.47 33.3057C156.811 19.424 180.983 24.3909 184.714 41.431C194.164 33.3439 210.147 35.025 216.91 45.7228C222.309 53.2877 220.068 62.9794 220.641 71.6141C227.964 72.1999 235.707 70.4169 242.661 73.5116C250.226 76.67 254.925 84.859 254.645 92.946C254.594 126.096 254.721 159.247 254.581 192.385C254.237 204.42 242.189 213.169 230.6 211.577C230.078 221.332 226.385 230.693 220.004 238.105C219.8 249.516 220.055 260.927 219.902 272.338C219.304 283.749 209.268 293.81 197.755 293.925C158.199 293.937 118.655 293.937 79.1116 293.925C71.2283 293.976 64.8605 286.538 64.6186 278.935C64.4148 265.996 64.7332 253.031 64.4785 240.092C56.8499 232.591 52.176 222.288 51.9977 211.552C43.0319 212.545 33.4421 208.189 29.787 199.657C26.6541 193.646 28.8191 186.654 27.5328 180.388C13.9186 165.513 -0.154133 147.454 1.06847 126.147C1.90902 112.953 15.8671 105.694 27.9149 107.235C28.0804 101.644 27.8003 96.0407 28.004 90.4499C28.5517 81.6114 35.5689 73.5626 44.3564 72.1107C53.5387 70.7735 63.1922 72.7093 72.1834 71.1429C72.5782 53.4023 71.5212 35.5854 72.7311 17.8958ZM80.3087 21.6782C80.0412 38.3107 80.1049 54.956 80.2705 71.5886C86.6764 71.7924 93.1078 71.7796 99.5138 71.5886C102.01 71.7541 104.532 71.7541 107.04 71.5249C107.232 55.3254 107.231 39.1003 107.231 22.8881C107.55 17.5264 104.162 12.6487 99.5647 10.1526C91.3758 5.87345 80.4487 12.4959 80.3087 21.6782ZM125.367 33.5477C119.445 35.1014 114.924 40.9597 115.191 47.1365C115.204 60.3177 115.14 73.4989 115.217 86.6929C115.166 94.7417 123.546 101.619 131.403 99.6194C137.504 98.5496 142.101 92.7677 142.216 86.6292C142.28 73.0532 142.318 59.4771 142.203 45.9011C141.91 37.8013 133.263 31.1407 125.367 33.5477ZM159.842 33.675C154.06 35.3179 149.883 41.138 150.201 47.1619C150.226 60.3304 150.15 73.4989 150.239 86.6674C149.997 95.353 159.842 102.51 167.993 99.1864C173.762 97.378 177.366 91.3923 177.238 85.483C177.226 72.2636 177.468 59.0187 177.111 45.8119C176.818 37.5339 167.776 30.9751 159.842 33.675ZM194.266 45.1879C188.942 47.3402 185.198 52.8547 185.542 58.6493C185.593 71.7923 185.478 84.9481 185.593 98.0912C185.733 105.529 192.827 111.922 200.239 111.094C207.281 110.585 212.923 103.937 212.605 96.9322C212.592 83.7383 212.707 70.5188 212.554 57.3248C212.503 48.5119 202.442 41.6092 194.266 45.1879ZM35.951 91.6088C35.8618 97.2506 35.8873 102.88 35.9255 108.522C41.9749 110.508 48.2534 111.82 54.532 112.852C63.7525 114.647 71.5849 122.938 71.8905 132.502C72.7056 141.863 66.3888 151.147 57.4739 154.025C50.9534 156.458 44.0762 154.013 37.4155 153.834C36.8806 166.29 35.6708 178.732 35.9382 191.213C35.8873 197.81 41.9366 203.796 48.5591 203.503C110.581 203.503 172.59 203.528 234.612 203.49C241.222 203.465 246.736 197.352 246.672 190.844C246.711 158.241 246.685 125.638 246.685 93.0352C246.902 87.5971 243.501 82.1081 238.229 80.427C232.51 78.9242 226.461 79.8539 220.616 79.7266C220.845 93.0606 222.793 110.355 208.415 117.411C196.367 122.709 181.034 115.793 178.066 102.752C176.984 103.338 175.927 103.962 174.895 104.637L174.908 105.134C174.309 105.465 173.112 106.153 172.514 106.497C163.255 109.821 152.315 107.324 146.253 99.352C144.432 101.071 142.636 102.816 140.815 104.523C139.783 104.765 138.956 105.261 138.306 106.025C129.035 109.999 117.203 107.643 111.32 99.1354C106.926 93.621 107.053 86.3235 107.206 79.6629C106.607 79.6756 105.423 79.6884 104.824 79.7011C86.1033 79.5865 67.3822 79.6629 48.661 79.6629C42.115 79.4846 36.1547 85.0628 35.951 91.6088ZM17.2553 116.507C10.1616 118.786 7.66545 127.077 9.18097 133.789C11.8172 147.021 18.9745 159.12 28.4115 168.658C30.1945 161.565 26.9342 152.612 32.6015 146.983C39.4914 143.149 47.5657 149.199 54.7995 146.384C61.9568 144.283 66.2105 135.342 62.8101 128.58C60.5814 123.46 55.1306 120.633 49.769 120.124C39.0075 118.761 28.1441 112.775 17.2553 116.507ZM60.072 211.577C60.0338 214.876 60.7724 218.11 61.6639 221.269L62.3644 221.383C62.8356 225.905 66.0322 229.853 69.1778 233.011C115.828 233.278 162.504 233.011 209.166 233.138C215.521 234.361 218.068 226.796 220.042 222.186L220.437 222.211C221.494 218.734 222.22 215.143 222.399 211.501C168.285 211.475 114.172 211.335 60.072 211.577ZM72.7311 241.136C72.2726 253.311 72.5655 265.537 72.5782 277.725C72.349 282.043 76.0423 286.36 80.5252 285.965C119.483 285.965 158.454 286.016 197.411 285.94C205.562 285.723 212.299 278.12 211.994 270.058C211.866 260.418 212.261 250.764 211.764 241.136C165.42 241.034 119.076 241.022 72.7311 241.136Z" fill="#012239"/>
<path d="M171.124 118.749C172.321 117.118 174.397 117.258 176.193 116.902C177.161 118.29 178.129 119.691 179.071 121.117C167.418 135.343 153.205 147.416 140.533 160.788C134.79 166.558 129.836 156.751 125.582 153.644C121.736 151.657 119.431 145.085 125.162 143.952C130.09 144.894 132.778 150.154 136.649 153.02C148.34 141.812 159.573 130.109 171.124 118.749Z" fill="#012239"/>
<path d="M81.9252 258.775C89.8849 258.393 97.8955 258.533 105.868 258.686C110.096 258.928 110.198 266.149 105.868 266.391C98.2649 266.709 90.6236 266.569 83.0078 266.454C78.8687 266.531 78.232 260.099 81.9252 258.775Z" fill="#012239"/>
<path d="M80.3086 21.6781C80.4487 12.4958 91.3757 5.87337 99.5647 10.1525C99.3991 30.6312 99.4118 51.1098 99.5137 71.5885C93.1078 71.7795 86.6763 71.7923 80.2704 71.5885C80.1048 54.956 80.0411 38.3107 80.3086 21.6781Z" fill="#F7BF9A"/>
<path d="M125.368 33.5471C133.264 31.1401 141.911 37.8007 142.204 45.9005C142.319 59.4765 142.28 73.0526 142.217 86.6286C142.102 92.7671 137.505 98.549 131.404 99.6188C123.547 101.618 115.167 94.7411 115.218 86.6923C115.141 73.4983 115.205 60.3171 115.192 47.1358C114.925 40.9591 119.446 35.1008 125.368 33.5471Z" fill="#F7BF9A"/>
<path d="M159.842 33.6748C167.777 30.9749 176.819 37.5337 177.112 45.8117C177.468 59.0184 177.226 72.2634 177.239 85.4828C177.366 91.3921 173.762 97.3777 167.993 99.1862C159.842 102.51 149.998 95.3528 150.24 86.6672C150.151 73.4987 150.227 60.3302 150.202 47.1617C149.883 41.1378 154.06 35.3177 159.842 33.6748Z" fill="#F7BF9A"/>
<path d="M194.266 45.1874C202.442 41.6087 212.503 48.5114 212.554 57.3243C212.707 70.5183 212.593 83.7377 212.605 96.9317C212.924 103.936 207.282 110.584 200.239 111.094C192.827 111.921 185.733 105.528 185.593 98.0906C185.479 84.9476 185.593 71.7918 185.542 58.6488C185.199 52.8542 188.943 47.3397 194.266 45.1874ZM200.761 56.6494C197.667 57.6045 198.329 61.1832 198.201 63.6793C198.38 71.6008 197.959 79.5478 198.392 87.4565C198.533 91.621 205.677 91.7102 206.059 87.6093C206.798 78.8346 206.327 69.9707 206.289 61.1577C206.645 58.254 203.563 55.3885 200.761 56.6494Z" fill="#F7BF9A"/>
<path d="M17.2557 116.506C28.1445 112.775 39.0079 118.761 49.7694 120.123C55.131 120.633 60.5818 123.46 62.8105 128.58C66.2109 135.342 61.9572 144.283 54.7999 146.384C47.5661 149.198 39.4918 143.149 32.6019 146.982C26.9346 152.612 30.1949 161.565 28.4119 168.658C18.975 159.119 11.8176 147.021 9.18139 133.789C7.66587 127.077 10.162 118.786 17.2557 116.506Z" fill="#F7BF9A"/>
<path d="M99.5648 10.1514C104.162 12.6475 107.55 17.5252 107.232 22.8869C107.232 39.0991 107.232 55.3242 107.04 71.5237C104.532 71.7529 102.01 71.7529 99.5138 71.5874C99.4119 51.1087 99.3992 30.63 99.5648 10.1514Z" fill="#EAA77F"/>
<path d="M200.761 56.6502C203.562 55.3894 206.644 58.2549 206.288 61.1586C206.326 69.9715 206.797 78.8354 206.059 87.6102C205.676 91.711 198.532 91.6219 198.392 87.4574C197.959 79.5486 198.379 71.6017 198.201 63.6802C198.328 61.184 197.666 57.6054 200.761 56.6502Z" fill="#FFFFFE"/>
<path d="M104.824 79.7008C105.423 79.6881 106.607 79.6753 107.206 79.6626C107.053 86.3233 106.926 93.6207 111.319 99.1352C117.203 107.642 129.034 109.999 138.306 106.025C135.224 110.724 131.263 115.921 125.086 116.112C115.917 117.614 106.505 110.661 105.295 101.453C104.48 94.232 105.13 86.9473 104.824 79.7008Z" fill="#EDE6E8"/>
<path d="M140.814 104.522C142.636 102.816 144.431 101.071 146.253 99.3516C152.315 107.324 163.254 109.82 172.513 106.496C167.495 120.849 144.941 118.442 140.814 104.522Z" fill="#EDE6E8"/>
<path d="M174.895 104.637C175.926 103.962 176.983 103.338 178.066 102.752C181.033 115.793 196.367 122.708 208.414 117.41C203.218 129.038 187.146 130.541 179.072 121.117C178.129 119.69 177.161 118.289 176.194 116.901C175.735 112.979 175.302 109.056 174.907 105.133L174.895 104.637Z" fill="#EDE6E8"/>
<path d="M109.153 128.656C108.669 126.07 110.999 123.752 113.584 124.236C124.601 124.313 135.63 124.033 146.646 124.376C150.199 125.484 150.008 131.228 146.366 132.056C136.648 132.425 126.906 131.967 117.189 132.272C117.023 145.39 117.036 158.52 117.189 171.638C130.293 171.676 143.411 171.727 156.529 171.612C156.77 166.238 156.35 160.864 156.694 155.515C157.165 151.885 163.711 151.91 164.132 155.566C164.335 162.328 164.183 169.103 164.208 175.879C164.463 178.413 161.737 179.827 159.547 179.61C144.201 179.636 128.867 179.636 113.534 179.61C111.483 179.61 108.821 178.222 109.191 175.802C109.089 160.087 109.153 144.371 109.153 128.656Z" fill="#012239"/>
<path d="M60.0708 211.577C114.171 211.335 168.284 211.475 222.397 211.5C222.219 215.143 221.493 218.734 220.436 222.211L220.041 222.186C167.558 220.441 114.91 222.033 62.3631 221.383L61.6627 221.269C60.7712 218.11 60.0325 214.875 60.0708 211.577Z" fill="#E69E76"/>
<path d="M62.3633 221.383C114.91 222.033 167.558 220.441 220.041 222.186C218.067 226.796 215.52 234.361 209.165 233.138C162.502 233.011 115.827 233.278 69.1768 233.011C66.0311 229.852 62.8345 225.904 62.3633 221.383Z" fill="#F6C09A"/>
<path d="M72.7313 241.136C119.076 241.022 165.42 241.035 211.765 241.136C212.261 250.764 211.867 260.418 211.994 270.059C212.3 278.12 205.562 285.723 197.412 285.94C158.454 286.016 119.483 285.965 80.5254 285.965C76.0425 286.36 72.3492 282.043 72.5785 277.726C72.5657 265.538 72.2728 253.312 72.7313 241.136ZM81.9263 258.775C78.233 260.1 78.8698 266.531 83.0088 266.455C90.6247 266.569 98.2659 266.709 105.869 266.391C110.199 266.149 110.097 258.928 105.869 258.686C97.8966 258.533 89.886 258.393 81.9263 258.775Z" fill="#00D88A"/>
</svg>
