<svg width="49" height="33" viewBox="0 0 49 33" fill="none" xmlns="http://www.w3.org/2000/svg">
<path d="M6.41169 0.434634C4.34814 0.400666 2.28096 0.430994 0.216206 0.420076V22.9844C16.9732 22.9917 20.387 22.9698 37.1441 22.9953C35.5403 24.6828 33.8213 26.2659 32.2369 27.9692C33.6903 29.391 35.0769 30.9135 36.5909 32.254C40.7264 28.1402 44.8547 24.0168 48.9648 19.8776C44.8353 15.7371 40.7252 11.5664 36.5423 7.48538C35.1096 8.90717 33.6733 10.3278 32.2636 11.7714C33.7691 13.4953 35.5609 15.0663 37.1453 16.7622C22.4603 16.778 21.1173 16.7865 6.43231 16.7574C6.41047 8.48621 6.45172 8.70458 6.41169 0.434634Z" fill="#012239"/>
</svg>
