<svg width="46" height="48" viewBox="0 0 46 48" fill="none" xmlns="http://www.w3.org/2000/svg">
<g clip-path="url(#clip0_259_10412)">
<path d="M14.6627 2.6751C15.5293 1.7553 16.8767 1.39087 18.0641 1.75163C19.93 2.23172 21.2176 3.89141 23.0009 4.55051C24.7842 3.89325 26.0709 2.23356 27.9359 1.74979C29.3114 1.3211 30.8688 1.91044 31.7091 3.11206C32.8895 4.62946 33.0301 6.68846 34.0373 8.29858C35.948 8.81539 38.046 8.24625 39.8732 9.1835C41.2391 9.81965 42.009 11.4243 41.8622 12.9518C41.806 14.7216 40.9007 16.3189 40.8444 18.0841C41.6284 19.1168 42.771 19.7346 43.6798 20.6287C44.5991 21.4549 45.3787 22.5555 45.5 23.8517V24.4952C45.3102 26.1448 44.1078 27.3639 42.9125 28.3277C42.1927 28.9171 41.4043 29.4421 40.8436 30.2123C40.9077 32.0024 41.8358 33.6244 41.8657 35.4255C41.9888 36.9493 41.1811 38.5245 39.8126 39.1313C37.995 40.0309 35.9234 39.471 34.0329 39.9924C33.0301 41.6016 32.8895 43.6587 31.7091 45.1725C30.8943 46.3291 29.4178 46.9304 28.0757 46.5687C26.1421 46.1345 24.8264 44.4069 23 43.7349C21.2809 44.3674 20.0354 45.9298 18.2697 46.4741C16.9936 46.9414 15.4906 46.5613 14.5766 45.5176C13.151 43.9929 13.0376 41.7209 11.9627 39.9868C10.1768 39.4939 8.24932 39.9841 6.49941 39.2653C5.19688 38.8063 4.22041 37.5083 4.1457 36.068C3.95234 34.032 5.07383 32.2034 5.15557 30.205C4.4208 29.2154 3.33975 28.6187 2.4626 27.787C1.50547 26.9508 0.670508 25.852 0.5 24.5228V23.7847C0.690723 22.137 1.89307 20.9206 3.0875 19.9586C3.80908 19.372 4.5957 18.8433 5.15645 18.0731C5.08262 16.1894 4.071 14.4783 4.12988 12.5708C4.09121 11.0846 4.98066 9.63789 6.31221 9.09537C8.10518 8.27196 10.1188 8.80713 11.9688 8.29307C13.0534 6.52414 13.1642 4.19342 14.6627 2.6751ZM28.7366 17.8317C26.041 20.6397 23.3568 23.4588 20.6577 26.2623C19.4976 25.0735 18.3629 23.8591 17.2036 22.6694C16.4231 21.8891 15.0257 22.0525 14.4254 22.9888C13.9051 23.7232 13.9807 24.8321 14.6003 25.4784C16.1955 27.1481 17.7907 28.8179 19.3921 30.4813C20.0917 31.1863 21.3107 31.1542 21.9822 30.4225C25.1182 27.15 28.2523 23.8765 31.3856 20.6003C32.109 19.8668 32.0914 18.5247 31.3435 17.8161C30.6526 17.09 29.4187 17.0973 28.7366 17.8317Z" fill="#00C6BD"/>
</g>
<defs>
<clipPath id="clip0_259_10412">
<rect width="45" height="47" fill="white" transform="translate(0.5 0.642578)"/>
</clipPath>
</defs>
</svg>
