<svg width="41" height="41" viewBox="0 0 41 41" fill="none" xmlns="http://www.w3.org/2000/svg">
<path d="M20.7289 5.69336C29.7156 5.69336 37.1923 12.16 38.7606 20.6934C37.1939 29.2267 29.7156 35.6934 20.7289 35.6934C11.7423 35.6934 4.2656 29.2267 2.69727 20.6934C4.26393 12.16 11.7423 5.69336 20.7289 5.69336ZM20.7289 32.36C24.128 32.3593 27.4262 31.2047 30.0837 29.0853C32.7411 26.9659 34.6004 24.0071 35.3573 20.6934C34.5977 17.3822 32.7372 14.4267 30.08 12.3101C27.4228 10.1934 24.1261 9.04091 20.7289 9.04091C17.3318 9.04091 14.0351 10.1934 11.3779 12.3101C8.7207 14.4267 6.86021 17.3822 6.1006 20.6934C6.85743 24.0071 8.71672 26.9659 11.3742 29.0853C14.0316 31.2047 17.3298 32.3593 20.7289 32.36ZM20.7289 28.1934C18.7398 28.1934 16.8322 27.4032 15.4256 25.9967C14.0191 24.5901 13.2289 22.6825 13.2289 20.6934C13.2289 18.7042 14.0191 16.7966 15.4256 15.3901C16.8322 13.9835 18.7398 13.1934 20.7289 13.1934C22.7181 13.1934 24.6257 13.9835 26.0322 15.3901C27.4388 16.7966 28.2289 18.7042 28.2289 20.6934C28.2289 22.6825 27.4388 24.5901 26.0322 25.9967C24.6257 27.4032 22.7181 28.1934 20.7289 28.1934ZM20.7289 24.86C21.834 24.86 22.8938 24.421 23.6752 23.6396C24.4566 22.8582 24.8956 21.7984 24.8956 20.6934C24.8956 19.5883 24.4566 18.5285 23.6752 17.7471C22.8938 16.9657 21.834 16.5267 20.7289 16.5267C19.6239 16.5267 18.5641 16.9657 17.7827 17.7471C17.0013 18.5285 16.5623 19.5883 16.5623 20.6934C16.5623 21.7984 17.0013 22.8582 17.7827 23.6396C18.5641 24.421 19.6239 24.86 20.7289 24.86Z" fill="#00C6BD"/>
</svg>
