<svg width="41" height="41" viewBox="0 0 41 41" fill="none" xmlns="http://www.w3.org/2000/svg">
<g opacity="0.5">
<path d="M16.2584 31.9693L13.0401 31.1059L14.3518 26.2076C12.3884 25.4835 10.5636 24.4282 8.95677 23.0876L5.36844 26.6776L3.0101 24.3193L6.6001 20.7309C4.57356 18.3039 3.21192 15.3922 2.64844 12.281L5.92844 11.6826C7.19344 18.686 13.3201 23.9993 20.6884 23.9993C28.0551 23.9993 34.1834 18.686 35.4484 11.6826L38.7284 12.2793C38.1657 15.391 36.8046 18.3032 34.7784 20.7309L38.3668 24.3193L36.0084 26.6776L32.4201 23.0876C30.8132 24.4282 28.9885 25.4835 27.0251 26.2076L28.3368 31.1076L25.1184 31.9693L23.8051 27.0693C21.7424 27.4227 19.6345 27.4227 17.5718 27.0693L16.2584 31.9693Z" fill="black"/>
</g>
</svg>
