<svg width="44" height="57" viewBox="0 0 44 57" fill="none" xmlns="http://www.w3.org/2000/svg">
<path d="M43.5251 56.209H0.858398V50.8757C0.858398 47.3394 2.26316 43.948 4.76364 41.4476C7.26413 38.9471 10.6555 37.5423 14.1917 37.5423H30.1917C33.728 37.5423 37.1193 38.9471 39.6198 41.4476C42.1203 43.948 43.5251 47.3394 43.5251 50.8757V56.209ZM22.1917 32.209C20.0906 32.209 18.01 31.7951 16.0688 30.9911C14.1276 30.187 12.3638 29.0084 10.878 27.5227C9.39228 26.037 8.21373 24.2731 7.40966 22.3319C6.60558 20.3907 6.19173 18.3101 6.19173 16.209C6.19173 14.1078 6.60558 12.0273 7.40966 10.0861C8.21373 8.14484 9.39228 6.38101 10.878 4.89528C12.3638 3.40954 14.1276 2.23099 16.0688 1.42691C18.01 0.622836 20.0906 0.208984 22.1917 0.208984C26.4352 0.208984 30.5049 1.89469 33.5054 4.89528C36.506 7.89586 38.1917 11.9655 38.1917 16.209C38.1917 20.4524 36.506 24.5221 33.5054 27.5227C30.5049 30.5233 26.4352 32.209 22.1917 32.209Z" fill="white"/>
</svg>
